<svg width="82" height="82" viewBox="0 0 82 82" fill="none" xmlns="http://www.w3.org/2000/svg">
<path d="M53.5853 0H28.4147C5.44514 0 0 5.44456 0 28.4116V53.5796C0 76.5467 5.44514 81.9913 28.4147 81.9913H53.5853C76.5549 81.9913 82 76.5467 82 53.5796V28.4116C82 5.44456 76.501 0 53.5853 0ZM66.1976 58.4887H60.2451C57.9901 58.4887 57.2957 56.7003 53.2394 52.5906C49.7161 49.1753 48.1556 48.7218 47.2869 48.7218C46.0595 48.7218 45.711 49.0677 45.711 50.751V56.1289C45.711 57.5714 45.2575 58.4374 41.4395 58.4374C35.1256 58.4374 28.12 54.6198 23.2078 47.5073C15.7999 37.0845 13.773 29.2776 13.773 27.6635C13.773 26.7949 14.1189 25.9827 15.7871 25.9827H21.7524C23.2616 25.9827 23.8356 26.6771 24.4224 28.2912C27.3718 36.8052 32.2839 44.2636 34.3108 44.2636C35.059 44.2636 35.405 43.9178 35.405 42.009V33.2157C35.1769 29.1598 33.0424 28.8113 33.0424 27.3714C33.0424 26.6771 33.6164 25.9827 34.5363 25.9827H43.9173C45.1857 25.9827 45.6521 26.6771 45.6521 28.1708V40.0335C45.6521 41.3146 46.2261 41.7681 46.572 41.7681C47.3202 41.7681 47.9608 41.3146 49.3471 39.9259C53.6314 35.1219 56.7012 27.7147 56.7012 27.7147C57.101 26.8462 57.7954 26.034 59.3046 26.034H65.27C67.0585 26.034 67.4583 26.9538 67.0585 28.2349C66.3103 31.704 59.01 42.0064 59.01 42.0064C58.3822 43.0466 58.1413 43.5001 59.01 44.6608C59.6506 45.5293 61.7338 47.3305 63.1201 48.9447C65.6697 51.8399 67.6299 54.2688 68.1527 55.9496C68.7395 57.6176 67.8734 58.4861 66.1899 58.4861L66.1976 58.4887Z" fill="#F5F5F5"/>
</svg>
