<svg width="109" height="109" viewBox="0 0 109 109" fill="none" xmlns="http://www.w3.org/2000/svg">
<g id="&#208;&#148;&#208;&#184;&#208;&#183;&#208;&#176;&#208;&#184;&#204;&#134;&#208;&#189; &#208;&#177;&#208;&#181;&#208;&#183; &#208;&#189;&#208;&#176;&#208;&#183;&#208;&#178;&#208;&#176;&#208;&#189;&#208;&#184;&#209;&#143; (23) 1">
<g id="Clip path group">
<mask id="mask0_305_587" style="mask-type:luminance" maskUnits="userSpaceOnUse" x="24" y="25" width="61" height="59">
<g id="6859c7501b">
<path id="Vector" d="M24.0093 25.4194H84.9685V83.5527H24.0093V25.4194Z" fill="white"/>
</g>
</mask>
<g mask="url(#mask0_305_587)">
<g id="Group">
<path id="Vector_2" d="M84.7802 83.1755C84.7896 83.1623 84.7996 83.1497 84.8086 83.1366C84.8175 83.1235 84.8249 83.1098 84.8327 83.0961C84.8406 83.0835 84.848 83.0714 84.8553 83.0583C84.8627 83.0441 84.869 83.0299 84.8753 83.0162C84.8816 83.0025 84.8885 82.9894 84.8942 82.9757C84.9 82.9615 84.9048 82.9474 84.9095 82.9332C84.9147 82.9184 84.92 82.9043 84.9247 82.8895C84.9289 82.8753 84.9321 82.8606 84.9358 82.8464C84.9395 82.8312 84.9437 82.8165 84.9468 82.8012C84.9494 82.7855 84.9515 82.7692 84.9536 82.7534C84.9557 82.7392 84.9584 82.7255 84.96 82.7113C84.9615 82.6903 84.9621 82.6698 84.9626 82.6488C84.9631 82.6398 84.9642 82.6309 84.9642 82.622V26.3484C84.9642 26.3389 84.9631 26.33 84.9626 26.321C84.9621 26.3026 84.9615 26.2848 84.96 26.2669C84.9589 26.2532 84.9573 26.2401 84.9552 26.227C84.9531 26.2101 84.9505 26.1933 84.9479 26.1765C84.9452 26.1628 84.9421 26.1486 84.9389 26.135C84.9352 26.1197 84.931 26.1039 84.9268 26.0887C84.9226 26.074 84.9179 26.0598 84.9132 26.0461C84.9079 26.0314 84.9032 26.0172 84.8974 26.003C84.8916 25.9883 84.8848 25.9741 84.8785 25.9599C84.8722 25.9468 84.8664 25.9342 84.8596 25.921C84.8517 25.9058 84.8433 25.8916 84.8348 25.8769C84.828 25.8653 84.8212 25.8537 84.8138 25.8427C84.8038 25.8275 84.7933 25.8127 84.7823 25.798C84.777 25.7907 84.7723 25.7828 84.767 25.7759C84.7644 25.7728 84.7618 25.7702 84.7597 25.7675C84.7486 25.7533 84.7366 25.7407 84.725 25.7276C84.7161 25.7171 84.7066 25.7066 84.6971 25.6971C84.6866 25.6866 84.6761 25.6766 84.6651 25.6666C84.653 25.6556 84.6414 25.6445 84.6293 25.634C84.6199 25.6261 84.6099 25.6188 84.5999 25.6114C84.5857 25.6004 84.5715 25.5893 84.5573 25.5793C84.5473 25.5725 84.5363 25.5662 84.5258 25.5599C84.511 25.5504 84.4963 25.541 84.4811 25.5326C84.4679 25.5252 84.4537 25.5194 84.4406 25.5126C84.4275 25.5063 84.4143 25.4994 84.4007 25.4937C84.3844 25.4863 84.3675 25.4805 84.3512 25.4747C84.3397 25.4705 84.3286 25.4658 84.3171 25.4621C84.3003 25.4569 84.2824 25.4527 84.265 25.4479C84.2529 25.4448 84.2414 25.4416 84.2293 25.439C84.214 25.4353 84.1978 25.4332 84.182 25.4306C84.1673 25.4285 84.1525 25.4259 84.1378 25.4243C84.1247 25.4227 84.1105 25.4222 84.0968 25.4211C84.0795 25.4201 84.0616 25.4185 84.0443 25.4185C84.0406 25.4185 84.0369 25.418 84.0332 25.418H24.9527C24.949 25.418 24.9453 25.4185 24.9416 25.4185C24.9238 25.4185 24.9059 25.4201 24.888 25.4211C24.8743 25.4222 24.8612 25.4227 24.8475 25.4238C24.8328 25.4259 24.8176 25.4285 24.8023 25.4311C24.7871 25.4332 24.7713 25.4358 24.7566 25.439C24.744 25.4416 24.7314 25.4453 24.7187 25.4485C24.7019 25.4527 24.6851 25.4569 24.6688 25.4621C24.6562 25.4658 24.6441 25.4711 24.632 25.4753C24.6162 25.481 24.6005 25.4868 24.5852 25.4931C24.5705 25.4994 24.5568 25.5068 24.5427 25.5136C24.53 25.5199 24.5174 25.5257 24.5048 25.532C24.489 25.541 24.4738 25.551 24.458 25.5609C24.4486 25.5667 24.438 25.5725 24.4286 25.5788C24.4139 25.5893 24.3991 25.6009 24.3844 25.6119C24.3755 25.6193 24.3655 25.6261 24.3566 25.6335C24.344 25.644 24.3324 25.6556 24.3203 25.6666C24.3093 25.6766 24.2987 25.6861 24.2882 25.6966C24.2788 25.7066 24.2698 25.7176 24.2604 25.7276C24.2488 25.7407 24.2372 25.7539 24.2262 25.7675C24.2241 25.7702 24.2215 25.7728 24.2188 25.7759C24.2131 25.7828 24.2083 25.7907 24.2031 25.798C24.1926 25.8127 24.1821 25.8275 24.1721 25.8427C24.1647 25.8537 24.1579 25.8653 24.151 25.8769C24.1426 25.8916 24.1337 25.9063 24.1258 25.921C24.1195 25.9342 24.1132 25.9473 24.1074 25.9599C24.1006 25.9741 24.0943 25.9888 24.0885 26.0035C24.0827 26.0177 24.0774 26.0319 24.0727 26.0461C24.068 26.0603 24.0633 26.0745 24.0591 26.0887C24.0543 26.1039 24.0506 26.1197 24.047 26.135C24.0438 26.1492 24.0407 26.1628 24.038 26.177C24.0349 26.1933 24.0322 26.2101 24.0301 26.227C24.0286 26.2401 24.0265 26.2538 24.0254 26.2669C24.0238 26.2853 24.0233 26.3032 24.0228 26.321C24.0228 26.3305 24.0217 26.3394 24.0217 26.3484V82.6225C24.0217 82.6314 24.0228 82.6404 24.0233 82.6493C24.0238 82.6703 24.0244 82.6908 24.0259 82.7119C24.0275 82.7261 24.0301 82.7397 24.0317 82.7539C24.0343 82.7697 24.0364 82.786 24.0391 82.8017C24.0422 82.817 24.0464 82.8317 24.0501 82.847C24.0538 82.8611 24.0569 82.8759 24.0612 82.8901C24.0659 82.9048 24.0711 82.919 24.0764 82.9337C24.0811 82.9479 24.0859 82.9621 24.0916 82.9763C24.0974 82.9899 24.1037 83.0031 24.11 83.0162C24.1169 83.0304 24.1232 83.0446 24.1305 83.0588C24.1374 83.0719 24.1453 83.084 24.1526 83.0966C24.1605 83.1103 24.1684 83.124 24.1773 83.1371C24.1863 83.1503 24.1957 83.1629 24.2052 83.176C24.2136 83.1876 24.222 83.1991 24.2309 83.2102C24.2441 83.226 24.2583 83.2412 24.2725 83.2564C24.2788 83.2633 24.284 83.2701 24.2909 83.2769C24.2914 83.2775 24.2919 83.278 24.2924 83.2785C24.314 83.3001 24.3366 83.3211 24.3608 83.3405C24.3697 83.3479 24.3797 83.3542 24.3886 83.3616C24.4034 83.3731 24.4181 83.3847 24.4338 83.3952C24.447 83.4042 24.4612 83.4115 24.4748 83.4199C24.4869 83.4273 24.4995 83.4352 24.5122 83.442C24.5258 83.4494 24.5406 83.4562 24.5547 83.4625C24.5679 83.4688 24.581 83.4756 24.5947 83.4814C24.6084 83.4872 24.6226 83.4914 24.6367 83.4967C24.6515 83.5019 24.6662 83.5077 24.6814 83.5124C24.6951 83.5166 24.7088 83.5198 24.7224 83.5229C24.7382 83.5272 24.754 83.5314 24.7697 83.535C24.7855 83.5377 24.8013 83.5398 24.817 83.5419C24.8318 83.544 24.846 83.5471 24.8601 83.5482C24.8906 83.5513 24.9206 83.5529 24.9511 83.5529C24.9516 83.5529 24.9521 83.5529 24.9527 83.5529H84.0332C84.0332 83.5529 84.0337 83.5529 84.0343 83.5529C84.0648 83.5529 84.0947 83.5513 84.1252 83.5482C84.1399 83.5471 84.1541 83.544 84.1688 83.5419C84.1841 83.5398 84.1999 83.5377 84.2156 83.535C84.2314 83.5319 84.2477 83.5272 84.2635 83.5229C84.2771 83.5198 84.2908 83.5166 84.3039 83.5124C84.3197 83.5077 84.3344 83.5019 84.3497 83.4967C84.3633 83.4914 84.377 83.4872 84.3907 83.4814C84.4043 83.4756 84.4175 83.4688 84.4311 83.4625C84.4453 83.4562 84.4595 83.4499 84.4732 83.4425C84.4863 83.4357 84.4984 83.4273 84.511 83.4199C84.5247 83.412 84.5384 83.4042 84.5515 83.3952C84.5673 83.3847 84.582 83.3731 84.5973 83.3616C84.6062 83.3542 84.6157 83.3479 84.6246 83.3405C84.6488 83.3211 84.6714 83.3001 84.6929 83.2785C84.6934 83.278 84.694 83.2775 84.6945 83.2769C84.7013 83.2706 84.7066 83.2633 84.7129 83.2564C84.7271 83.2412 84.7413 83.2265 84.7544 83.2102C84.7639 83.1986 84.7718 83.1865 84.7802 83.1755ZM25.8836 28.2544L35.6319 35.8601C35.6287 35.8911 35.6266 35.9227 35.6266 35.9547V70.7658L25.8836 80.3948V28.2544ZM36.9371 72.0868H40.4054C40.9195 72.0868 41.3363 71.6705 41.3363 71.1569C41.3363 70.6438 40.9195 70.2275 40.4054 70.2275H37.56C37.55 70.216 37.5405 70.2044 37.5295 70.1934C37.5164 70.1802 37.5022 70.1681 37.4885 70.156V36.8846H42.2672C42.7813 36.8846 43.1982 36.4683 43.1982 35.9547C43.1982 35.4417 42.7813 35.0254 42.2672 35.0254H37.561C37.5248 34.9849 37.4854 34.9471 37.4412 34.9124L27.6561 27.2783H81.3298L71.5447 34.9124C71.5005 34.9471 71.4611 34.9849 71.4248 35.0254H66.2219C65.7078 35.0254 65.2915 35.4417 65.2915 35.9547C65.2915 36.4683 65.7083 36.8846 66.2219 36.8846H70.8766V70.227H67.3394C66.8254 70.227 66.4085 70.6433 66.4085 71.1569C66.4085 71.6699 66.8254 72.0862 67.3394 72.0862H71.8075C71.8816 72.0862 71.9537 72.0768 72.0225 72.0605L81.7692 81.6926H27.2167L36.9371 72.0868ZM72.7726 70.1865C72.7616 70.1755 72.75 70.166 72.7385 70.1555V36.3406L83.1023 28.2544V80.3942L72.7726 70.1865Z" fill="#333333"/>
</g>
</g>
</g>
<path id="Vector_3" d="M51.274 68.5472C50.8183 68.1293 50.4687 67.9206 50.2253 67.9206C50.5497 67.796 50.8619 67.5621 51.1615 67.2194C51.6357 66.6706 51.8733 65.9972 51.8733 65.1993C51.8733 64.0712 51.4754 63.1718 50.6806 62.5016C49.8858 61.8314 48.8397 61.4966 47.5424 61.4966C46.8443 61.4966 46.2551 61.5807 45.7746 61.7489C45.2942 61.9171 44.8799 62.1605 44.5309 62.478C44.0631 62.9269 43.7198 63.4163 43.5017 63.9461C43.2961 64.5512 43.1805 65.1898 43.1558 65.8632H45.6464C45.6337 65.1961 45.7757 64.6631 46.0711 64.2642C46.367 63.8652 46.8291 63.6654 47.4583 63.6654C48.006 63.6654 48.4308 63.8273 48.733 64.1517C49.0347 64.476 49.1856 64.8965 49.1856 65.4143C49.1856 66.2122 48.8902 66.7416 48.2993 67.0039C47.9571 67.1595 47.3537 67.2441 46.4895 67.2562V69.1638C47.3731 69.1638 48.0202 69.2479 48.4308 69.4161C49.153 69.7152 49.5136 70.3108 49.5136 71.2023C49.5136 71.8756 49.3191 72.3913 48.9296 72.7498C48.5406 73.1083 48.0843 73.2875 47.5613 73.2875C46.7077 73.2875 46.1194 72.9601 45.7956 72.3056C45.6211 71.9503 45.5344 71.5014 45.5344 70.9594H42.9124C42.956 72.0375 43.1742 72.9107 43.5674 73.5772C44.3154 74.8303 45.65 75.4569 47.5708 75.4569C49.1299 75.4569 50.3068 75.0222 51.1016 74.1522C51.8969 73.2828 52.2943 72.2746 52.2943 71.1276C52.2949 70.0369 51.9542 69.1769 51.274 68.5472Z" fill="#333333"/>
<path id="Vector_4" d="M63.8719 63.3852C63.2716 62.5379 62.4879 61.9549 61.5196 61.6369C60.9508 61.4498 60.2391 61.3504 59.3833 61.3378H55.2958V52.9515H55.7342C56.1416 52.9515 56.5017 52.6871 56.6231 52.2986L57.4006 49.8097L59.6299 46.6841C59.6472 46.6594 59.663 46.6347 59.6777 46.6089C59.6782 46.6079 59.6793 46.6068 59.6798 46.6058C59.7014 46.5674 59.7198 46.5285 59.7355 46.4886C59.7371 46.4849 59.7392 46.4812 59.7408 46.4775L62.0474 40.4688C63.3205 40.0756 64.2483 38.8886 64.2483 37.4893V32.5182C64.2483 32.0052 63.8314 31.5889 63.3173 31.5889C62.8038 31.5889 62.3869 32.0052 62.3869 32.5182V37.4893C62.3869 38.1837 61.8213 38.7478 61.1264 38.7478H47.7085C47.0136 38.7478 46.448 38.1832 46.448 37.4893V32.5182C46.448 32.0052 46.0312 31.5889 45.5176 31.5889C45.0035 31.5889 44.5867 32.0052 44.5867 32.5182V37.4893C44.5867 38.8886 45.5145 40.075 46.7876 40.4688L49.0942 46.4775C49.0957 46.4812 49.0978 46.4849 49.0994 46.4886C49.1152 46.5285 49.1331 46.5679 49.1551 46.6058C49.1557 46.6068 49.1567 46.6079 49.1572 46.6089C49.172 46.6347 49.1877 46.6594 49.2051 46.6841L51.4344 49.8097L52.2118 52.2986C52.3332 52.6866 52.6933 52.9515 53.1007 52.9515H53.434V61.3378H53.4324V75.1205H59.3833C61.4697 75.1205 63.013 74.2637 64.0128 72.549C64.7497 71.2774 65.1182 69.7252 65.1182 67.8927C65.1182 67.1694 65.031 66.4088 64.8559 65.6109C64.6804 64.8129 64.3529 64.0712 63.8719 63.3852ZM50.6033 45.2154L48.8345 40.6075H59.9999L58.2316 45.2154H50.6033ZM53.0371 48.8519L51.7692 47.0747H57.0657L55.7978 48.8519C55.7411 48.9323 55.6969 49.0206 55.6675 49.1147L55.0498 51.0923H53.7851L53.1675 49.1147C53.138 49.0206 53.0939 48.9318 53.0371 48.8519ZM61.7467 70.7165C61.2089 72.057 60.2586 72.7267 58.8955 72.7267H56.232V63.7316H58.8955C60.2086 63.7316 61.0854 64.107 61.5259 64.8581C61.9669 65.6093 62.1872 66.6863 62.1872 68.0888C62.1872 69.1049 62.04 69.9812 61.7467 70.7165Z" fill="#333333"/>
</g>
</svg>
