<svg width="116" height="98" viewBox="0 0 116 98" fill="none" xmlns="http://www.w3.org/2000/svg">
<path id="Vector" d="M111.076 26.2616C108.413 26.7047 105.739 27.0837 103.07 27.4934C102.059 27.6485 101.139 27.3021 100.284 26.8811C96.7985 25.1664 92.9882 24.4279 89.3544 23.1604C84.1312 21.34 78.6474 20.4809 73.3461 18.9392C72.5454 18.7065 71.7235 18.4975 70.9732 18.1469C67.9995 16.7581 64.8901 15.7384 61.8043 14.6497C61.2072 14.4388 60.4129 14.0184 60.1672 14.8634C59.9296 15.6776 60.8509 15.7782 61.4336 15.9778C62.6503 16.3941 63.8698 16.8017 65.0936 17.1948C67.5467 17.9807 69.8022 19.2666 72.2842 19.9878C74.8679 20.739 77.5481 21.1062 80.0947 21.9988C83.5336 23.0472 87.109 23.6068 90.4668 24.9721C91.9486 25.5746 93.5415 25.9001 95.0831 26.3542C96.1179 26.6589 97.1879 26.8856 98.0022 27.6754C97.1707 28.5404 96.0296 28.2794 95.0276 28.4296C91.5381 28.9546 88.0354 29.3893 84.5371 29.8506C78.3604 30.6649 72.1937 31.5696 65.9504 31.7292C65.1159 31.7501 64.271 31.8143 63.4567 31.9841C61.2054 32.4516 59.236 31.7044 57.4745 30.4753C56.1973 29.5834 54.8234 28.9244 53.4764 28.1831C48.0698 25.2071 42.5189 22.5164 37.0068 19.7487C32.1283 17.2995 27.2787 14.788 22.3612 12.4198C19.2369 10.916 16.15 9.34414 13.0669 7.76305C10.0396 6.2118 7.32139 4.1283 4.26845 2.61913C4.17846 2.57564 4.07989 2.42883 4.08478 2.33421C4.09769 2.08031 4.3158 2.07369 4.50231 2.08827C5.8456 2.1924 7.18891 2.29964 8.5321 2.41387C15.6356 3.01533 22.7547 3.25139 29.8809 3.38713C36.5543 3.51421 43.2278 3.48943 49.8989 3.58091C52.5607 3.6173 55.2558 3.23104 57.9287 3.84489C58.8093 4.04622 59.6683 4.27271 60.4925 4.60142C63.8366 5.93312 67.0647 7.56237 70.501 8.65694C75.9515 10.3943 81.1306 12.8403 86.5433 14.6924C90.0479 15.8914 93.3389 17.7056 96.7783 19.114C99.569 20.257 102.314 21.5058 105.109 22.6367C106.046 23.0151 112.692 24.8317 112.584 25.6423C112.524 26.106 111.62 26.1709 111.076 26.2616ZM80.5958 49.3641C80.171 51.2236 78.8386 51.7592 77.2272 51.9728C73.9177 52.4104 70.6066 52.7089 67.254 52.4788C64.2905 52.2754 61.3958 51.7351 58.4966 51.1392C55.224 50.4672 51.9286 49.9058 48.547 49.2785C43.505 47.8017 38.525 45.9768 33.8097 43.3902C31.0396 41.8705 28.3226 40.3185 25.8973 38.2892C24.6657 37.2595 23.4636 36.1949 22.2295 35.1692C21.5613 34.6133 21.3636 33.9567 21.539 33.1095C22.2935 29.4557 22.9552 25.7795 23.7856 22.1432C24.2168 20.2572 24.4592 18.3468 24.8384 16.4569C25.0805 15.252 25.0901 15.2185 26.1249 15.7366C29.6308 17.4928 33.1108 19.3011 36.6288 21.033C38.4144 21.9127 40.2494 22.6976 42.0808 23.481C45.6982 25.0296 48.8997 27.3378 52.4052 29.0892C54.8821 30.3256 57.2463 31.7521 59.5479 33.2796C60.1093 33.6516 60.6234 33.6579 61.1811 33.48C62.7356 32.9856 64.352 32.9258 65.9491 32.8816C70.7122 32.7499 75.4359 32.2451 80.1385 31.5241C81.4738 31.3187 82.8341 31.3748 84.1581 31.042C84.6437 30.9207 85.0507 31.1161 84.8464 31.8021C84.1149 34.259 83.6626 36.7847 82.954 39.2533C82.1752 41.9644 81.6977 44.7629 81.1115 47.5281C80.9778 48.1571 80.7344 48.7597 80.5958 49.3641ZM99.1535 58.7963C99.1099 59.3684 98.9464 59.9302 98.8363 60.4971C98.8184 60.4936 98.8007 60.4894 98.7831 60.4851C98.6632 60.9827 98.5839 61.4955 98.4108 61.9748C98.2346 62.4635 97.7941 62.6011 97.3096 62.5466C96.8177 62.4904 96.5305 62.2732 96.4667 61.701C96.2673 59.9364 97.0853 58.4716 97.8005 56.9843C97.9599 56.6527 98.3559 56.7708 98.6195 57.0212C99.1341 57.5097 99.2026 58.1563 99.1535 58.7963ZM90.6338 92.5039C90.5786 92.7554 90.5497 93.021 90.4444 93.2511C90.1622 93.863 90.2611 94.9647 89.6395 95.033C88.5237 95.155 87.3168 95.7224 86.1785 94.7292C85.6264 94.2472 85.5313 93.8793 85.6863 93.278C86.1669 91.4102 86.5381 89.5082 87.1306 87.6767C89.0486 81.748 90.864 75.7891 92.5876 69.8011C92.9994 68.3739 93.5556 67.0095 94.341 65.7447C94.4042 65.6439 94.5121 65.571 94.5999 65.4847C94.6527 65.5986 94.7392 65.7083 94.7534 65.827C94.8325 66.4777 94.6815 67.0978 94.5223 67.7261C93.0606 73.5163 91.3243 79.2241 89.5161 84.9137C88.8754 86.9321 88.4198 89.01 87.8891 91.0636C87.825 91.3098 87.7784 91.5774 87.8108 91.8243C87.8321 91.9914 87.9707 92.2048 88.1177 92.2799C88.3708 92.4094 88.6485 92.2622 88.7608 92.0416C88.932 91.7028 89.0574 91.328 89.1294 90.9552C90.0532 86.1428 91.6295 81.5219 93.1102 76.8648C94.2368 73.3185 95.0176 69.6617 95.9547 66.055C96.0171 65.8185 96.1028 65.5891 96.1768 65.3562C96.4599 65.4906 96.4634 65.7991 96.4678 66.0135C96.4857 66.7149 96.4803 67.4254 96.3892 68.12C95.7946 72.655 94.5406 77.0537 93.6857 81.1631C92.4588 85.1385 91.446 88.7947 90.6338 92.5039ZM97.7103 66.0801C97.6872 66.189 97.6642 66.2972 97.6418 66.4063C97.7231 66.5085 97.8659 66.588 97.8881 66.6931C98.3664 68.9127 98.237 71.1526 98.0729 73.391C98.0645 73.5035 97.9669 73.6918 97.8919 73.7026C97.6367 73.7369 97.6598 73.515 97.6704 73.3548C97.8316 71.0284 96.9227 68.7081 97.6329 66.3785C97.6591 66.2796 97.6849 66.1791 97.7103 66.0801ZM97.7742 75.3121C97.7892 75.4956 97.8655 75.7024 97.8077 75.8583C97.6486 76.2888 97.6307 76.7152 97.7092 77.1554C97.0259 76.7914 97.5845 76.2383 97.516 75.7825C97.4946 75.6419 97.6824 75.4699 97.7742 75.3121ZM97.6183 77.2192L97.7092 77.1554C97.7096 77.1633 97.7103 77.1705 97.7116 77.1778L97.6183 77.2192ZM97.3347 79.6594C97.194 80.6792 97.0817 81.7044 96.8925 82.7156C96.1113 86.8809 95.4137 91.0679 94.0167 95.0903C93.6695 96.0915 93.2578 96.4035 92.3733 96.325C91.1668 96.2188 90.8669 95.8086 91.2025 94.6005C92.0794 91.4435 92.3931 88.1483 93.4611 85.2905C94.5275 81.926 95.3098 78.7415 95.9806 75.5285C96.0449 75.2231 96.186 74.9347 96.2909 74.6384C96.6394 74.8859 96.4058 75.212 96.3908 75.4973C96.2367 78.4727 95.4086 81.3206 94.7092 84.1902C93.8725 87.6295 92.9964 91.0578 92.1385 94.4912C92.076 94.7409 92.0066 94.9898 91.9629 95.2425C91.914 95.5259 92.0197 95.7725 92.3147 95.8023C92.4796 95.8195 92.6981 95.7141 92.8284 95.5936C93.1874 95.2611 93.1639 94.7703 93.239 94.339C94.0594 89.6426 95.5381 85.1104 96.6639 80.4907C96.7393 80.1779 96.8239 79.8657 96.9359 79.5656C96.9963 79.4057 97.1243 79.2722 97.2216 79.1267C97.4045 79.2728 97.3599 79.4739 97.3347 79.6594ZM115.467 25.4416C114.325 24.311 110.335 23.0862 109.563 22.8355C107.327 22.1088 105.14 21.2057 102.991 20.2539C99.4077 18.6675 95.7977 17.1105 92.1502 15.7096C88.6706 14.3741 85.2527 12.8961 81.7817 11.5479C78.1904 10.1527 74.6328 8.666 71.0056 7.37123C67.076 5.96774 63.1669 4.5435 59.5227 2.47906C59.2555 2.32743 58.918 2.22507 58.6128 2.22471C54.1899 2.22492 49.7663 2.24055 45.3423 2.26463C41.6841 2.28406 38.0285 2.41935 34.3677 2.18814C31.804 2.02586 29.2288 1.98542 26.6596 2.00793C23.317 2.03644 19.9697 2.02018 16.6501 1.70766C12.8143 1.34626 8.97059 1.13092 5.12965 0.878095C3.74039 0.78703 2.30845 0.624157 0.9134 0.977181C0.200938 1.15749 0.0920832 1.44434 0.446315 2.07177C0.639468 2.41428 0.849349 2.69383 1.27452 2.80721C3.7329 3.45813 5.92244 4.75921 7.96187 6.15962C11.6434 8.68633 15.698 10.4665 19.6143 12.5264C20.6366 13.0641 21.6854 13.563 22.7552 13.9969C23.6527 14.3611 23.851 14.9502 23.6697 15.8349C23.4765 16.7789 23.4006 17.7466 23.2176 18.6932C22.5494 22.1638 21.9076 25.6407 21.1522 29.0918C20.7954 30.7208 20.6047 32.4007 19.9636 33.9588C19.6244 34.7813 19.9188 35.2237 20.6132 35.7003C21.6156 36.3881 22.5112 37.2317 23.4522 38.0099C24.7401 39.0742 25.9429 40.2457 27.3591 41.1493C31.9721 44.0929 36.7347 46.726 41.9415 48.5113C45.534 49.7432 49.0971 51.0388 52.9244 51.3515C53.4338 51.3932 53.9332 51.551 54.4374 51.6499C57.5279 52.26 60.6015 52.9821 63.7137 53.4503C67.863 54.075 72.0375 53.9681 76.2066 53.4605C77.4937 53.3034 78.7242 53.0836 79.9017 52.4897C81.2285 51.8188 82.4112 51.1545 82.097 49.3397C82.0253 48.9229 82.2212 48.4529 82.3252 48.0146C82.922 45.5128 83.5276 43.0131 84.1302 40.5127C84.1022 40.506 84.075 40.4994 84.047 40.4926C84.7391 37.6213 85.4451 34.7533 86.1136 31.8762C86.2821 31.1513 86.6279 30.7665 87.4003 30.7058C88.4238 30.6246 89.4405 30.4553 90.461 30.3282C93.7746 29.9158 97.0959 29.5488 100.401 29.072C101.675 28.8891 102.144 29.2234 102.409 30.4945C102.474 30.8093 102.602 31.1134 102.643 31.4295C103.007 34.1885 103.014 36.9884 102.523 39.691C101.671 44.3727 100.482 48.9934 99.2357 53.5918C99.058 54.2484 98.7758 54.7473 98.0909 55.02C97.0647 55.4292 96.4948 56.2848 96.1594 57.3014C95.8773 58.1555 95.5841 59.01 95.3654 59.8818C94.897 61.7479 94.3623 63.5622 93.2974 65.2144C92.3194 66.7326 91.6898 68.4305 91.2509 70.1931C90.832 71.8795 90.4472 73.5796 89.9395 75.24C88.0754 81.3234 86.1753 87.3974 84.261 93.4657C84.0384 94.1698 84.1106 94.8912 84.6524 95.1799C85.6847 95.7309 86.6173 96.6761 88.0094 96.313C88.9259 96.0744 89.7596 96.4833 90.5881 96.8815C91.5038 97.3219 92.4062 97.7816 93.5258 97.602C94.2704 97.4824 94.6951 97.2133 94.8859 96.4991C95.4819 94.262 96.2205 92.0537 96.6707 89.7883C97.4861 85.6912 98.2548 81.5774 98.6283 77.4104C98.8571 74.8519 99.4006 72.3154 99.2535 69.727C99.0531 66.1896 99.2824 62.6981 100.27 59.275C100.488 58.5213 100.517 57.7487 100.154 57.0102C99.8502 56.3903 99.9803 55.7923 100.142 55.1475C101.346 50.3496 102.668 45.5818 103.651 40.7283C104.388 37.0882 104.443 33.4629 103.781 29.8196C103.573 28.669 103.556 28.6697 104.826 28.4492C107.993 27.8996 111.16 27.3418 114.33 26.8179C114.781 26.7433 115.217 26.7216 115.575 26.396C115.896 26.1047 115.807 25.7773 115.467 25.4416Z" fill="#333333"/>
</svg>
