<svg width="235" height="235" viewBox="0 0 235 235" fill="none" xmlns="http://www.w3.org/2000/svg">
<path fill-rule="evenodd" clip-rule="evenodd" d="M152.018 95.4728C155.983 88.575 160.184 79.0986 162.766 72.169C175.171 77.0215 169.855 93.129 153.294 95.2035C152.854 95.2778 152.428 95.3668 152.018 95.4728ZM132.482 107.18C130.712 111.914 127.78 119.233 127.05 126.577C126.227 135.116 128.079 143.639 133.464 147.309L131.923 152.642L116.87 148.281L113.452 147.295L98.414 142.917L99.9711 137.567C106.471 137.358 112.601 131.148 116.465 123.494C119.783 116.92 121.21 109.158 122.259 104.211L127.223 106.19L127.143 106.441L127.24 106.191L132.482 107.18ZM112.829 92.5291C114.784 104.392 134.404 111.107 144.546 104.785C144.377 105.807 144.367 106.671 144.583 107.053C145.277 108.257 148.072 108.732 149.336 108.305C152.763 107.178 149.638 105.285 149.663 103.192C149.667 102.782 149.798 102.407 150.085 102.079C150.675 101.392 151.829 100.839 153.736 100.561C176.838 97.3355 182.843 73.5211 164.33 67.6064C164.427 67.3233 164.509 67.0568 164.575 66.7902C164.903 65.7076 154.565 61.7463 141.503 57.9424C128.442 54.1531 117.596 51.965 117.283 53.0635C114.498 62.6817 111.212 82.7177 112.829 92.5291Z" fill="#EAB40A"/>
<mask id="mask0_312_689" style="mask-type:luminance" maskUnits="userSpaceOnUse" x="104" y="112" width="87" height="63">
<path d="M105.297 112.33L190.451 113.319L189.736 174.821L104.582 173.831L105.297 112.33Z" fill="white"/>
</mask>
<g mask="url(#mask0_312_689)">
<path fill-rule="evenodd" clip-rule="evenodd" d="M126.865 130.385C124.836 127.48 119.553 132.614 117.343 134.698C111.314 140.437 109.035 137.483 105.069 136.194C106.604 135.423 108.11 134.354 109.511 133.048L109.618 133.223L111.135 134.075C113.777 135.601 115.856 132.603 113.375 130.873L111.751 129.737L110.831 127.727L112.354 129.381L115.171 130.69C118.112 132.062 119.869 128.46 117.056 126.839L114.196 125.183L112.924 123.626L114.578 124.747L118.586 126.54C121.56 127.884 123.352 123.967 120.474 122.406L116.316 120.124L113.873 117.78L116.699 119.749L119.957 120.857C122.622 121.786 124.332 118.058 121.845 116.833L121.408 116.624C120.173 117.207 118.497 117.864 117.224 117.788C116.045 117.71 115.224 116.646 114.717 115.633L114.685 115.585L114.67 115.553L114.67 115.537L114.654 115.507L114.624 115.458L114.609 115.411L114.593 115.379L114.547 115.284L114.531 115.251L114.517 115.205L114.502 115.189L114.502 115.158L114.471 115.125L114.456 115.079L114.44 115.031L114.409 114.968C115.421 115.846 117.047 116.809 118.723 116.103C120.129 115.507 121.462 114.64 122.445 113.912L122.492 113.88L122.508 113.865L122.541 113.85L122.589 113.819L122.62 113.788L122.667 113.757L122.7 113.726L122.716 113.711L122.746 113.68L122.779 113.664L122.795 113.648L122.859 113.602L122.874 113.586L122.921 113.555L122.937 113.54L122.954 113.54L123 113.509L123.016 113.477L123.032 113.477L123.065 113.446L123.096 113.432L123.175 113.353L123.208 113.322L123.239 113.307L123.254 113.307L123.287 113.276L123.319 113.245L123.35 113.23L123.366 113.198L123.382 113.198L123.414 113.168L123.429 113.152L123.445 113.152L123.478 113.121L123.541 113.058L123.557 113.058L123.589 113.028L123.604 113.012L123.652 112.965L123.684 112.95L123.747 112.888L123.78 112.873L123.811 112.842L123.827 112.825L123.859 112.81L123.859 112.794L123.874 112.794L123.922 112.749L123.922 112.732L123.938 112.732L123.955 112.717L123.971 112.701L123.986 112.702L123.986 112.686L124.001 112.686L124.001 112.67L124.017 112.671L124.017 112.655L124.033 112.655L124.033 112.639L124.05 112.64L124.195 115.05L128.599 116.424C128.599 116.424 125.631 118.703 126.68 124.557L126.695 124.683L126.71 124.683L126.71 124.714L126.724 124.777L126.723 124.81L126.755 124.904L126.754 124.952L126.784 125.046L126.784 125.078L126.8 125.095L126.799 125.125L126.815 125.141L126.814 125.189L126.829 125.22L126.845 125.266L126.844 125.299L126.86 125.299L126.859 125.33L126.875 125.379L126.874 125.393L126.89 125.44L126.905 125.473L126.905 125.489L126.921 125.505L126.936 125.552L126.936 125.583L126.95 125.599L126.95 125.616L126.965 125.662L126.981 125.678L126.98 125.71L126.996 125.726C127.729 127.701 129.289 128.776 130.825 129.36C130.792 129.406 130.744 129.47 130.665 129.516L130.634 129.531C130.602 129.562 130.571 129.593 130.522 129.609L130.506 129.624L130.492 129.623C130.459 129.655 130.428 129.671 130.396 129.686L130.365 129.701L130.301 129.748L130.254 129.763L130.223 129.778L130.19 129.809L130.174 129.809L130.143 129.824L130.111 129.84L130.096 129.84L130.001 129.901L129.985 129.916L129.954 129.916L129.937 129.932L129.921 129.932L129.858 129.963L129.858 129.978L129.842 129.978L129.811 129.994L129.778 130.009L129.778 130.025L129.699 130.055L129.652 130.086L129.636 130.101L129.621 130.101L129.589 130.117L129.589 130.133L129.557 130.133L129.54 130.147L129.478 130.193L129.446 130.21L129.43 130.226L129.414 130.241L129.398 130.241L129.381 130.257L129.381 130.273L129.319 130.302L129.303 130.335L129.271 130.35L129.255 130.381L129.24 130.381L129.224 130.396L129.208 130.427L129.191 130.427L129.191 130.443L129.175 130.458L129.175 130.474L129.159 130.474L129.159 130.49L129.143 130.506L129.143 130.537L129.127 130.537L129.127 130.567L129.111 130.6L129.11 130.647C129.101 132.82 129.899 135.835 130.506 137.843C132.828 138.405 135.029 134.541 135.029 134.541C135.029 134.541 135.84 139.179 137.571 140.553C139.02 141.689 177.145 163.04 189.791 170.114L189.736 174.82L136.577 143.33C136.577 143.33 132.45 141.155 130.468 141.132C130.122 141.128 129.508 141.09 128.707 141.033C128.4 140.289 128.142 139.531 127.915 138.726C127.901 138.632 127.871 138.536 127.839 138.441C127.81 138.298 127.766 138.157 127.735 138.016L127.719 137.999L127.689 137.873L127.69 137.842L127.675 137.794C127.645 137.683 127.615 137.556 127.601 137.43L127.584 137.399L127.556 137.258L127.539 137.21L127.525 137.099L127.51 137.067L127.495 136.989L127.496 136.941L127.48 136.925L127.436 136.705L127.436 136.641L127.421 136.626L127.406 136.547C127.052 134.59 126.87 132.511 126.865 130.385Z" fill="#B9612F"/>
</g>
<path fill-rule="evenodd" clip-rule="evenodd" d="M137.502 153.243L93.769 140.548L88.2624 159.567L131.979 172.245L137.502 153.243Z" fill="#1F193D"/>
<path fill-rule="evenodd" clip-rule="evenodd" d="M128.554 156.871L99.3886 148.408L97.2089 155.924L126.359 164.387L128.554 156.871Z" fill="#EAB40A"/>
<mask id="mask1_312_689" style="mask-type:luminance" maskUnits="userSpaceOnUse" x="106" y="107" width="85" height="64">
<path d="M107.712 107.775L190.535 108.738L189.82 170.314L106.997 169.351L107.712 107.775Z" fill="white"/>
</mask>
<g mask="url(#mask1_312_689)">
<path fill-rule="evenodd" clip-rule="evenodd" d="M121.845 116.833L121.407 116.623C120.173 117.207 118.497 117.864 117.224 117.788C115.778 117.692 114.882 116.107 114.409 114.968C115.421 115.846 117.047 116.809 118.723 116.103C121.506 114.924 124.05 112.64 124.05 112.64L124.195 115.05L128.599 116.424C128.599 116.424 125.631 118.703 126.68 124.557C127.168 127.302 129.008 128.662 130.825 129.36C130.6 129.751 129.116 130.142 129.11 130.647C129.101 132.819 129.899 135.835 130.506 137.843C132.828 138.405 135.029 134.541 135.029 134.541C135.029 134.541 135.84 139.179 137.571 140.553C139.02 141.689 177.145 163.04 189.791 170.114L190.067 146.312L143.47 127.004L143.313 126.969C142.155 126.39 141.031 125.684 140.394 124.936C138.687 122.933 137.18 114.524 135.11 112.642C133.007 110.76 124.986 107.864 121.992 108.16C119.96 108.373 116.689 110.947 114.814 112.564C113.721 111.89 112.185 112.738 111.683 113.959C111.295 114.9 111.615 115.801 112.283 116.534C110.478 116.119 108.905 118.823 110.074 121.199C108.639 121.434 107.242 123.858 109.448 126.246L109.619 126.421C108.284 126.279 106.543 128.463 108.257 131.144L109.618 133.223L111.135 134.075C113.777 135.601 115.856 132.603 113.375 130.873L111.751 129.737L110.831 127.727L112.354 129.381L115.171 130.689C118.112 132.062 119.869 128.46 117.056 126.839L114.196 125.183L112.924 123.625L114.578 124.747L118.586 126.54C121.56 127.884 123.352 123.967 120.474 122.406L116.316 120.124L113.873 117.78L116.699 119.749L119.957 120.857C122.622 121.786 124.332 118.058 121.845 116.833Z" fill="#F8A66A"/>
</g>
<path fill-rule="evenodd" clip-rule="evenodd" d="M147.353 128.622C147.353 128.622 142.101 126.955 140.394 124.936C138.687 122.934 137.18 114.524 135.11 112.642C133.007 110.76 124.986 107.864 121.992 108.16C120.228 108.36 117.532 110.312 115.625 111.881C115.641 111.881 121.476 109.351 122.607 109.458C123.252 109.529 126.808 110.783 129.704 112.06C133.79 113.886 134.131 114.267 135.291 118.581C136.091 121.595 136.743 125.13 137.427 125.738C138.159 126.375 143.098 127.802 146.47 128.723L147.353 128.622Z" fill="#FAC38A"/>
<path d="M115.696 58.4295C102.294 55.4397 97.9305 72.1412 110.927 82.8893C111.396 83.2875 111.83 83.7323 112.202 84.1942C112.423 76.0411 113.987 65.9354 115.696 58.4295ZM136.621 107.149L136.62 107.165L134.517 110.778C134.309 111.153 134.006 111.433 133.627 111.649C130.5 109.882 124.497 107.907 121.993 108.161C121.505 108.218 120.951 108.4 120.351 108.677C119.447 108.005 118.904 107.212 118.948 106.236L119.105 102.144C116.531 100.257 114.496 97.9185 113.381 95.228C112.926 96.3886 112.412 97.327 111.953 97.5578C110.718 98.2047 108.136 97.1207 107.266 96.0555C104.985 93.2731 108.619 93.3623 109.725 91.5648C109.95 91.2216 110.05 90.8133 109.975 90.4029C109.859 89.5053 109.164 88.4097 107.715 87.1811C89.7683 71.9356 97.7034 48.3484 116.851 53.7816C116.916 53.5317 116.982 53.2964 117.048 53.0611C117.212 52.5427 119.679 52.7605 123.619 53.5145C119.578 70.975 115.756 92.5333 119.747 102.435C124.475 105.749 130.889 107.54 136.621 107.149ZM99.9711 137.567L119.348 143.586L115.031 146.731L98.6924 141.976L99.9711 137.567Z" fill="#BB8804"/>
<path fill-rule="evenodd" clip-rule="evenodd" d="M173.904 115.707C172.641 116.023 171.939 116.817 172.357 117.468C172.742 118.133 174.092 118.433 175.355 118.117C176.617 117.8 177.318 117.006 176.901 116.324C176.516 115.659 175.165 115.374 173.904 115.707ZM170.325 105.463L164.382 103.63L171.237 102.734L170.325 105.463ZM166.792 66.8957L172.123 64.533L173.478 67.0047L169.459 67.588L166.792 66.8957ZM137.985 54.6101L140.435 48.2463L136.573 47.5883L136.514 52.6417L137.985 54.6101ZM93.4402 67.3337L91.9593 66.1361L91.45 68.0815L94.1859 68.1614L93.4402 67.3337ZM100.696 85.9817L93.1005 82.9955L93.3353 85.8022L99.9772 86.949L100.696 85.9817ZM105.827 115.641L101.467 118.456L103.042 119.717L106.918 115.29L105.827 115.641ZM143.636 110.002L148.627 115.097L145.591 116.416L143.06 110.766L143.636 110.002Z" fill="#B9612F"/>
<path fill-rule="evenodd" clip-rule="evenodd" d="M96.3111 116.757L89.9669 121.186L92.628 122.319L96.9709 118.136L96.3111 116.757ZM87.2273 91.4766C85.9443 90.9582 84.6174 91.3355 84.2132 92.3221C83.8248 93.2944 84.518 94.4986 85.7877 95.0023C87.055 95.5216 88.3976 95.1434 88.8016 94.1713C89.19 93.199 88.4957 91.9948 87.2273 91.4766ZM70.5292 101.453C69.3138 101.864 68.6739 102.723 69.123 103.358C69.5722 103.993 70.9375 104.167 72.171 103.739C73.4175 103.345 74.0407 102.486 73.5768 101.867C73.129 101.216 71.7615 101.043 70.5292 101.453ZM93.7001 81.4604L85.119 80.714L86.3628 77.958L93.262 79.975L93.7001 81.4604ZM83.1738 72.0948C81.9108 72.4583 81.2401 73.2696 81.6745 73.9202C82.1065 74.5865 83.4721 74.8228 84.7196 74.4435C85.967 74.0809 86.6377 73.2696 86.2045 72.6033C85.7713 71.9527 84.4211 71.7322 83.1738 72.0948ZM75.7414 73.9778C74.5519 73.5063 73.5098 73.7303 73.4391 74.5172C73.3977 75.2887 74.3146 76.3064 75.5364 76.7939C76.7259 77.2631 77.7681 77.0235 77.823 76.2532C77.8802 75.4661 76.9634 74.4473 75.7414 73.9778ZM81.2671 83.1733C80.0465 82.6858 79.0199 82.9268 78.9492 83.7137C78.8921 84.4839 79.8235 85.5029 81.0298 85.9734C82.236 86.4596 83.2614 86.2198 83.333 85.4486C83.3892 84.6615 82.4566 83.6437 81.2671 83.1733ZM95.2324 64.6622L91.1919 60.3332L89.0092 62.7168L95.2324 64.6622ZM93.7345 55.4821L90.8334 51.9999L89.543 53.3701L93.7345 55.4821ZM91.0369 96.7014L83.4206 98.2342L85.4261 100.32L91.0674 98.2122L91.0369 96.7014ZM109.22 99.8889L102.366 103.445L104.849 104.907L109.691 101.31L109.22 99.8889Z" fill="#F7A42E"/>
<path fill-rule="evenodd" clip-rule="evenodd" d="M162.7 126.709C161.621 127.435 161.233 128.407 161.84 128.917C162.433 129.398 163.804 129.208 164.881 128.497C165.975 127.769 166.348 126.797 165.756 126.287C165.149 125.807 163.777 125.996 162.7 126.709Z" fill="#EEC238"/>
<path fill-rule="evenodd" clip-rule="evenodd" d="M148.368 142.9C146.905 142.819 145.875 143.453 146.101 144.306C146.311 145.159 147.671 145.914 149.15 145.995C150.611 146.059 151.641 145.424 151.432 144.573C151.206 143.735 149.846 142.963 148.368 142.9Z" fill="#F1CD5E"/>
<path fill-rule="evenodd" clip-rule="evenodd" d="M166.896 59.4182L169.817 55.7519L167.179 53.8796L166.453 58.2002L166.896 59.4182ZM158.802 46.4299C157.597 45.9269 156.556 46.1353 156.467 46.922C156.397 47.6921 157.295 48.742 158.486 49.2448C159.693 49.7455 160.732 49.5383 160.805 48.7671C160.892 47.996 159.991 46.9472 158.802 46.4299ZM167.878 41.2127C166.931 40.0996 165.63 39.6593 164.931 40.2509C164.201 40.8231 164.389 42.196 165.305 43.3087C166.252 44.4219 167.551 44.8622 168.252 44.2873C168.982 43.6983 168.794 42.3266 167.878 41.2127ZM180.84 76.5518C179.684 77.1851 179.201 78.1081 179.762 78.6663C180.321 79.2076 181.691 79.1597 182.815 78.544C183.987 77.9422 184.47 77.0034 183.91 76.4464C183.365 75.8896 181.98 75.9518 180.84 76.5518Z" fill="#EAB40A"/>
<mask id="mask2_312_689" style="mask-type:luminance" maskUnits="userSpaceOnUse" x="67" y="38" width="69" height="14">
<path d="M67.905 38.4927L135.669 39.2799L135.527 51.4944L67.7631 50.7072L67.905 38.4927Z" fill="white"/>
</mask>
<g mask="url(#mask2_312_689)">
<path fill-rule="evenodd" clip-rule="evenodd" d="M89.5012 41.6573C87.5419 40.8938 85.9026 41.2843 85.7931 42.5272C85.7151 43.7537 87.1922 45.3765 89.1334 46.1555C91.0746 46.9333 92.715 46.5428 92.8101 45.2852C92.9186 44.0433 91.4101 42.4179 89.5012 41.6573ZM117.129 50.9675L115.295 45.0742L113.227 45.5537L115.03 48.881L117.129 50.9675ZM111.482 49.5167L108.042 43.6193L106.238 44.6221L109.836 48.9929L111.482 49.5167ZM134.636 51.4696L135.379 44.221L132.178 44.8608L134.636 51.4696ZM126.871 45.3183L126.172 39.1697L124.047 39.2714L125.216 42.8744L126.871 45.3183ZM69.1073 47.308C67.9514 47.8932 67.4536 48.8486 67.9976 49.4054C68.543 49.9466 69.9261 49.9313 71.0822 49.3316C72.2383 48.7296 72.7201 47.8065 72.176 47.2497C71.6322 46.6761 70.2632 46.724 69.1073 47.308Z" fill="#EEC238"/>
</g>
<path fill-rule="evenodd" clip-rule="evenodd" d="M171.57 129.613C170.299 129.346 169.346 130.044 169.46 131.194C169.573 132.329 170.708 133.46 171.978 133.727C173.266 133.994 174.233 133.297 174.121 132.161C173.992 131.027 172.858 129.88 171.57 129.613ZM179.839 99.0556C178.01 98.0575 176.309 98.2269 176.058 99.4682C175.809 100.693 177.108 102.503 178.937 103.484C180.766 104.498 182.452 104.312 182.703 103.087C182.953 101.845 181.684 100.068 179.839 99.0556ZM176.576 103.647C175.976 102.489 175.037 102.022 174.48 102.566C173.939 103.11 174.003 104.482 174.602 105.654C175.235 106.778 176.172 107.278 176.714 106.717C177.271 106.157 177.208 104.787 176.576 103.647ZM164.476 109.094L158.71 105.783L159.663 105.023L166.254 106.422L164.476 109.094ZM156.016 120.978L151.464 115.949L152.786 114.69L159.366 119.709L156.016 120.978ZM146.012 153.325C144.385 152.551 142.934 152.771 142.779 153.84C142.611 154.907 143.789 156.401 145.432 157.192C147.059 157.982 148.509 157.764 148.663 156.679C148.833 155.626 147.654 154.118 146.012 153.325Z" fill="#EEC238"/>
</svg>
