<svg width="244" height="244" viewBox="0 0 244 244" fill="none" xmlns="http://www.w3.org/2000/svg">
<path d="M182.93 197.325C183.841 196.591 185.472 196.36 186.551 196.813L208.488 206.007C209.567 206.46 211.069 206.1 211.827 205.206L225.773 186.763C226.424 185.789 226.38 184.228 225.678 183.292L211.106 163.926C210.401 162.99 210.191 161.339 210.637 160.257L213.082 153.824C213.466 152.717 214.723 151.646 215.877 151.443L239.454 147.291C240.606 147.089 241.685 145.974 241.851 144.814L243.856 121.399C243.891 120.228 243.02 118.938 241.92 118.532L219.352 110.177C218.255 109.771 217.198 108.493 217.004 107.338L215.75 100.92C215.493 99.7774 215.987 98.1927 216.847 97.3982L234.582 81.0239C235.442 80.2294 235.758 78.7043 235.285 77.6334L224.572 56.7911C223.978 55.7807 222.558 55.1601 221.415 55.4109L198.061 60.5529C196.916 60.8048 195.672 60.6373 195.295 60.1805L194.943 59.7709C192.804 57.2798 189.741 54.2139 189.741 54.2139C188.913 53.3852 188.477 51.7799 188.772 50.6466L194.867 27.1743C195.162 26.041 194.606 24.5797 193.634 23.9281L173.879 12.1984C172.839 11.6589 171.313 11.8958 170.488 12.7254L153.738 29.5598C152.912 30.3905 151.317 30.7962 150.195 30.4639L142.05 28.3362C140.908 28.0767 139.675 26.9551 139.309 25.8436L131.744 2.79539C131.379 1.68159 130.123 0.749716 128.952 0.722342L106.711 1.41191C105.545 1.51018 104.388 2.52705 104.142 3.67218L99.1759 26.7788C98.93 27.9239 97.8064 29.122 96.6798 29.4426L87.0891 32.5554C85.9899 32.9581 84.3469 32.6826 83.4375 31.9452L64.6867 16.704C63.7785 15.9656 62.2199 15.8636 61.2219 16.477C61.2219 16.477 48.6143 24.2388 41.9924 29.9265L41.9576 29.9564C41.9189 29.9917 42.2259 30.9166 42.6359 32.0117L50.9467 54.1256C51.3601 55.2221 51.0645 56.8392 50.2934 57.7194L43.0443 66.6873C42.3487 67.6277 40.8259 68.2907 39.6626 68.1618L15.7945 65.493C14.6312 65.3641 13.275 66.1256 12.7802 67.1868L4.92896 86.5657C4.54675 87.6727 5.00188 89.1518 5.94091 89.8508L24.9701 104.022C25.9091 104.721 26.5444 106.242 26.3845 107.402L25.2131 119.656C25.1511 120.825 24.2421 122.207 23.1932 122.726L1.83414 133.307C0.785276 133.826 0.0648983 135.2 0.233438 136.358L4.28328 156.703C4.56964 157.837 5.76008 158.832 6.92812 158.913L30.7382 160.558C31.9075 160.638 33.2768 161.57 33.7838 162.625L39.5398 173.392C40.134 174.4 40.1297 176.047 39.5278 177.051L27.364 197.359C26.7621 198.363 26.8731 199.929 27.6103 200.84C27.6103 200.84 28.0062 201.326 28.9103 202.378C33.5948 207.832 42.4388 215.766 42.4388 215.766C43.3101 216.547 44.8618 216.726 45.8886 216.161L66.9609 204.588C67.9888 204.025 69.6493 204.054 70.6549 204.655L80.5038 210.02C81.5541 210.537 82.4425 211.918 82.479 213.088L83.2238 236.696C83.2626 237.866 84.2163 239.075 85.3464 239.381L106.531 243.947C107.687 244.134 109.089 243.443 109.649 242.415L121.191 221.148C121.75 220.119 123.164 219.239 124.335 219.19L133.944 218.452C135.107 218.322 136.602 219.003 137.265 219.969L150.683 239.467C151.348 240.432 152.804 240.935 153.923 240.586L174.936 232.698C176.008 232.229 176.815 230.888 176.729 229.722L174.937 205.515C174.85 204.347 175.561 202.839 176.518 202.163L182.93 197.325ZM67.0654 169.194C41.419 139.335 44.8305 94.3385 74.6881 68.6931C104.547 43.0467 149.542 46.4638 175.189 76.3239C200.837 106.184 197.423 151.178 167.565 176.825C137.707 202.47 92.7129 199.054 67.0654 169.194Z" fill="url(#paint0_linear_234_47)"/>
<defs>
<linearGradient id="paint0_linear_234_47" x1="185.917" y1="12.5951" x2="113.977" y2="321.959" gradientUnits="userSpaceOnUse">
<stop stop-color="#94F1DE"/>
<stop offset="1" stop-color="#73B3FF" stop-opacity="0"/>
</linearGradient>
</defs>
</svg>
