<svg width="520" height="521" viewBox="0 0 520 521" fill="none" xmlns="http://www.w3.org/2000/svg">
<path d="M234.988 464.474C237.464 464.813 240.214 467.004 241.094 469.344L258.996 516.872C259.875 519.212 262.638 521.014 265.136 520.878L314.211 515.474C316.678 515.058 319.035 512.701 319.458 510.237L328.142 459.222C328.562 456.754 330.816 454.007 333.15 453.112L346.719 447.472C349 446.446 352.505 446.826 354.513 448.317L395.533 478.819C397.537 480.311 400.849 480.351 402.893 478.906L442.173 447.68C444.04 446.017 444.765 442.773 443.783 440.471L423.653 393.192C422.674 390.894 423.107 387.381 424.615 385.385L432.735 374.027C434.132 371.952 437.316 370.395 439.81 370.564L491.232 374.075C493.726 374.244 496.556 372.498 497.524 370.193L514.159 323.001C514.857 320.597 513.738 317.484 511.672 316.078L469.442 287.374C467.372 285.967 465.808 283.791 465.964 282.536L466.083 281.389C466.812 274.415 467.078 265.166 467.078 265.166C467.15 262.665 469.001 259.634 471.192 258.43L516.56 233.466C518.751 232.262 520.203 229.255 519.789 226.792L509.021 178.93C508.334 176.526 505.728 174.505 503.23 174.441L452.54 173.135C450.039 173.071 447.07 171.191 445.94 168.962L437.297 153.2C436.025 151.048 435.958 147.489 437.146 145.291L461.822 99.7502C463.014 97.5492 462.619 94.2341 460.944 92.3766L427.257 58.8711C425.393 57.2047 422.119 56.9015 419.982 58.1993L376.838 84.3785C374.7 85.6763 371.193 85.6895 369.043 84.4112L350.147 74.092C347.91 72.9767 345.928 70.0228 345.739 67.5301L341.893 16.0779C341.707 13.5856 339.58 11.0169 337.164 10.3678C337.164 10.3678 306.629 2.18446 288.09 0.248873L287.993 0.238716C287.881 0.23058 286.896 2.06323 285.798 4.30561L263.666 49.6347C262.571 51.8844 259.628 53.7971 257.131 53.8912L232.582 55.7928C230.102 56.0924 226.84 54.7015 225.334 52.7071L194.472 11.751C192.966 9.75657 189.796 8.76863 187.423 9.55716L145.834 25.7925C143.555 26.8227 141.927 29.6982 142.22 32.1807L148.133 82.4963C148.425 84.9788 146.997 88.1948 144.963 89.6475L124.226 105.801C122.322 107.419 118.844 108.035 116.5 107.169L68.7546 89.5381C66.4107 88.6716 63.2224 89.5682 61.6724 91.528L36.0376 127.65C34.6969 129.758 34.8998 133.064 36.486 134.996L68.8524 174.36C70.4421 176.293 71.005 179.783 70.1114 182.117L61.843 206.841C61.1497 209.242 58.5868 211.651 56.1454 212.19L6.79097 223.093C4.34955 223.632 2.08252 226.1 1.74978 228.581C1.74978 228.581 1.5761 229.908 1.26844 232.855C-0.325738 248.123 0.331868 273.484 0.331868 273.484C0.39783 275.981 2.39518 278.652 4.77776 279.417L53.6415 295.149C56.0237 295.917 58.4127 298.538 58.9552 300.98L65.0739 324.132C65.8115 326.52 64.9714 329.924 63.2091 331.696L27.662 367.475C25.9029 369.252 25.4263 372.504 26.6084 374.707L50.5891 414.281C51.996 416.349 55.1239 417.512 57.5407 416.872L107.473 403.598C109.89 402.954 113.329 403.858 115.121 405.604L130.359 419.434C132.267 421.049 133.403 424.367 132.877 426.813L122.293 476.232C121.771 478.679 123.127 481.676 125.31 482.902L168.367 503.946C170.668 504.92 173.932 504.207 175.614 502.363L210.555 464.08C212.241 462.232 215.624 461.124 218.077 461.619L234.988 464.474ZM108.725 243.403C117.453 159.812 192.288 99.1166 275.876 107.844C359.468 116.572 420.152 191.413 411.424 275.008C402.696 358.603 327.861 419.291 244.27 410.563C160.682 401.836 99.9969 326.998 108.725 243.403Z" fill="url(#paint0_linear_258_43)"/>
<defs>
<linearGradient id="paint0_linear_258_43" x1="526.061" y1="198.196" x2="-59.561" y2="540.245" gradientUnits="userSpaceOnUse">
<stop stop-color="#94F1DE"/>
<stop offset="1" stop-color="#73B3FF" stop-opacity="0"/>
</linearGradient>
</defs>
</svg>
