<svg width="656" height="660" viewBox="0 0 656 660" fill="none" xmlns="http://www.w3.org/2000/svg">
<path d="M89.6968 430.719C90.888 433.648 90.2224 438.045 88.2129 440.487L47.4188 490.111C45.4093 492.552 45.1775 496.718 46.9034 499.37L83.8052 549.75C85.8196 552.191 89.8909 553.287 92.8582 552.195L154.258 529.511C157.227 528.412 161.661 529.149 164.115 531.143L178.863 542.455C181.428 544.308 183.224 548.389 182.856 551.532L175.317 615.748C174.947 618.886 176.994 622.542 179.868 623.871L238.89 647.214C241.892 648.21 245.905 646.957 247.808 644.427L286.923 592.518C288.823 589.994 292.948 588.252 296.087 588.645L313.664 590.375C316.819 590.597 320.536 593.103 321.925 595.943L350.537 654.523C351.926 657.363 355.626 659.364 358.763 658.97L420.991 647.414C424.066 646.66 426.772 643.469 427.01 640.316L431.813 575.91C432.049 572.753 433.447 569.665 434.921 569.043L436.254 568.45C444.357 564.846 454.664 559.3 454.664 559.3C457.45 557.799 461.941 557.915 464.645 559.557L520.645 593.525C523.348 595.167 527.56 594.861 529.999 592.852L575.662 550.837C577.864 548.566 578.434 544.434 576.928 541.655L546.361 485.271C544.853 482.488 545.039 478.047 546.769 475.401L558.589 455.978C560.146 453.226 564.004 450.905 567.163 450.821L632.657 449.12C635.822 449.037 639.206 446.512 640.185 443.503L655.645 385.428C656.295 382.334 654.561 378.554 651.789 377.03L595.859 346.266C593.087 344.742 590.859 340.906 590.903 337.743L590.286 310.517C590.096 307.361 592.083 303.324 594.695 301.543L648.664 264.849C651.279 263.071 652.751 259.118 651.938 256.06C651.938 256.06 641.632 217.425 632.051 195.883L632.001 195.77C631.939 195.643 629.309 195.72 626.158 195.931L562.502 200.287C559.345 200.507 555.391 198.488 553.711 195.811L536.13 170.103C534.237 167.574 533.702 163.121 534.938 160.211L560.348 100.53C561.583 97.6205 560.664 93.5214 558.302 91.4185L514.254 56.0812C511.686 54.2341 507.507 54.2648 504.97 56.1523L453.553 94.3958C451.016 96.2833 446.589 96.7479 443.713 95.4349L412.917 82.9031C409.942 81.8369 407.07 78.4132 406.54 75.2972L395.726 11.8346C395.197 8.71852 392.201 5.78976 389.075 5.32797L333.3 0.0316459C330.143 -0.10708 326.648 2.20192 325.531 5.16046L302.816 65.4855C301.701 68.4481 298.23 71.2686 295.107 71.7625L262.789 78.3061C259.72 79.0616 255.461 77.7732 253.329 75.4374L210.223 28.2233C208.091 25.8875 203.955 24.9606 201.026 26.1616C201.026 26.1616 199.462 26.8091 196.038 28.3319C178.295 36.2228 150.913 52.9524 150.913 52.9524C148.217 54.6011 146.551 58.4765 147.216 61.571L160.818 125.061C161.479 128.157 160.115 132.43 157.781 134.566L136.267 155.887C134.115 158.203 129.853 159.431 126.798 158.619L65.142 142.241C62.0844 141.434 58.2188 142.965 56.5504 145.651L28.3116 196.917C26.9326 199.765 27.6328 203.927 29.8598 206.172L75.9292 252.523C78.1602 254.767 79.341 259.107 78.5575 262.174L73.0182 287.606C72.4523 290.716 69.5318 294.056 66.5186 295.023L5.67027 314.619C2.65888 315.59 0.229179 318.968 0.264107 322.135L4.37785 382.614C4.7623 385.751 7.60426 388.879 10.6874 389.558L74.706 403.691C77.795 404.372 81.1449 407.38 82.1508 410.381L89.6968 430.719ZM252.307 152.773C349.44 109.573 463.208 153.286 506.407 250.415C549.608 347.548 505.882 461.308 408.744 504.51C311.607 547.712 197.848 503.996 154.647 406.862C111.448 309.733 155.17 195.975 252.307 152.773Z" fill="url(#paint0_linear_258_38)"/>
<defs>
<linearGradient id="paint0_linear_258_38" x1="565.302" y1="581.675" x2="-179.289" y2="155.698" gradientUnits="userSpaceOnUse">
<stop stop-color="#94F1DE"/>
<stop offset="1" stop-color="#73B3FF" stop-opacity="0"/>
</linearGradient>
</defs>
</svg>
