<svg width="343" height="340" viewBox="0 0 343 340" fill="none" xmlns="http://www.w3.org/2000/svg">
<path d="M265.088 73.044C263.912 71.9 263.313 69.6711 263.76 68.0921L272.819 36.0081C273.266 34.4291 272.509 32.4005 271.136 31.4994L243.104 15.2343C241.638 14.4933 239.475 14.82 238.291 15.9572L213.828 39.5253C212.645 40.6657 210.384 41.2388 208.802 40.8018L199.436 38.4953C197.831 38.1487 196.127 36.5825 195.648 35.012L185.86 2.91617C185.382 1.34722 183.648 0.0356821 182.005 0.00244103L149.088 1.19597C147.453 1.34739 145.806 2.77864 145.429 4.37719L137.644 37.1981C137.266 38.7934 135.668 40.4805 134.093 40.9474L125.378 43.7848C123.832 44.3364 121.543 43.9188 120.292 42.8579L94.4928 20.969C93.2411 19.908 91.0655 19.7272 89.6561 20.568L62.4814 39.0188C61.1766 40.0171 60.5547 42.0976 61.0983 43.6457L72.2257 75.2627C72.7709 76.8123 72.7495 78.5715 72.1782 79.174L71.6682 79.7332C68.5664 83.1339 64.822 87.9165 64.822 87.9165C63.81 89.2098 61.6507 90.0899 60.0238 89.8725L26.3302 85.3857C24.7033 85.1683 22.7649 86.1909 22.0237 87.6535L9.06562 117.134C8.49183 118.672 9.08112 120.755 10.3758 121.762L36.6469 142.201C37.9433 143.21 38.7791 145.359 38.5077 146.977L36.9333 158.672C36.7665 160.304 35.4158 162.211 33.9317 162.909L3.15233 177.355C1.66493 178.053 0.582065 179.958 0.74322 181.592L5.48677 212.418C5.82199 214.025 7.43346 215.46 9.06849 215.608L42.0613 218.586C43.6963 218.733 45.5543 220.093 46.192 221.606L52.1546 234.419C52.9019 235.88 52.7981 238.213 51.927 239.603L33.9126 268.284C33.0398 269.673 33.163 271.859 34.1863 273.143C34.1863 273.143 47.1302 289.363 56.1701 297.609L56.2175 297.652C56.2733 297.7 57.5078 297.115 58.9616 296.358L88.3142 281.033C89.7695 280.272 92.0696 280.408 93.4253 281.331L107.136 289.891C108.562 290.698 109.744 292.704 109.762 294.344L110.11 328.006C110.129 329.646 111.419 331.403 112.98 331.911L141.277 339.537C142.882 339.881 144.863 338.996 145.675 337.571L162.154 308.684C162.967 307.259 164.975 306.116 166.615 306.142L183.864 305.686C185.5 305.574 187.578 306.603 188.479 307.974L206.834 335.89C207.735 337.261 209.769 338.03 211.351 337.598L238.967 328.502C240.497 327.911 241.678 326.086 241.592 324.447L239.829 291.04C239.743 289.4 240.805 287.336 242.187 286.451L256.187 276.611C257.489 275.613 259.781 275.339 261.281 276.005L291.604 289.473C293.103 290.14 295.263 289.719 296.405 288.538C296.405 288.538 297.014 287.905 298.324 286.468C305.115 279.023 314.648 265.368 314.648 265.368C315.586 264.023 315.572 261.834 314.611 260.501L294.925 233.153C293.966 231.819 293.725 229.503 294.39 228.002L300.177 213.387C300.718 211.838 302.488 210.367 304.11 210.117L336.829 205.064C338.45 204.811 339.969 203.278 340.203 201.654L342.952 171.404C343.015 169.763 341.815 167.93 340.289 167.326L308.738 154.886C307.21 154.284 305.745 152.466 305.479 150.845L302.816 137.602C302.438 136.006 303.131 133.81 304.362 132.723L329.207 110.738C330.436 109.649 330.887 107.537 330.211 106.039L315.663 78.146C314.827 76.7348 312.824 75.8398 311.217 76.1588L277.842 82.7711C276.232 83.0903 274.013 82.3579 272.91 81.1407L265.088 73.044ZM245.664 239.03C208.486 279.791 145.302 282.701 104.542 245.524C63.7806 208.345 60.8791 145.163 98.059 104.4C135.239 63.6368 198.419 60.7306 239.181 97.909C279.941 135.086 282.844 198.266 245.664 239.03Z" fill="url(#paint0_linear_258_48)"/>
<defs>
<linearGradient id="paint0_linear_258_48" x1="7.56924" y1="100.318" x2="450.221" y2="147.771" gradientUnits="userSpaceOnUse">
<stop stop-color="#94F1DE"/>
<stop offset="1" stop-color="#73B3FF" stop-opacity="0"/>
</linearGradient>
</defs>
</svg>
