<svg width="244" height="245" viewBox="0 0 244 245" fill="none" xmlns="http://www.w3.org/2000/svg">
<path d="M24.5709 122.662C24.5577 123.833 23.7 125.238 22.664 125.784L1.62333 136.876C0.5873 137.421 -0.0890603 138.81 0.119949 139.963L5.49451 162.452C5.83217 163.574 7.06489 164.532 8.23451 164.584L32.447 165.643C33.6182 165.694 35.0262 166.581 35.578 167.613L38.9907 173.589C39.6008 174.59 39.6287 176.24 39.0527 177.261L27.2725 198.102C26.6964 199.12 26.871 200.661 27.6615 201.527L44.4639 217.958C45.3457 218.728 46.8954 218.876 47.9075 218.285L68.7027 206.172C69.7132 205.583 71.371 205.579 72.3865 206.164L78.1386 209.274C79.1839 209.802 80.0934 211.191 80.1604 212.36L81.5295 236.459C81.5964 237.628 82.5726 238.842 83.7003 239.157L106.6 244.133C107.758 244.317 109.139 243.615 109.672 242.573L120.546 221.275C121.079 220.231 121.999 219.377 122.591 219.376L123.131 219.365C126.414 219.297 130.728 218.881 130.728 218.881C131.894 218.768 133.411 219.452 134.098 220.4L148.346 240.024C149.033 240.972 150.515 241.471 151.635 241.135L173.247 233.339C174.324 232.88 175.112 231.551 174.996 230.386L172.645 206.755C172.529 205.589 173.229 204.1 174.199 203.445L181.019 198.509C181.945 197.792 183.594 197.553 184.685 197.977L207.287 206.786C208.379 207.212 209.897 206.835 210.662 205.948L224.266 188.339C224.931 187.376 224.881 185.837 224.153 184.919L209.471 166.399C208.743 165.481 208.532 163.852 209.001 162.779L212.694 153.396C213.081 152.291 214.338 151.198 215.486 150.964L239.17 146.175C240.317 145.944 241.387 144.805 241.547 143.645C241.547 143.645 243.568 128.978 243.386 120.251L243.385 120.205C243.382 120.152 242.473 119.802 241.367 119.422L219.012 111.783C217.903 111.405 216.842 110.149 216.653 108.994L214.337 97.6979C214.053 96.5631 214.509 94.9661 215.348 94.1499L232.579 77.4192C233.418 76.603 233.692 75.072 233.187 74.0155L223.216 55.637C222.604 54.6384 221.173 54.0496 220.036 54.3303L197.001 60.0141C195.864 60.2948 194.286 59.8188 193.493 58.9582L184.776 50.265C183.914 49.4745 183.424 47.894 183.69 46.7543L189.097 23.5393C189.363 22.3996 188.76 20.9703 187.759 20.3644L169.478 10.5601C168.42 10.0601 166.896 10.3473 166.091 11.1971L149.687 28.5341C148.882 29.3855 147.293 29.8508 146.156 29.5717L134.185 27.1721C133.029 26.9901 131.76 25.9397 131.367 24.8367L123.421 2.53882C123.028 1.43578 121.749 0.526368 120.577 0.516478C120.577 0.516478 119.95 0.513205 118.562 0.542179C111.374 0.692309 99.6283 2.47767 99.6283 2.47767C98.4717 2.65403 97.3471 3.73803 97.1305 4.8898L92.6717 28.5138C92.4535 29.6656 91.3752 30.9287 90.2722 31.3232L79.8709 35.5174C78.8041 35.9995 77.1733 35.8077 76.2468 35.0923L57.5469 20.6619C56.6188 19.9481 55.0797 19.9164 54.125 20.5943L37.1351 34.0467C36.2561 34.8212 35.8983 36.3425 36.3367 37.4282L45.4185 59.8562C45.8585 60.9419 45.6393 62.5929 44.9322 63.5274L39.3951 71.4152C38.756 72.3958 37.2801 73.1173 36.1128 73.0156L12.5313 70.9813C11.3639 70.8813 10.0502 71.6861 9.60808 72.7722L2.34166 94.0081C2.02313 95.1342 2.54492 96.6093 3.50003 97.2833L23.3284 111.286C24.2852 111.961 24.9975 113.469 24.9106 114.637L24.5709 122.662ZM119.931 51.0908C159.283 50.2688 191.854 81.502 192.676 120.853C193.498 160.206 162.261 192.772 122.907 193.594C83.553 194.416 50.9856 163.182 50.1637 123.83C49.3418 84.4786 80.5767 51.9127 119.931 51.0908Z" fill="url(#paint0_linear_258_21)"/>
<defs>
<linearGradient id="paint0_linear_258_21" x1="165.289" y1="242.381" x2="-27.8253" y2="-9.78794" gradientUnits="userSpaceOnUse">
<stop stop-color="#94F1DE"/>
<stop offset="1" stop-color="#73B3FF" stop-opacity="0"/>
</linearGradient>
</defs>
</svg>
