<svg width="244" height="245" viewBox="0 0 244 245" fill="none" xmlns="http://www.w3.org/2000/svg">
<path d="M24.5709 122.662C24.5577 123.832 23.7 125.238 22.664 125.783L1.62333 136.875C0.5873 137.42 -0.0890603 138.809 0.119949 139.962L5.49451 162.451C5.83217 163.573 7.06489 164.531 8.23451 164.584L32.447 165.642C33.6182 165.693 35.0262 166.58 35.578 167.613L38.9907 173.589C39.6008 174.589 39.6287 176.24 39.0527 177.26L27.2725 198.101C26.6964 199.12 26.871 200.661 27.6615 201.526L44.4639 217.957C45.3457 218.728 46.8954 218.875 47.9075 218.285L68.7027 206.171C69.7132 205.582 71.371 205.579 72.3865 206.163L78.1386 209.274C79.1839 209.802 80.0934 211.19 80.1604 212.359L81.5295 236.459C81.5964 237.627 82.5726 238.841 83.7003 239.156L106.6 244.133C107.758 244.316 109.139 243.615 109.672 242.573L120.546 221.275C121.079 220.231 121.999 219.377 122.591 219.376L123.131 219.365C126.414 219.296 130.728 218.88 130.728 218.88C131.894 218.768 133.411 219.451 134.098 220.399L148.346 240.024C149.033 240.972 150.515 241.471 151.635 241.135L173.247 233.339C174.324 232.879 175.112 231.55 174.996 230.386L172.645 206.755C172.529 205.589 173.229 204.1 174.199 203.444L181.019 198.508C181.945 197.792 183.594 197.553 184.685 197.977L207.287 206.786C208.379 207.211 209.897 206.834 210.662 205.948L224.266 188.339C224.931 187.376 224.881 185.837 224.153 184.919L209.471 166.398C208.743 165.481 208.532 163.852 209.001 162.778L212.694 153.395C213.081 152.291 214.338 151.197 215.486 150.964L239.17 146.175C240.317 145.943 241.387 144.805 241.547 143.644C241.547 143.644 243.568 128.977 243.386 120.25L243.385 120.204C243.382 120.152 242.473 119.801 241.367 119.422L219.012 111.782C217.903 111.405 216.842 110.149 216.653 108.994L214.337 97.6974C214.053 96.5626 214.509 94.9656 215.348 94.1494L232.579 77.4187C233.418 76.6025 233.692 75.0715 233.187 74.015L223.216 55.6365C222.604 54.6379 221.173 54.0491 220.036 54.3298L197.001 60.0137C195.864 60.2943 194.286 59.8183 193.493 58.9577L184.776 50.2645C183.914 49.474 183.424 47.8935 183.69 46.7538L189.097 23.5388C189.363 22.3991 188.76 20.9698 187.759 20.3639L169.478 10.5596C168.42 10.0596 166.896 10.3468 166.091 11.1966L149.687 28.5336C148.882 29.385 147.293 29.8503 146.156 29.5713L134.185 27.1717C133.029 26.9896 131.76 25.9392 131.367 24.8362L123.421 2.53833C123.028 1.43529 121.749 0.52588 120.577 0.51599C120.577 0.51599 119.95 0.512717 118.562 0.541691C111.374 0.691821 99.6283 2.47718 99.6283 2.47718C98.4717 2.65354 97.3471 3.73754 97.1305 4.88932L92.6717 28.5133C92.4535 29.6651 91.3752 30.9282 90.2722 31.3227L79.8709 35.5169C78.8041 35.999 77.1733 35.8073 76.2468 35.0918L57.5469 20.6614C56.6188 19.9476 55.0797 19.9159 54.125 20.5938L37.1351 34.0462C36.2561 34.8207 35.8983 36.342 36.3367 37.4277L45.4185 59.8557C45.8585 60.9414 45.6393 62.5924 44.9322 63.5269L39.3951 71.4147C38.756 72.3953 37.2801 73.1168 36.1128 73.0151L12.5313 70.9808C11.3639 70.8808 10.0502 71.6856 9.60808 72.7717L2.34166 94.0077C2.02313 95.1337 2.54492 96.6089 3.50003 97.2828L23.3284 111.285C24.2852 111.961 24.9975 113.468 24.9106 114.637L24.5709 122.662ZM119.931 51.0903C159.283 50.2683 191.854 81.5016 192.676 120.853C193.498 160.205 162.261 192.771 122.907 193.593C83.553 194.415 50.9856 163.182 50.1637 123.829C49.3418 84.4781 80.5767 51.9122 119.931 51.0903Z" fill="url(#paint0_linear_258_55)"/>
<defs>
<linearGradient id="paint0_linear_258_55" x1="165.289" y1="242.381" x2="-27.8253" y2="-9.78842" gradientUnits="userSpaceOnUse">
<stop stop-color="#94F1DE"/>
<stop offset="1" stop-color="#73B3FF" stop-opacity="0"/>
</linearGradient>
</defs>
</svg>
