<svg width="437" height="440" viewBox="0 0 437 440" fill="none" xmlns="http://www.w3.org/2000/svg">
<path d="M189.469 48.5085C187.391 48.8539 184.631 47.7775 183.339 46.1142L157.062 12.3378C155.769 10.6744 153.096 9.91392 151.12 10.6473L112.977 27.253C111.095 28.2047 109.787 30.6901 110.062 32.7784L115.815 76.0015C116.094 78.0922 114.966 80.8657 113.311 82.1686L103.8 90.0965C102.221 91.4923 99.3054 92.0619 97.3168 91.3629L56.6883 77.0618C54.7026 76.3622 52.0274 77.1571 50.7431 78.8301L26.9319 113.77C25.8451 115.575 26.0718 118.366 27.4369 119.973L55.4453 152.993C56.8071 154.597 57.3356 157.533 56.6205 159.516L52.9229 170.685C52.3168 172.703 50.1438 174.751 48.0946 175.238L5.83641 185.256C3.78719 185.743 1.945 187.855 1.7419 189.951L0.14149 232.084C0.180862 234.192 1.85867 236.418 3.87271 237.034L45.0257 249.585C47.0426 250.201 48.845 251.561 49.0333 252.61L49.2233 253.563C50.3792 259.357 52.4747 266.867 52.4747 266.867C53.0418 268.897 52.3089 271.799 50.8463 273.316L20.5723 304.736C19.1098 306.252 18.6921 309.034 19.6404 310.913L40.2597 346.74C41.4129 348.503 44.0151 349.479 46.0413 348.907L87.1595 337.297C89.1885 336.724 92.0471 337.496 93.5134 339.007L104.406 349.532C105.967 350.947 106.91 353.794 106.502 355.859L98.0189 398.671C97.6092 400.74 98.7551 403.309 100.567 404.386L136.045 422.935C137.961 423.811 140.671 423.237 142.067 421.659L170.249 389.816C171.645 388.237 174.464 387.351 176.513 387.843L194.297 391.427C196.376 391.766 198.709 393.648 199.483 395.607L215.429 436.052C216.201 438.012 218.554 439.547 220.661 439.466C220.661 439.466 247.278 438.425 262.68 435.353L262.761 435.337C262.852 435.315 263.188 433.594 263.511 431.516L270 389.51C270.32 387.426 272.21 385.151 274.196 384.452L293.477 376.791C295.398 375.93 298.37 376.235 300.08 377.463L335.145 402.715C336.855 403.943 339.654 403.947 341.366 402.719L370.78 379.267C372.356 377.869 372.948 375.148 372.093 373.223L354.767 334.209C353.912 332.284 354.258 329.34 355.532 327.662L368.185 309.484C369.314 307.707 371.959 306.341 374.062 306.453L416.888 308.717C418.99 308.829 421.332 307.311 422.09 305.346L433.698 269.875C434.25 267.844 433.261 265.234 431.502 264.075L395.624 240.481C393.862 239.323 392.537 236.654 392.673 234.553L393.152 212.592C393.11 210.487 394.571 207.908 396.401 206.864L433.396 185.763C435.226 184.72 436.434 182.167 436.082 180.088C436.082 180.088 435.89 178.976 435.402 176.528C432.871 163.843 426.008 143.599 426.008 143.599C425.331 141.605 423.057 139.955 420.948 139.934L377.696 139.479C375.587 139.455 373.01 137.943 371.964 136.113L361.258 119.01C360.067 117.272 359.893 114.323 360.869 112.457L380.539 74.7856C381.511 72.9167 381.082 70.1804 379.581 68.7029L350.398 42.8456C348.75 41.5325 345.942 41.3781 344.157 42.4967L307.29 65.6501C305.505 66.7715 302.512 66.9034 300.634 65.9453L284.917 58.622C282.978 57.799 281.236 55.412 281.048 53.3121L277.222 10.8994C277.031 8.80012 275.192 6.72657 273.128 6.28562L233.222 0.104582C231.127 -0.10487 228.679 1.28416 227.786 3.18836L209.229 42.7235C208.334 44.6312 205.888 46.3678 203.791 46.5821L189.469 48.5085ZM346.292 194.878C360.147 264.327 315.082 331.862 245.636 345.716C176.187 359.57 108.659 314.499 94.804 245.047C80.9492 175.594 126.015 108.065 195.464 94.2108C264.91 80.3571 332.438 125.426 346.292 194.878Z" fill="url(#paint0_linear_258_60)"/>
<defs>
<linearGradient id="paint0_linear_258_60" x1="21.7354" y1="335.492" x2="407.58" y2="-86.0343" gradientUnits="userSpaceOnUse">
<stop stop-color="#94F1DE"/>
<stop offset="1" stop-color="#73B3FF" stop-opacity="0"/>
</linearGradient>
</defs>
</svg>
