<svg width="758" height="762" viewBox="0 0 758 762" fill="none" xmlns="http://www.w3.org/2000/svg">
<path d="M103.677 497.786C105.052 501.168 104.284 506.246 101.963 509.065L54.8548 566.37C52.5342 569.19 52.2666 574 54.2596 577.062L96.8731 635.24C99.1992 638.059 103.901 639.325 107.327 638.063L178.23 611.868C181.66 610.6 186.78 611.451 189.613 613.754L206.644 626.816C209.606 628.956 211.68 633.669 211.255 637.298L202.549 711.453C202.123 715.078 204.486 719.299 207.804 720.834L275.963 747.79C279.429 748.94 284.063 747.493 286.26 744.572L331.43 684.628C333.624 681.714 338.387 679.701 342.013 680.155L362.309 682.153C365.953 682.409 370.245 685.304 371.849 688.584L404.89 756.23C406.494 759.51 410.767 761.821 414.39 761.365L486.249 748.02C489.8 747.151 492.925 743.465 493.199 739.825L498.747 665.449C499.019 661.804 500.633 658.238 502.336 657.519L503.874 656.835C513.232 652.673 525.134 646.268 525.134 646.268C528.351 644.536 533.538 644.67 536.66 646.565L601.328 685.791C604.45 687.687 609.313 687.333 612.13 685.014L664.861 636.496C667.403 633.874 668.062 629.101 666.322 625.893L631.024 560.781C629.283 557.568 629.498 552.44 631.496 549.384L645.145 526.955C646.943 523.776 651.398 521.096 655.046 520.999L730.677 519.034C734.332 518.939 738.24 516.022 739.37 512.549L757.223 445.484C757.974 441.911 755.971 437.546 752.77 435.786L688.184 400.26C684.983 398.501 682.41 394.071 682.461 390.418L681.748 358.978C681.529 355.334 683.823 350.672 686.84 348.615L749.162 306.241C752.182 304.189 753.882 299.624 752.943 296.093C752.943 296.093 741.042 251.478 729.978 226.602L729.92 226.471C729.849 226.324 726.811 226.413 723.172 226.657L649.664 231.687C646.018 231.941 641.452 229.61 639.512 226.518L619.21 196.831C617.024 193.911 616.406 188.768 617.833 185.408L647.176 116.49C648.603 113.13 647.542 108.396 644.814 105.968L593.948 65.1608C590.983 63.0278 586.156 63.0633 583.227 65.2428L523.851 109.406C520.922 111.585 515.81 112.122 512.488 110.606L476.926 96.1344C473.491 94.9031 470.174 90.9494 469.562 87.3511L457.074 14.0657C456.463 10.4673 453.004 7.08522 449.393 6.55193L384.985 0.435902C381.34 0.275686 377.304 2.94206 376.014 6.35856L349.783 76.0208C348.495 79.4419 344.487 82.699 340.881 83.2693L303.56 90.8259C300.016 91.6983 295.099 90.2104 292.637 87.5131L242.858 32.9911C240.396 30.2937 235.62 29.2235 232.238 30.6104C232.238 30.6104 230.431 31.358 226.477 33.1166C205.989 42.2288 174.368 61.5478 174.368 61.5478C171.255 63.4518 169.331 67.927 170.099 71.5005L185.807 144.817C186.57 148.393 184.995 153.327 182.299 155.793L157.455 180.415C154.97 183.09 150.049 184.508 146.52 183.569L75.3213 164.657C71.7905 163.725 67.3265 165.492 65.3999 168.595L32.7903 227.795C31.1978 231.084 32.0064 235.891 34.5781 238.483L87.7781 292.009C90.3545 294.599 91.718 299.611 90.8132 303.153L84.4166 332.521C83.7631 336.113 80.3905 339.97 76.9109 341.087L6.64436 363.715C3.16688 364.837 0.361096 368.738 0.40143 372.395L5.15188 442.235C5.59587 445.858 8.87765 449.47 12.4381 450.254L86.3656 466.574C89.9327 467.361 93.8011 470.835 94.9626 474.3L103.677 497.786ZM291.456 176.819C403.624 126.932 535.001 177.411 584.886 289.574C634.774 401.742 584.279 533.109 472.107 582.998C359.935 632.887 228.567 582.404 178.68 470.237C128.795 358.073 179.284 226.708 291.456 176.819Z" fill="url(#paint0_linear_258_31)"/>
<defs>
<linearGradient id="paint0_linear_258_31" x1="652.897" y1="672.107" x2="-206.943" y2="180.196" gradientUnits="userSpaceOnUse">
<stop stop-color="#94F1DE"/>
<stop offset="1" stop-color="#73B3FF" stop-opacity="0"/>
</linearGradient>
</defs>
</svg>
