<svg width="60" height="61" viewBox="0 0 60 61" fill="none" xmlns="http://www.w3.org/2000/svg">
<path d="M43.74 36.0068C42.9881 35.6262 39.3262 33.8395 38.6419 33.5845C37.9575 33.3408 37.4606 33.2133 36.9619 33.9651C36.4744 34.6981 35.0381 36.3761 34.5994 36.8654C34.1606 37.3547 33.7294 37.3922 32.9887 37.0604C32.2369 36.6798 29.835 35.898 26.9831 33.3408C24.7556 31.3591 23.2725 28.9181 22.8319 28.1663C22.3931 27.4239 22.7831 27.004 23.1544 26.6328C23.4956 26.2915 23.9063 25.7741 24.2869 25.3241C24.6488 24.8742 24.765 24.5723 25.0294 24.0849C25.2731 23.5581 25.1475 23.1475 24.9619 22.7763C24.7762 22.4051 23.2819 18.7248 22.6575 17.2588C22.0612 15.8039 21.4369 15.9895 20.9775 15.9895C20.5481 15.9501 20.0494 15.9501 19.5525 15.9501C19.0556 15.9501 18.2437 16.1357 17.5594 16.8482C16.875 17.6 14.9419 19.396 14.9419 23.0294C14.9419 26.6721 17.6175 30.1967 17.9887 30.7236C18.3694 31.211 23.2519 38.7102 30.7425 41.933C32.5294 42.6848 33.9169 43.1347 35.0006 43.506C36.7875 44.0721 38.4188 43.9934 39.7069 43.8078C41.1319 43.5734 44.1206 42.0005 44.7469 40.2438C45.3825 38.4759 45.3825 37.0116 45.1969 36.6798C45.0112 36.3386 44.5237 36.153 43.7719 35.8211L43.74 36.0068ZM30.1556 54.4229H30.1163C25.6819 54.4229 21.2981 53.2212 17.4694 50.9752L16.5713 50.439L7.19625 52.88L9.71625 43.7591L9.11063 42.8217C6.63938 38.8864 5.32125 34.3457 5.32125 29.6793C5.32125 16.0683 16.4644 4.96569 30.1744 4.96569C36.8156 4.96569 43.0463 7.55291 47.7338 12.2399C52.4213 16.8875 55.0087 23.1175 55.0087 29.7187C54.99 43.3204 43.8562 54.4229 30.165 54.4229H30.1556ZM51.2981 8.67592C45.5944 3.16775 38.0944 0.0537109 30.1163 0.0537109C13.6613 0.0537109 0.2625 13.3929 0.253125 29.7862C0.253125 35.0206 1.62 40.1276 4.2375 44.6477L0 60.0473L15.84 55.9171C20.205 58.27 25.1175 59.5299 30.1181 59.5392H30.1275C46.5919 59.5392 59.9906 46.2 60 29.7955C60 21.8576 56.9044 14.3866 51.2606 8.77153L51.2981 8.67592Z" fill="white"/>
</svg>
