<svg width="70" height="70" viewBox="0 0 70 70" fill="none" xmlns="http://www.w3.org/2000/svg">
<g id="&#240;&#159;&#166;&#134; icon &#34;arrow circle right&#34;">
<path id="Vector" d="M35 0C15.715 0 0 15.715 0 35C0 54.285 15.715 70 35 70C54.285 70 70 54.285 70 35C70 15.715 54.285 0 35 0ZM44.765 36.855L32.41 49.21C31.885 49.735 31.22 49.98 30.555 49.98C29.89 49.98 29.225 49.735 28.7 49.21C27.685 48.195 27.685 46.515 28.7 45.5L39.2 35L28.7 24.5C27.685 23.485 27.685 21.805 28.7 20.79C29.715 19.775 31.395 19.775 32.41 20.79L44.765 33.145C45.815 34.16 45.815 35.84 44.765 36.855Z" fill="#5092DE"/>
</g>
</svg>
