<svg width="70" height="70" viewBox="0 0 70 70" fill="none" xmlns="http://www.w3.org/2000/svg">
<g id="&#240;&#159;&#166;&#134; icon &#34;arrow circle right&#34;">
<path id="Vector" d="M35 70C54.285 70 70 54.285 70 35C70 15.715 54.285 0 35 0C15.715 0 0 15.715 0 35C0 54.285 15.715 70 35 70ZM25.235 33.145L37.59 20.79C38.115 20.265 38.78 20.02 39.445 20.02C40.11 20.02 40.775 20.265 41.3 20.79C42.315 21.805 42.315 23.485 41.3 24.5L30.8 35L41.3 45.5C42.315 46.515 42.315 48.195 41.3 49.21C40.285 50.225 38.605 50.225 37.59 49.21L25.235 36.855C24.185 35.84 24.185 34.16 25.235 33.145Z" fill="#5092DE"/>
</g>
</svg>
