<svg width="60" height="60" viewBox="0 0 60 60" fill="none" xmlns="http://www.w3.org/2000/svg">
<path d="M30 0C13.4265 0 0 13.427 0 29.9968C0 46.5666 13.4284 59.9936 30 59.9936C46.5735 59.9936 60 46.5666 60 29.9968C60 13.427 46.5716 0 30 0ZM44.7348 20.5507L39.811 43.7508C39.4471 45.3958 38.4677 45.7945 37.1013 45.0204L29.6013 39.4932L25.9839 42.9767C25.5852 43.3754 25.2465 43.714 24.4723 43.714L25.0045 36.0813L38.9032 23.5252C39.509 22.993 38.7697 22.6911 37.9703 23.2233L20.7929 34.0357L13.3897 31.725C11.7813 31.218 11.7445 30.1168 13.7284 29.3427L42.6523 18.1897C43.9955 17.7059 45.1684 18.5167 44.7329 20.5488L44.7348 20.5507Z" fill="white"/>
</svg>
