<svg width="82" height="82" viewBox="0 0 82 82" fill="none" xmlns="http://www.w3.org/2000/svg">
<path d="M41 0C29.8543 0 28.4652 0.0538135 24.1033 0.238317C19.7235 0.453571 16.7608 1.13265 14.1468 2.14741C11.4507 3.20318 9.15439 4.6049 6.8863 6.88556C4.60283 9.15342 3.18815 11.4495 2.14764 14.1453C1.13277 16.7591 0.453619 19.7214 0.238342 24.1008C0.0410051 28.4648 0 29.8511 0 40.9956C0 52.1401 0.0538192 53.529 0.238342 57.8905C0.453619 62.2571 1.13277 65.2322 2.14764 67.846C3.20353 70.5418 4.60539 72.8378 6.8863 75.1057C9.15439 77.3889 11.4507 78.8034 14.1468 79.8438C16.7608 80.8458 19.7363 81.5377 24.1033 81.7529C28.4678 81.9503 29.8543 81.9913 41 81.9913C52.1457 81.9913 53.5348 81.9374 57.8967 81.7529C62.2637 81.5377 65.2392 80.8432 67.8532 79.8438C70.5493 78.7881 72.8456 77.3864 75.1137 75.1057C77.3972 72.8378 78.8119 70.5546 79.8524 67.846C80.8544 65.2322 81.5464 62.2571 81.7617 57.8905C81.959 53.5265 82 52.1401 82 40.9956C82 29.8511 81.9462 28.4622 81.7617 24.1008C81.5464 19.7342 80.8519 16.7437 79.8524 14.1453C78.7965 11.4495 77.3946 9.15342 75.1137 6.88556C72.8456 4.60233 70.5621 3.18781 67.8532 2.14741C65.2392 1.13265 62.2637 0.453571 57.8967 0.238317C53.5322 0.0410008 52.1457 0 41 0ZM41 7.38014C51.9458 7.38014 53.2528 7.43395 57.5789 7.61845C61.5692 7.80552 63.7425 8.47178 65.1853 9.03554C67.11 9.78124 68.4555 10.6628 69.9112 12.1029C71.3387 13.5302 72.2203 14.891 72.9661 16.8154C73.5299 18.2581 74.1962 20.4312 74.3833 24.4211C74.5678 28.7467 74.6216 30.0561 74.6216 40.9982C74.6216 51.9403 74.5678 53.2497 74.3679 57.5753C74.1526 61.5652 73.4863 63.7382 72.9251 65.1809C72.1485 67.1054 71.2823 68.4508 69.8522 69.9063C68.4094 71.3336 67.0357 72.2151 65.1264 72.9608C63.7015 73.5246 61.4974 74.1909 57.4917 74.3779C53.1426 74.5624 51.8612 74.6162 40.8872 74.6162C29.9132 74.6162 28.6344 74.5624 24.2802 74.3625C20.2898 74.1473 18.0884 73.481 16.6455 72.9198C14.6978 72.1434 13.3625 71.2772 11.9325 69.8473C10.4896 68.4046 9.57213 67.0311 8.8648 65.122C8.29072 63.6972 7.63464 61.4934 7.42193 57.4882C7.27585 53.1908 7.20665 51.8583 7.20665 40.9367C7.20665 30.0202 7.27585 28.6852 7.42193 24.3339C7.63464 20.3287 8.29072 18.13 8.8648 16.7001C9.57213 14.75 10.4922 13.4175 11.9325 11.9748C13.36 10.5474 14.6978 9.62493 16.6455 8.90229C18.0884 8.34109 20.236 7.67483 24.2417 7.47495C28.5908 7.31863 29.8722 7.26226 40.8309 7.26226L41 7.38014ZM41 19.9546C29.3622 19.9546 19.9516 29.377 19.9516 41.0008C19.9516 52.6373 29.375 62.0469 41 62.0469C52.6378 62.0469 62.0484 52.6245 62.0484 41.0008C62.0484 29.3642 52.625 19.9546 41 19.9546ZM41 54.6668C33.4448 54.6668 27.3325 48.5551 27.3325 41.0008C27.3325 33.4464 33.4448 27.3347 41 27.3347C48.5552 27.3347 54.6675 33.4464 54.6675 41.0008C54.6675 48.5551 48.5552 54.6668 41 54.6668ZM67.8174 19.114C67.8174 21.838 65.6005 24.0367 62.889 24.0367C60.1648 24.0367 57.9659 21.8355 57.9659 19.114C57.9659 16.4054 60.1801 14.2016 62.889 14.2016C65.598 14.2016 67.8174 16.4054 67.8174 19.114Z" fill="white"/>
</svg>
