<svg width="60" height="64" viewBox="0 0 60 64" fill="none" xmlns="http://www.w3.org/2000/svg">
<path d="M28.4208 0.0609557C23.3476 0.122191 12.4406 0.955785 6.34012 6.55192C1.80228 11.0478 0.217884 17.6948 0.0321824 25.9142C-0.121911 34.104 -0.307613 49.484 14.5189 53.6717V60.05C14.5189 60.05 14.426 62.6022 16.1132 63.1256C18.1914 63.7834 19.3748 61.8199 21.3504 59.7103L25.0348 55.5443C35.1792 56.3878 42.949 54.444 43.844 54.1556C45.9025 53.4978 57.497 52.0163 59.3916 36.6344C61.3355 20.7487 58.4453 10.7396 53.2278 6.21216H53.1962C51.6217 4.76226 45.294 0.151821 31.157 0.100462C31.157 0.100462 30.108 0.0313256 28.4208 0.0609557ZM28.5947 4.5272C30.0349 4.51732 30.91 4.57856 30.91 4.57856C42.876 4.61016 48.5873 8.21121 49.9346 9.42406C54.3282 13.1891 56.5922 22.2124 54.9347 35.4748C53.3602 48.3343 43.9566 49.1481 42.2161 49.7032C41.4753 49.9403 34.632 51.6272 26.0107 51.0721C26.0107 51.0721 19.5901 58.8194 17.583 60.8145C17.2649 61.1641 16.8935 61.2669 16.6564 61.2155C16.3166 61.1325 16.2139 60.7118 16.2337 60.135L16.2949 49.5491C3.72054 46.0725 4.46137 32.9543 4.59571 26.1019C4.7498 19.2494 6.03588 13.6434 9.8645 9.84679C15.0187 5.18696 24.2801 4.5588 28.5907 4.5272H28.5947ZM29.543 11.3777C29.1103 11.3678 28.7508 11.7273 28.7508 12.1599C28.7508 12.6024 29.1103 12.952 29.543 12.952C33.5039 12.8809 37.3227 14.3822 40.1615 17.1397C43.032 19.9269 44.4307 23.6722 44.4841 28.5691C44.4841 29.0017 44.8337 29.3612 45.2762 29.3612V29.3296C45.7089 29.3296 46.0684 28.9799 46.0684 28.5473C46.264 23.8875 44.5354 19.36 41.2935 16.0059C38.1662 12.95 34.2033 11.3757 29.543 11.3757V11.3777ZM19.1298 13.1891C18.5747 13.1061 17.9978 13.2207 17.5138 13.5071H17.4723C16.4016 14.1352 15.4039 14.9274 14.4577 15.9861C13.7366 16.8197 13.3454 17.6632 13.2427 18.4751C13.1814 18.959 13.2229 19.443 13.3672 19.9052L13.4185 19.9368C14.2305 22.323 15.2913 24.6184 16.5873 26.7794C18.2547 29.8135 20.3112 32.6225 22.6997 35.1331L22.7708 35.2358L22.8834 35.3188L22.9545 35.4018L23.0375 35.4729C25.5583 37.8709 28.3675 39.9273 31.4138 41.6142C34.8908 43.5066 37.0007 44.4014 38.267 44.7728V44.7925C38.6384 44.9051 38.9762 44.9565 39.316 44.9565C40.3966 44.8735 41.416 44.4429 42.2181 43.712C43.2474 42.7856 44.0593 41.7683 44.6678 40.6878V40.668C45.2743 39.5263 45.0688 38.4458 44.1936 37.7149C42.4453 36.182 40.5409 34.823 38.5337 33.6516C37.1864 32.9207 35.8173 33.3632 35.2622 34.104L34.0788 35.5953C33.4723 36.3361 32.37 36.2334 32.37 36.2334L32.3384 36.2531C24.1181 34.1533 21.9252 25.8312 21.9252 25.8312C21.9252 25.8312 21.8225 24.6994 22.5831 24.1226L24.0648 22.9295C24.774 22.3527 25.2679 20.9857 24.5073 19.6366C23.3437 17.6197 21.9865 15.7274 20.4535 13.9772C20.1235 13.5664 19.6514 13.2878 19.1259 13.1851L19.1298 13.1891ZM30.91 15.5358C29.861 15.5358 29.861 17.12 30.9199 17.12C33.5533 17.1615 36.0643 18.2519 37.8956 20.1442C39.563 21.9852 40.4263 24.4347 40.2623 26.9137C40.2722 27.3463 40.6219 27.696 41.0545 27.696L41.0861 27.7374C41.5187 27.7374 41.8783 27.3779 41.8783 26.9453C41.9494 23.8065 40.9735 21.1734 39.0592 19.0637C37.135 16.9541 34.4502 15.7708 31.0226 15.5358C30.9812 15.5358 30.9515 15.5358 30.91 15.5358ZM32.208 19.7946C31.1274 19.763 31.0859 21.3788 32.1566 21.4104C34.7604 21.5447 36.0247 22.8603 36.1907 25.5665C36.2006 25.9991 36.5502 26.3389 36.973 26.3389H37.0046C37.4471 26.3191 37.7968 25.9379 37.7652 25.4954C37.5795 21.9675 35.6553 19.9803 32.2396 19.7966C32.2297 19.7966 32.2198 19.7966 32.208 19.7966V19.7946Z" fill="white"/>
</svg>
