<svg width="181" height="180" viewBox="0 0 181 180" fill="none" xmlns="http://www.w3.org/2000/svg">
<path d="M96.0491 161.064C96.9105 161.005 97.9951 161.552 98.4575 162.281L107.862 177.095C108.324 177.824 109.385 178.239 110.221 178.017L126.438 172.731C127.243 172.416 127.875 171.453 127.844 170.59L127.186 152.723C127.154 151.859 127.723 150.771 128.45 150.304L132.641 147.44C133.341 146.932 134.553 146.814 135.337 147.177L151.36 154.603C152.144 154.966 153.266 154.746 153.856 154.114L164.941 140.784C165.455 140.09 165.472 138.942 164.978 138.233L154.837 123.66C154.344 122.952 154.243 121.733 154.613 120.952L156.559 116.538C156.885 115.738 157.852 114.987 158.707 114.868L176.347 112.432C177.202 112.313 178.037 111.524 178.202 110.676L180.503 93.5419C180.569 92.6798 179.971 91.7057 179.173 91.3755L162.868 84.6432C162.068 84.3132 161.386 83.6874 161.35 83.2519L161.31 82.8556C161.065 80.4455 160.503 77.2983 160.503 77.2983C160.351 76.4475 160.764 75.2918 161.42 74.73L175.005 63.0898C175.661 62.528 175.941 61.4088 175.627 60.6048L168.612 45.1757C168.211 44.4109 167.187 43.9109 166.337 44.0652L149.101 47.1957C148.25 47.3502 147.114 46.9234 146.574 46.2491L142.54 41.5273C141.958 40.8889 141.685 39.6901 141.932 38.863L147.069 21.721C147.317 20.8925 146.95 19.7991 146.252 19.2889L132.497 10.3304C131.749 9.89807 130.621 10.0262 129.989 10.6158L117.242 22.5106C116.61 23.1002 115.425 23.3518 114.608 23.0709L107.489 20.9123C106.654 20.6927 105.776 19.8333 105.536 19.0035L100.609 1.8721C100.371 1.04221 99.4704 0.323357 98.6076 0.274026C98.6076 0.274026 87.7031 -0.341982 81.2965 0.30973L81.2629 0.31315C81.2246 0.31826 81.0205 1.00754 80.8071 1.84336L76.5159 18.7344C76.3039 19.5725 75.4433 20.4268 74.6054 20.6346L66.4364 23.0077C65.6188 23.2837 64.4174 23.0432 63.7675 22.4747L50.4432 10.7971C49.7933 10.2287 48.6512 10.118 47.9043 10.5519L34.9818 18.9738C34.2838 19.4828 33.9358 20.5701 34.2096 21.3892L39.7554 37.9905C40.0292 38.8095 39.7728 39.9979 39.187 40.6326L33.3118 47.5575C32.7818 48.2387 31.6486 48.6924 30.7948 48.5645L13.4038 45.9659C12.55 45.838 11.5348 46.3659 11.1487 47.138L5.02379 61.1617C4.7189 61.9692 5.02046 63.0729 5.69313 63.6148L19.4142 74.6478C20.0881 75.1896 20.5244 76.3305 20.3867 77.1829L19.3323 86.1277C19.267 86.9885 18.5699 87.9839 17.7821 88.3383L1.85761 95.5041C1.06985 95.8584 0.477022 96.853 0.539273 97.7153C0.539273 97.7153 0.574036 98.1765 0.677625 99.1948C1.21439 104.471 3.22392 113.003 3.22392 113.003C3.42222 113.843 4.286 114.605 5.14576 114.696L22.7813 116.574C23.6411 116.666 24.6338 117.384 24.9894 118.171L28.6904 125.571C29.1082 126.326 29.0639 127.537 28.5927 128.261L19.0911 142.867C18.6213 143.592 18.6893 144.725 19.2444 145.387L30.1439 157.082C30.7655 157.682 31.9054 157.855 32.6777 157.469L48.6306 149.46C49.4028 149.072 50.6298 149.136 51.3589 149.6L57.4874 153.204C58.2463 153.615 58.8644 154.658 58.8589 155.522L58.7617 172.983C58.7574 173.847 59.4272 174.765 60.252 175.026L76.2981 179.109C77.145 179.277 78.1987 178.806 78.6377 178.063L87.7578 162.653C88.1978 161.909 89.2637 161.296 90.1283 161.291L96.0491 161.064ZM37.7654 95.1903C34.8268 66.3026 55.861 40.5003 84.7475 37.5618C113.635 34.6232 139.434 55.6601 142.373 84.549C145.312 113.438 124.277 139.238 95.3895 142.176C66.503 145.115 40.7042 124.079 37.7654 95.1903Z" fill="url(#paint0_linear_234_75)"/>
<defs>
<linearGradient id="paint0_linear_234_75" x1="179.223" y1="80.684" x2="15.821" y2="9.36956" gradientUnits="userSpaceOnUse">
<stop stop-color="#94F1DE"/>
<stop offset="1" stop-color="#93C4FF" stop-opacity="0"/>
</linearGradient>
</defs>
</svg>
