<svg width="242" height="242" viewBox="0 0 242 242" fill="none" xmlns="http://www.w3.org/2000/svg">
<path d="M40.2435 119.192L39.0554 119.183L39.0904 114.322L40.2785 114.33L40.2435 119.192Z" fill="#CFD5ED"/>
<path d="M45.801 119.394L44.6129 119.386L44.6491 114.362L45.8372 114.37L45.801 119.394Z" fill="#CFD5ED"/>
<path d="M39.0356 121.898L39.0309 122.425C39.0262 123.03 39.5129 123.524 40.1186 123.529L44.6759 123.56C45.2816 123.565 45.7753 123.078 45.78 122.473L45.7823 121.946L39.0356 121.898Z" fill="#CFD5ED"/>
<path d="M45.8057 118.738L45.7823 121.947L39.0356 121.899L39.0589 118.69L45.8057 118.738Z" fill="#F1F3FA"/>
<path d="M63.4328 88.4078C63.3721 96.9494 56.9358 104.61 51.4156 110.435C50.1295 111.79 47.9121 112.059 47.8059 114.183L37.2313 114.109C37.6631 111.608 34.9287 111.678 33.6543 110.309C28.1913 104.438 21.8028 96.7569 21.8647 88.1113C21.9406 77.5425 32.1896 72.341 42.7608 72.4168C53.3273 72.4915 63.5075 77.8378 63.4328 88.4078Z" fill="#EAEDFF"/>
<path d="M42.7608 72.4171C33.7756 72.3529 25.0554 77.5661 24.9807 88.135C24.9049 98.7937 33.1699 107.98 38.0144 114.114L47.003 114.178C51.9361 108.113 60.2374 98.908 60.3132 88.3859C60.3879 77.8182 51.7436 72.4801 42.7608 72.4171Z" fill="#DBE0FF"/>
<path d="M42.7608 72.4168C36.9465 72.3747 31.291 77.6101 31.2152 88.179C31.1393 98.8388 36.4657 108.003 39.5841 114.125L45.4007 114.166C48.6077 108.089 54.003 98.8634 54.0777 88.3424C54.1524 77.7735 48.5739 72.4576 42.7608 72.4168Z" fill="#EAEDFF"/>
<path d="M43.607 72.4614L43.5346 72.4555C43.0188 72.4088 42.5006 72.4053 41.9848 72.4438L41.9113 72.4485C40.7314 74.2364 39.5877 79.9678 39.5293 88.2388C39.4535 98.8986 40.8586 108.034 41.6779 114.14L43.2639 114.152C44.1695 108.058 45.6902 98.8053 45.7637 88.2831C45.8396 77.7154 44.8639 74.3135 43.607 72.4614Z" fill="#DBE0FF"/>
<path d="M51.4157 110.435C50.2801 111.631 48.959 112.982 47.9133 114.071C47.6566 114.336 47.3041 114.484 46.9354 114.482L38.0973 114.419C37.7296 114.415 37.3795 114.265 37.1274 113.995C36.0911 112.892 34.7805 111.518 33.6543 110.309L51.4157 110.435Z" fill="#F1F3FA"/>
<path d="M134.154 84.0629C134.449 84.0792 137.359 79.5172 138.71 76.6906L136.553 71.9209C135.746 74.0519 132.362 83.1573 132.362 83.1573L134.154 84.0629Z" fill="#20158A"/>
<path d="M83.3043 78.2158L84.392 80.5826L84.3044 82.0006L82.9857 81.4999L81.5572 79.2207L83.3043 78.2158Z" fill="#F49D64"/>
<path d="M84.392 80.5825C86.4366 81.2536 88.5945 80.5919 88.7696 81.1462C88.9353 81.669 84.4585 83.6986 83.6345 82.8991C82.9506 82.2351 82.9857 81.4998 82.9857 81.4998C84.0197 81.6235 84.392 80.5825 84.392 80.5825Z" fill="#61557D"/>
<path d="M70.9615 74.5944C70.9615 74.5944 76.6567 68.4277 78.4948 69.1991C80.3318 69.9694 84.3698 79.4797 84.3698 79.4797C84.0827 81.0902 82.0275 81.0727 82.0275 81.0727L77.4433 75.409L73.3901 77.4443L70.9615 74.5944Z" fill="#AEBBED"/>
<path d="M68.9833 69.0615L73.0365 70.8926L72.0002 72.8778C72.0002 72.8778 66.2501 71.629 65.6782 70.5658C65.1064 69.5015 67.8956 63.0547 67.8956 63.0547L71.3314 66.3644C70.2554 67.6144 68.9833 69.0615 68.9833 69.0615Z" fill="#0031A4"/>
<path d="M85.874 56.9546L84.0698 64.4272H78.7317L80.5371 56.9546H85.874Z" fill="#1BB26A"/>
<path d="M89.5397 75.7612L92.3255 76.1078L93.5766 76.9925L92.3699 77.9168L89.4697 77.9319L89.5397 75.7612Z" fill="#F49D64"/>
<path d="M90.5901 76.7149C90.5761 76.8829 90.5435 77.0323 90.5014 77.1724C90.3194 77.8119 89.9366 78.1935 89.9366 78.1935L79.0025 77.9053H69.2763C68.3531 77.9006 67.5922 77.0837 67.6062 76.1605L67.6109 75.7684L67.6202 75.3016L67.6389 73.8801C67.6389 73.8801 76.526 73.3573 79.8474 73.642C83.0942 73.9163 89.2002 75.1627 90.3381 75.3914C90.5668 75.8804 90.6228 76.3333 90.5901 76.7149Z" fill="#758BCD"/>
<path d="M90.5901 76.715C90.5761 76.883 90.5434 77.0324 90.5014 77.1725C87.9502 76.757 81.2 75.6705 79.6186 75.5304C77.8692 75.3857 69.3976 75.6985 67.6108 75.7685C67.4101 75.7779 67.2934 75.7825 67.2841 75.7825L67.2654 75.3157C67.3027 75.3157 67.4288 75.3122 67.6202 75.3017C69.4769 75.2328 77.8646 74.9107 79.656 75.0683C81.2793 75.2083 88.0342 76.3007 90.5901 76.715Z" fill="#5B74C1"/>
<path d="M92.3254 76.1083C94.1017 74.6156 94.7191 72.2628 95.3283 72.4169C95.9013 72.5628 95.2197 77.8156 94.02 78.1167C93.0233 78.3665 92.3698 77.9172 92.3698 77.9172C93.07 77.0396 92.3254 76.1083 92.3254 76.1083Z" fill="#20158A"/>
<path d="M71.6628 57.3608C72.3315 55.7223 74.0984 54.8937 75.6098 55.5099C77.1211 56.1249 77.805 57.9537 77.1363 59.5922C76.6321 60.8317 76.4034 62.4935 74.3225 61.6451L72.7657 63.6979L70.4526 62.755L72.0573 60.5842C71.3897 59.7335 71.1983 58.5022 71.6628 57.3608Z" fill="#F49D64"/>
<path d="M74.5711 73.9819C74.8186 75.0405 74.9166 75.1712 74.0997 75.8761C73.5535 76.3429 72.747 76.6592 71.8087 76.7899C70.5495 76.9673 69.0568 76.7992 67.6809 76.2122C65.8334 75.4197 67.8863 73.3482 67.3308 66.039C67.3027 65.6562 67.2654 65.2605 67.2234 64.8451C67.1767 64.3923 66.5943 62.1445 68.2632 61.4583C68.4698 61.3743 68.6659 61.3182 68.8328 61.3042L70.106 61.2015C71.1564 61.1233 72.2067 61.2762 73.1719 61.6497C73.7029 61.8551 74.207 62.1305 74.6785 62.4655C75.3029 62.9089 76.0031 64.5171 76.5773 66.1638L74.2771 68.268C74.2164 68.3614 74.165 68.7069 74.1417 69.2157C74.0857 70.3349 74.165 72.2384 74.5711 73.9819Z" fill="#5669EF"/>
<path d="M74.0997 75.8757C73.5535 76.3425 72.747 76.6588 71.8087 76.7895C71.8134 76.4452 71.8928 76.0998 72.0608 75.7777C72.5043 74.9199 72.4576 73.8894 71.8134 73.1612L71.105 72.3629C71.1003 72.3582 71.0957 72.3489 71.0863 72.3442C70.3768 71.5098 70.8763 70.0778 71.2357 69.4488C71.5391 68.9072 72.6957 67.4473 72.6957 67.4473L74.1417 69.2153C74.0856 70.3346 74.165 72.238 74.5711 73.9816C74.8186 75.0401 74.9166 75.1708 74.0997 75.8757Z" fill="#434BEF"/>
<path d="M66.7192 58.2442C67.5186 58.1006 68.2632 57.7867 68.8584 57.2533C69.8878 56.3314 71.1984 55.5354 72.6222 55.0103C73.5616 54.6637 74.9096 54.6368 75.7849 54.8527C76.1887 54.9519 76.5995 54.9904 77.015 55.0114C77.4351 55.0313 78.0058 55.176 78.3909 55.7432C78.4318 55.8027 78.4609 55.8622 78.4854 55.9241C78.1563 55.9007 77.8284 55.8646 77.5075 55.7852C76.631 55.5693 75.2831 55.5961 74.3436 55.9427C72.9209 56.4668 71.6092 57.265 70.5798 58.187C69.9835 58.7192 69.24 59.0343 68.4535 59.1743C66.3738 59.5513 65.0993 61.6671 65.6198 63.7083C65.7085 64.0573 65.8708 64.3619 66.082 64.6221C65.0783 64.5042 64.1669 63.8274 63.8984 62.7758C63.3779 60.7347 64.6524 58.6188 66.7192 58.2442Z" fill="#FC8F96"/>
<path d="M65.6198 63.708C65.0993 61.6668 66.3737 59.5509 68.4406 59.1763C69.24 59.0339 69.9834 58.7188 70.5798 58.1866C71.6091 57.2647 72.9209 56.4664 74.3435 55.9424C75.283 55.5958 76.631 55.5689 77.5074 55.7849C77.8284 55.8642 78.1563 55.9004 78.4854 55.9237C78.8717 56.8959 77.3872 58.1213 77.3872 58.1213C75.3145 57.2763 74.9469 58.7888 74.3972 60.138C73.9748 61.1755 71.4691 63.6239 69.3684 63.8398C68.779 63.9005 68.1967 64.0266 67.6762 64.3113C67.6668 64.316 67.6575 64.3218 67.6482 64.3265C67.1522 64.5961 66.6036 64.6825 66.082 64.6218C65.8707 64.3615 65.7085 64.0569 65.6198 63.708Z" fill="#FA4A56"/>
<path d="M73.1718 61.6497C72.3922 62.8763 71.1049 64.2849 69.785 64.7097C69.2201 64.8918 68.6751 65.1392 68.227 65.5255C68.2165 65.5348 68.2118 65.5395 68.2036 65.5488C67.9376 65.7729 67.6435 65.9363 67.3307 66.039C67.3027 65.6562 67.2653 65.2605 67.2233 64.8451C67.1766 64.3923 66.5943 62.1445 68.2632 61.4583C68.4697 61.3743 68.6658 61.3182 68.8327 61.3042L70.1059 61.2015C71.1563 61.1233 72.2066 61.2762 73.1718 61.6497Z" fill="#434BEF"/>
<path d="M65.6198 63.708C65.0993 61.6668 66.3737 59.5509 68.4406 59.1763C69.24 59.0339 69.9834 58.7188 70.5798 58.1866C71.6091 57.2647 72.9209 56.4664 74.3435 55.9424C75.283 55.5958 76.631 55.5689 77.5074 55.7849C77.8284 55.8642 78.1563 55.9004 78.4854 55.9237C78.8717 56.8959 77.3872 58.1213 77.3872 58.1213C75.3145 57.2763 74.9469 58.7888 74.3972 60.138C73.9748 61.1755 71.4691 63.6239 69.3684 63.8398C68.779 63.9005 68.1967 64.0266 67.6762 64.3113C67.6668 64.316 67.6575 64.3218 67.6482 64.3265C67.1522 64.5961 66.6036 64.6825 66.082 64.6218C65.8707 64.3615 65.7085 64.0569 65.6198 63.708Z" fill="#FA4A56"/>
<path d="M73.8605 59.4694C73.7041 59.8534 73.8873 60.291 74.2713 60.4462C74.6541 60.6026 75.0917 60.4182 75.2481 60.0354C75.4045 59.6526 75.2201 59.215 74.8373 59.0586C74.4545 58.9034 74.0168 59.0866 73.8605 59.4694Z" fill="#F49D64"/>
<path d="M84.4911 62.7058C84.2495 62.854 83.9974 63.4364 83.5948 63.5087C83.5142 63.5239 83.4325 63.5251 83.352 63.5216C83.5224 63.1458 83.6555 62.7303 83.4851 62.6043C83.1536 62.3568 82.4032 63.7445 82.4032 63.7445C82.1861 64.0806 82.1021 64.5136 82.1021 64.5136C81.9177 64.7936 78.4854 67.4709 78.4854 67.4709L79.9757 68.8106L82.1955 66.1871C82.3414 66.0412 82.5234 65.9339 82.7241 65.8708C83.0147 65.7845 83.324 65.6958 83.6018 65.5616C83.6018 65.5616 84.9089 64.8053 85.0396 64.1308C85.0816 63.916 85.1119 63.7608 85.0396 63.4282C84.9474 63.0022 84.4911 62.7058 84.4911 62.7058Z" fill="#F49D64"/>
<path d="M77.1994 68.0191L80.6725 65.3501C80.6725 65.3501 82.115 65.5135 82.115 66.9116C82.115 66.9116 77.9825 71.5075 76.7757 71.4643C75.7989 71.4304 73.4928 68.4568 73.0073 67.7811L76.5773 66.1635C77.1539 67.8091 77.1994 68.0191 77.1994 68.0191Z" fill="#5669EF"/>
<path d="M47.6975 169.219H192.444L192.116 77.8413H47.3672L47.6975 169.219Z" fill="#9FAFEA"/>
<path d="M51.1449 165.762L50.8356 81.2979H188.668L188.977 165.762H51.1449Z" fill="#E0E5F8"/>
<path d="M96.5841 161.411H95.0156V84.7153H96.5841V161.411Z" fill="#C8D1F3"/>
<path d="M144.796 161.411H143.229V84.7153H144.796V161.411Z" fill="#C8D1F3"/>
<path d="M153.148 90.1138V104.477H175.773V90.1138H153.148Z" fill="#FEC95C"/>
<path d="M173.429 93.3618H155.493V94.2908H173.429V93.3618Z" fill="#FCFDFE"/>
<path d="M165.397 95.939H155.493V96.8679H165.397V95.939Z" fill="#FCFDFE"/>
<path d="M165.397 98.3022H155.493V99.2312H165.397V98.3022Z" fill="#FCFDFE"/>
<path d="M165.397 100.666H155.493V101.595H165.397V100.666Z" fill="#FCFDFE"/>
<path d="M173.429 95.939H167.391V101.595H173.429V95.939Z" fill="#FCFDFE"/>
<path d="M66.0003 107.791V122.153H88.6248V107.791H66.0003Z" fill="#FCFDFE"/>
<path d="M86.2802 111.039H68.345V111.968H86.2802V111.039Z" fill="#AEBBED"/>
<path d="M78.2497 113.616H68.345V114.544H78.2497V113.616Z" fill="#758BCD"/>
<path d="M78.2497 115.979H68.345V116.908H78.2497V115.979Z" fill="#E8ECFA"/>
<path d="M78.2497 118.342H68.345V119.272H78.2497V118.342Z" fill="#AEBBED"/>
<path d="M86.2802 113.616H80.2418V119.272H86.2802V113.616Z" fill="#E8ECFA"/>
<path d="M61.9846 146.09V160.452H84.6102V146.09H61.9846Z" fill="#FCFDFE"/>
<path d="M82.2643 149.338H64.3302V150.267H82.2643V149.338Z" fill="#AEBBED"/>
<path d="M74.2338 151.916H64.3302V152.845H74.2338V151.916Z" fill="#758BCD"/>
<path d="M74.2338 154.279H64.3302V155.208H74.2338V154.279Z" fill="#E8ECFA"/>
<path d="M74.2338 156.642H64.3302V157.571H74.2338V156.642Z" fill="#AEBBED"/>
<path d="M82.2644 151.916H76.2272V157.571H82.2644V151.916Z" fill="#E8ECFA"/>
<path d="M99.5366 127.526V141.889H122.161V127.526H99.5366Z" fill="#5669EF"/>
<path d="M119.817 130.774H101.881V131.704H119.817V130.774Z" fill="#FCFDFE"/>
<path d="M107.721 133.351H101.881V134.28H107.721V133.351Z" fill="#FCFDFE"/>
<path d="M119.817 133.351H108.714V134.28H119.817V133.351Z" fill="#FCFDFE"/>
<path d="M119.817 135.714H101.881V136.643H119.817V135.714Z" fill="#FCFDFE"/>
<path d="M119.817 138.078H101.881V139.007H119.817V138.078Z" fill="#FCFDFE"/>
<path d="M179.131 159.562V145.199H156.505V159.562H179.131Z" fill="#FCFDFE"/>
<path d="M158.85 156.313H176.785V155.384H158.85V156.313Z" fill="#AEBBED"/>
<path d="M170.945 153.736H176.785V152.808H170.945V153.736Z" fill="#758BCD"/>
<path d="M158.85 153.736H169.953V152.808H158.85V153.736Z" fill="#758BCD"/>
<path d="M158.85 151.373H176.785V150.444H158.85V151.373Z" fill="#E8ECFA"/>
<path d="M158.85 149.011H176.785V148.081H158.85V149.011Z" fill="#AEBBED"/>
<path d="M99.769 123.001V108.638H122.395V123.001H99.769Z" fill="#FA4A56"/>
<path d="M120.05 119.751H102.115V118.823H120.05V119.751Z" fill="#FCFDFE"/>
<path d="M112.018 117.174H102.115V116.247H112.018V117.174Z" fill="#FCFDFE"/>
<path d="M112.018 114.812H102.115V113.883H112.018V114.812Z" fill="#FCFDFE"/>
<path d="M112.018 112.449H102.115V111.519H112.018V112.449Z" fill="#FCFDFE"/>
<path d="M120.05 117.175H114.012V111.519H120.05V117.175Z" fill="#FCFDFE"/>
<path d="M130.493 84.8379H107.866V99.2008H130.493V84.8379Z" fill="#1BB26A"/>
<path d="M123.3 97.5833H128.147V96.6543H123.3V97.5833Z" fill="#FCFDFE"/>
<path d="M123.3 92.4841H128.147V91.5552H123.3V92.4841Z" fill="#FCFDFE"/>
<path d="M123.3 87.3852H128.147V86.4551H123.3V87.3852Z" fill="#FCFDFE"/>
<path d="M123.3 89.9343H128.147V89.0054H123.3V89.9343Z" fill="#FCFDFE"/>
<path d="M123.3 95.0328H128.147V94.105H123.3V95.0328Z" fill="#FCFDFE"/>
<path d="M115.776 96.4078C114.529 96.4078 113.405 95.8838 112.605 95.0459L111.773 95.878C112.785 96.9284 114.203 97.5831 115.776 97.5831C117.254 97.5831 118.594 97.003 119.59 96.0636L118.757 95.2315C117.974 95.9597 116.927 96.4078 115.776 96.4078Z" fill="#FCFDFE"/>
<path d="M111.387 92.0183C111.387 90.8676 111.837 89.8208 112.564 89.0377L111.731 88.2056C110.792 89.2022 110.212 90.5408 110.212 92.0183C110.212 93.5192 110.808 94.8776 111.773 95.8778L112.606 95.0457C111.853 94.2567 111.387 93.1924 111.387 92.0183Z" fill="#FCFDFE"/>
<path d="M112.563 89.0378C113.366 88.1741 114.508 87.6303 115.776 87.6303C116.949 87.6303 118.015 88.096 118.802 88.8487L119.634 88.0166C118.634 87.0514 117.276 86.4551 115.776 86.4551C114.181 86.4551 112.746 87.1296 111.731 88.2057L112.563 89.0378Z" fill="#FCFDFE"/>
<path d="M120.165 92.0184C120.165 93.2882 119.622 94.4295 118.757 95.2313L119.59 96.0634C120.665 95.0481 121.341 93.6138 121.341 92.0184C121.341 90.4464 120.685 89.0284 119.634 88.0166L118.802 88.8487C119.64 89.6481 120.165 90.7732 120.165 92.0184Z" fill="#FCFDFE"/>
<path d="M159.361 123.892H181.987V109.529H159.361V123.892Z" fill="#FCFDFE"/>
<path d="M166.553 111.146H161.707V112.075H166.553V111.146Z" fill="#AEBBED"/>
<path d="M166.553 116.247H161.707V117.174H166.553V116.247Z" fill="#E8ECFA"/>
<path d="M166.553 121.345H161.707V122.274H166.553V121.345Z" fill="#E8ECFA"/>
<path d="M166.553 118.795H161.707V119.724H166.553V118.795Z" fill="#AEBBED"/>
<path d="M166.553 113.697H161.707V114.626H166.553V113.697Z" fill="#E8ECFA"/>
<path d="M174.077 112.322C175.324 112.322 176.449 112.846 177.248 113.685L178.08 112.853C177.069 111.802 175.651 111.146 174.077 111.146C172.6 111.146 171.26 111.727 170.264 112.666L171.096 113.498C171.88 112.771 172.926 112.322 174.077 112.322Z" fill="#758BCD"/>
<path d="M178.467 116.711C178.467 117.862 178.018 118.908 177.289 119.691L178.121 120.524C179.062 119.527 179.642 118.188 179.642 116.711C179.642 115.211 179.046 113.853 178.081 112.853L177.248 113.685C178.001 114.472 178.467 115.537 178.467 116.711Z" fill="#AEBBED"/>
<path d="M177.289 119.691C176.488 120.555 175.346 121.099 174.078 121.099C172.904 121.099 171.839 120.633 171.05 119.88L170.218 120.713C171.22 121.678 172.578 122.274 174.078 122.274C175.673 122.274 177.107 121.6 178.121 120.524L177.289 119.691Z" fill="#E8ECFA"/>
<path d="M169.687 116.711C169.687 115.442 170.232 114.3 171.096 113.498L170.264 112.666C169.188 113.681 168.513 115.116 168.513 116.711C168.513 118.284 169.169 119.701 170.218 120.713L171.05 119.881C170.213 119.082 169.687 117.957 169.687 116.711Z" fill="#AEBBED"/>
<path d="M170.082 140.434V126.131H147.457V140.434H170.082Z" fill="#FCFDFE"/>
<path d="M158.769 134.314C157.149 134.314 155.832 132.996 155.832 131.376C155.832 129.758 157.149 128.44 158.769 128.44C160.389 128.44 161.707 129.758 161.707 131.376C161.707 132.996 160.389 134.314 158.769 134.314ZM158.769 127.401C156.574 127.401 154.793 129.181 154.793 131.376C154.793 133.573 156.574 135.352 158.769 135.352C160.964 135.352 162.745 133.573 162.745 131.376C162.745 129.181 160.964 127.401 158.769 127.401Z" fill="#E8ECFA"/>
<path d="M149.802 139.185H167.737V138.255H149.802V139.185Z" fill="#AEBBED"/>
<path d="M149.802 137.067H167.737V136.138H149.802V137.067Z" fill="#E8ECFA"/>
<path d="M149.802 133.959H153.537V133.03H149.802V133.959Z" fill="#AEBBED"/>
<path d="M149.802 131.842H153.537V130.913H149.802V131.842Z" fill="#758BCD"/>
<path d="M149.802 129.724H153.537V128.795H149.802V129.724Z" fill="#AEBBED"/>
<path d="M163.91 133.959H167.646V133.03H163.91V133.959Z" fill="#AEBBED"/>
<path d="M163.91 131.842H167.646V130.913H163.91V131.842Z" fill="#E8ECFA"/>
<path d="M163.91 129.724H167.646V128.795H163.91V129.724Z" fill="#E8ECFA"/>
<path d="M55.4362 85.9326V100.235H78.0618V85.9326H55.4362Z" fill="#FCFDFE"/>
<path d="M66.7495 97.9261C65.1297 97.9261 63.8121 96.6085 63.8121 94.9898C63.8121 93.37 65.1297 92.0523 66.7495 92.0523C68.3694 92.0523 69.687 93.37 69.687 94.9898C69.687 96.6085 68.3694 97.9261 66.7495 97.9261ZM66.7495 91.0137C64.5531 91.0137 62.7734 92.7934 62.7734 94.9898C62.7734 97.1851 64.5531 98.966 66.7495 98.966C68.9448 98.966 70.7257 97.1851 70.7257 94.9898C70.7257 92.7934 68.9448 91.0137 66.7495 91.0137Z" fill="#E8ECFA"/>
<path d="M75.716 87.1821H57.7819V88.1111H75.716V87.1821Z" fill="#AEBBED"/>
<path d="M75.716 89.3008H57.7819V90.2286H75.716V89.3008Z" fill="#E8ECFA"/>
<path d="M75.716 92.4082H71.9814V93.336H75.716V92.4082Z" fill="#AEBBED"/>
<path d="M75.716 94.5254H71.9814V95.4532H75.716V94.5254Z" fill="#758BCD"/>
<path d="M75.716 96.6426H71.9814V97.5716H75.716V96.6426Z" fill="#AEBBED"/>
<path d="M61.6087 92.4082H57.873V93.336H61.6087V92.4082Z" fill="#AEBBED"/>
<path d="M61.6087 94.5254H57.873V95.4532H61.6087V94.5254Z" fill="#E8ECFA"/>
<path d="M61.6087 96.6426H57.873V97.5716H61.6087V96.6426Z" fill="#E8ECFA"/>
<path d="M108.3 147.591V161.895H130.926V147.591H108.3Z" fill="#FCFDFE"/>
<path d="M119.612 159.586C117.994 159.586 116.676 158.268 116.676 156.649C116.676 155.03 117.994 153.712 119.612 153.712C121.233 153.712 122.55 155.03 122.55 156.649C122.55 158.268 121.233 159.586 119.612 159.586ZM119.612 152.672C117.417 152.672 115.637 154.453 115.637 156.649C115.637 158.845 117.417 160.625 119.612 160.625C121.809 160.625 123.59 158.845 123.59 156.649C123.59 154.453 121.809 152.672 119.612 152.672Z" fill="#E8ECFA"/>
<path d="M128.58 148.841H110.646V149.77H128.58V148.841Z" fill="#AEBBED"/>
<path d="M128.58 150.959H110.646V151.888H128.58V150.959Z" fill="#E8ECFA"/>
<path d="M128.58 154.067H124.845V154.996H128.58V154.067Z" fill="#AEBBED"/>
<path d="M128.58 156.185H124.845V157.114H128.58V156.185Z" fill="#758BCD"/>
<path d="M128.58 158.301H124.845V159.231H128.58V158.301Z" fill="#AEBBED"/>
<path d="M114.473 154.067H110.737V154.996H114.473V154.067Z" fill="#AEBBED"/>
<path d="M114.473 156.185H110.737V157.114H114.473V156.185Z" fill="#E8ECFA"/>
<path d="M114.473 158.301H110.737V159.231H114.473V158.301Z" fill="#E8ECFA"/>
<path d="M57.0328 139.667H79.6573V125.304H57.0328V139.667Z" fill="#FEC95C"/>
<path d="M71.3547 129.936C71.3547 130.919 70.5576 131.715 69.575 131.715C68.5923 131.715 67.7952 130.919 67.7952 129.936C67.7952 128.952 68.5923 128.156 69.575 128.156C70.5576 128.156 71.3547 128.952 71.3547 129.936Z" fill="#FCFDFE"/>
<path d="M75.3706 130.999C74.7835 130.999 74.3062 130.522 74.3062 129.936C74.3062 129.35 74.7835 128.873 75.3706 128.873C75.9564 128.873 76.4338 129.35 76.4338 129.936C76.4338 130.522 75.9564 130.999 75.3706 130.999ZM75.3706 128.156C74.3879 128.156 73.5908 128.952 73.5908 129.936C73.5908 130.919 74.3879 131.715 75.3706 131.715C76.3521 131.715 77.1492 130.919 77.1492 129.936C77.1492 128.952 76.3521 128.156 75.3706 128.156Z" fill="#FCFDFE"/>
<path d="M77.1492 135.035C77.1492 136.018 76.3521 136.815 75.3706 136.815C74.3879 136.815 73.5908 136.018 73.5908 135.035C73.5908 134.052 74.3879 133.256 75.3706 133.256C76.3521 133.256 77.1492 134.052 77.1492 135.035Z" fill="#FCFDFE"/>
<path d="M64.224 126.921H59.3784V127.85H64.224V126.921Z" fill="#FCFDFE"/>
<path d="M64.224 132.021H59.3784V132.951H64.224V132.021Z" fill="#FCFDFE"/>
<path d="M64.224 137.121H59.3784V138.05H64.224V137.121Z" fill="#FCFDFE"/>
<path d="M64.224 134.57H59.3784V135.499H64.224V134.57Z" fill="#FCFDFE"/>
<path d="M64.224 129.472H59.3784V130.401H64.224V129.472Z" fill="#FCFDFE"/>
<path d="M69.575 133.256C68.5923 133.256 67.7952 134.052 67.7952 135.035C67.7952 135.049 67.7999 135.062 67.7999 135.075H69.5645V136.814C70.5576 136.815 71.3547 136.018 71.3547 135.035C71.3547 134.052 70.5576 133.256 69.575 133.256Z" fill="#FCFDFE"/>
<path d="M207.385 101.571L206.724 101.566L206.745 98.8657L207.404 98.8704L207.385 101.571Z" fill="#CFD5ED"/>
<path d="M210.472 101.683L209.814 101.678L209.833 98.8877L210.492 98.8924L210.472 101.683Z" fill="#CFD5ED"/>
<path d="M206.715 103.075L206.712 103.367C206.709 103.703 206.979 103.977 207.316 103.98L209.848 103.998C210.184 104.001 210.458 103.73 210.461 103.394L210.464 103.102L206.715 103.075Z" fill="#CFD5ED"/>
<path d="M210.476 101.319L210.464 103.102L206.715 103.075L206.727 101.292L210.476 101.319Z" fill="#F1F3FA"/>
<mask id="mask0_312_404" style="mask-type:luminance" maskUnits="userSpaceOnUse" x="197" y="75" width="24" height="24">
<path d="M197.016 75.4731H220.268V98.8363H197.016V75.4731Z" fill="white"/>
</mask>
<g mask="url(#mask0_312_404)">
<path d="M220.268 84.4687C220.234 89.2139 216.66 93.469 213.593 96.7052C212.879 97.458 211.645 97.6074 211.588 98.7884L205.712 98.7464C205.952 97.3576 204.433 97.3961 203.725 96.6364C200.689 93.3745 197.141 89.1066 197.175 84.3041C197.217 78.4315 202.912 75.5431 208.783 75.5839C214.654 75.6259 220.309 78.5961 220.268 84.4687Z" fill="#EAEDFF"/>
</g>
<path d="M208.783 75.5843C203.792 75.5493 198.947 78.4459 198.905 84.3174C198.865 90.239 203.456 95.3413 206.147 98.7491L211.141 98.7853C213.881 95.416 218.493 90.302 218.535 84.4562C218.576 78.586 213.775 75.6205 208.783 75.5843Z" fill="#DBE0FF"/>
<path d="M208.783 75.5841C205.553 75.5619 202.412 78.4702 202.369 84.3417C202.328 90.2633 205.286 95.354 207.02 98.7559L210.25 98.7781C212.032 95.4018 215.029 90.2773 215.071 84.4315C215.112 78.5601 212.014 75.6075 208.783 75.5841Z" fill="#EAEDFF"/>
<path d="M209.255 75.6098L209.213 75.6051C208.927 75.5806 208.639 75.5782 208.351 75.5992L208.313 75.6027C207.656 76.5959 207.022 79.7796 206.987 84.3743C206.946 90.2959 207.727 95.3714 208.181 98.7641L209.063 98.7699C209.566 95.3854 210.41 90.2446 210.453 84.3988C210.494 78.5274 209.951 76.6391 209.255 75.6098Z" fill="#DBE0FF"/>
<path d="M213.593 96.7056C212.96 97.3708 212.227 98.1212 211.647 98.7257C211.504 98.874 211.308 98.9557 211.104 98.9545L206.193 98.9195C205.988 98.9171 205.793 98.8331 205.653 98.6837C205.079 98.071 204.351 97.3078 203.725 96.6367L213.593 96.7056Z" fill="#F1F3FA"/>
<path d="M124.801 68.5983L124.344 68.5948L124.357 66.7217L124.815 66.7252L124.801 68.5983Z" fill="#CFD5ED"/>
<path d="M126.943 68.6765L126.485 68.673L126.499 66.7368L126.957 66.7403L126.943 68.6765Z" fill="#CFD5ED"/>
<path d="M124.335 69.6416L124.333 69.8435C124.332 70.0769 124.52 70.2671 124.753 70.2683L126.508 70.2811C126.742 70.2835 126.932 70.0956 126.934 69.8622L126.936 69.6591L124.335 69.6416Z" fill="#CFD5ED"/>
<path d="M126.945 68.423L126.936 69.6589L124.335 69.6414L124.345 68.4043L126.945 68.423Z" fill="#F1F3FA"/>
<mask id="mask1_312_404" style="mask-type:luminance" maskUnits="userSpaceOnUse" x="117" y="50" width="17" height="17">
<path d="M117.714 50.5425H133.847V66.9232H117.714V50.5425Z" fill="white"/>
</mask>
<g mask="url(#mask1_312_404)">
<path d="M133.736 56.7385C133.713 60.0296 131.233 62.9811 129.105 65.2253C128.611 65.747 127.756 65.8509 127.715 66.669L123.641 66.641C123.807 65.677 122.753 65.7038 122.263 65.1763C120.158 62.9146 117.696 59.9549 117.721 56.6242C117.75 52.5523 121.698 50.5473 125.771 50.5765C129.843 50.6057 133.765 52.6655 133.736 56.7385Z" fill="#EAEDFF"/>
</g>
<mask id="mask2_312_404" style="mask-type:luminance" maskUnits="userSpaceOnUse" x="118" y="50" width="15" height="17">
<path d="M118.909 50.5425H132.652V66.9232H118.909V50.5425Z" fill="white"/>
</mask>
<g mask="url(#mask2_312_404)">
<path d="M125.771 50.5764C122.31 50.5519 118.95 52.5615 118.921 56.6334C118.891 60.7403 122.076 64.2788 123.942 66.642L127.406 66.6677C129.307 64.3301 132.505 60.7834 132.534 56.7303C132.562 52.6572 129.233 50.6009 125.771 50.5764Z" fill="#DBE0FF"/>
</g>
<mask id="mask3_312_404" style="mask-type:luminance" maskUnits="userSpaceOnUse" x="121" y="50" width="10" height="17">
<path d="M121.299 50.5425H130.262V66.9232H121.299V50.5425Z" fill="white"/>
</mask>
<g mask="url(#mask3_312_404)">
<path d="M125.772 50.5763C123.532 50.5611 121.352 52.5778 121.324 56.6496C121.295 60.7565 123.347 64.288 124.549 66.6466L126.788 66.6629C128.025 64.3206 130.104 60.767 130.132 56.7126C130.161 52.6408 128.011 50.5926 125.772 50.5763Z" fill="#EAEDFF"/>
</g>
<mask id="mask4_312_404" style="mask-type:luminance" maskUnits="userSpaceOnUse" x="124" y="50" width="3" height="17">
<path d="M124.286 50.5425H126.975V66.9232H124.286V50.5425Z" fill="white"/>
</mask>
<g mask="url(#mask4_312_404)">
<path d="M126.097 50.5928L126.069 50.5904C125.87 50.5729 125.671 50.5718 125.472 50.5858L125.444 50.5881C124.989 51.2767 124.549 53.4859 124.526 56.6719C124.496 60.7788 125.038 64.2986 125.353 66.6514L125.965 66.6549C126.314 64.308 126.899 60.7426 126.929 56.6894C126.957 52.6176 126.581 51.307 126.097 50.5928Z" fill="#DBE0FF"/>
</g>
<path d="M129.105 65.2243C128.667 65.6853 128.16 66.2058 127.756 66.6248C127.658 66.7275 127.521 66.7847 127.379 66.7823L123.975 66.759C123.832 66.7578 123.698 66.6995 123.6 66.5956C123.202 66.1708 122.697 65.6421 122.263 65.1753L129.105 65.2243Z" fill="#F1F3FA"/>
<path d="M98.553 74.9936H118.049C118.049 74.9936 115.884 70.5996 112.467 70.5996C109.049 70.5996 108.3 72.5182 108.3 72.5182C108.3 72.5182 107.829 70.5179 105.307 70.5996C102.784 70.6813 98.553 74.9936 98.553 74.9936Z" fill="#E8ECFA"/>
<path d="M200.239 66.2409C198.878 66.1977 198.088 66.731 197.638 67.2597C196.255 65.8067 194.362 64.4669 192.086 64.4669C187.116 64.4669 186.027 67.2562 186.027 67.2562C186.027 67.2562 185.341 64.3479 181.673 64.4669C178.003 64.5848 171.85 70.8566 171.85 70.8566H207.334C207.334 70.8566 202.89 66.3272 200.239 66.2409Z" fill="#EFF2FC"/>
<path d="M35.4842 63.2918C36.5742 63.2567 37.2056 63.6827 37.5651 64.1064C38.6726 62.944 40.1863 61.8715 42.008 61.8715C45.9842 61.8715 46.8548 64.104 46.8548 64.104C46.8548 64.104 47.4045 61.7769 50.3396 61.8715C53.2748 61.966 58.1986 66.9843 58.1986 66.9843H29.8088C29.8088 66.9843 33.3648 63.3606 35.4842 63.2918Z" fill="#EFF2FC"/>
<path d="M167.399 66.4075L168.233 63.435L167.651 62.0859L166.697 62.4489L165.285 65.7015L167.399 66.4075Z" fill="#F49D64"/>
<path d="M163.143 77.8843C164.966 76.6472 168.379 65.3082 168.379 65.3082C168.168 64.7748 167.796 64.4597 167.39 64.2718C167.24 64.2053 167.089 64.1551 166.938 64.1189C166.196 63.9474 165.49 64.0956 165.49 64.0956L160.645 71.3862L152.034 69.6589L153.793 72.1109L153.795 73.6923C153.795 73.6923 161.324 79.1249 163.143 77.8843Z" fill="#AEBBED"/>
<path d="M161.534 75.2295C162.422 74.6915 166.485 66.724 167.39 64.272C167.24 64.2055 167.089 64.1553 166.938 64.1191C165.109 69.0768 161.825 74.4966 161.288 74.8175C160.825 75.0999 157.638 73.4054 154.748 71.5684C154.569 71.4576 154.388 71.3409 154.214 71.2265L153.956 71.6256C154.117 71.7318 154.318 71.8579 154.553 72.0049C156.509 73.2548 160.662 75.757 161.534 75.2295Z" fill="#9198D4"/>
<path d="M168.233 63.4354C170.457 62.455 172.957 62.9604 173.094 62.3162C173.222 61.7105 167.963 59.9249 167.125 60.9145C166.43 61.7373 166.55 62.5601 166.55 62.5601C167.7 62.3068 168.233 63.4354 168.233 63.4354Z" fill="#20158A"/>
<path d="M172.409 77.8413L175.41 77.8483L176.331 76.2809L174.073 76.0825H172.347L172.409 77.8413Z" fill="#F49D64"/>
<path d="M172.903 76.2703C172.907 76.4104 172.903 76.5434 172.896 76.6648C172.846 77.3872 172.621 77.8423 172.621 77.8423H150.057L149.692 76.8002L149.115 75.7837L149.026 75.6261L148.087 73.9712L148.027 73.8674L147.826 73.5056L147.783 73.4344L147.518 72.9652C147.564 72.5929 147.736 72.1168 147.958 71.6324C148.696 70.0429 150.505 69.2482 152.181 69.7745L160.823 73.9397L172.621 74.8197C172.822 75.3542 172.896 75.8443 172.903 76.2703Z" fill="#E8ECFA"/>
<path d="M172.904 76.2704C172.907 76.4105 172.904 76.5435 172.897 76.6649L163.47 76.5108C161.847 76.4817 160.225 76.3031 158.642 75.9728C153.739 74.9528 150.054 74.2187 148.027 73.8675C147.021 73.6924 146.422 73.6072 146.29 73.6282L146.271 73.5022L146.117 73.2874C146.174 73.2454 146.261 73.1801 147.783 73.4345C149.363 73.6924 152.486 74.2899 158.72 75.59C160.28 75.9133 161.88 76.0919 163.474 76.1164L172.904 76.2704Z" fill="#C8D1F3"/>
<path d="M153.393 77.8413L153.723 77.4398C154.478 76.5202 154.647 75.2166 154.059 74.1802C154.054 74.1721 154.05 74.1651 154.045 74.1569C153.837 73.7974 153.542 73.5045 153.218 73.2466C152.948 73.033 152.747 72.7401 152.654 72.4005C152.564 72.0854 152.395 71.7154 152.084 71.3373C151.248 70.329 149.389 70.7584 149.245 70.7736L148.845 75.6262L148.936 75.7838L149.513 76.8014L150.118 77.8343L153.393 77.8413Z" fill="#C8D1F3"/>
<path d="M175.41 77.8482L180.152 77.8412C180.355 77.3266 175.694 74.7124 174.808 75.4616C174.073 76.0825 174.073 76.0825 174.073 76.0825C175.124 76.03 175.41 77.8482 175.41 77.8482Z" fill="#20158A"/>
<path d="M131.395 72.5812C129.692 72.9325 128.574 74.4917 128.899 76.0613C129.224 77.6322 130.869 78.6195 132.571 78.2671C133.859 78.001 135.505 78.078 135.058 75.9155L137.32 74.7799L136.823 72.377L134.439 73.5382C133.736 72.7399 132.581 72.3349 131.395 72.5812Z" fill="#F49D64"/>
<path d="M131.107 78.2453C130.661 76.0932 132.112 76.1551 133.064 75.9847C133.412 75.9228 133.568 74.5037 134.439 73.5385C134.439 73.5385 133.403 71.8522 131.998 72.1463C130.781 72.4007 129.383 72.9445 128.882 73.7836C128.379 74.6286 128.775 77.0607 128.829 77.943C128.846 78.2686 128.822 78.5931 128.784 78.9128C129.654 79.4602 131.107 78.2453 131.107 78.2453Z" fill="#FEC95C"/>
<path d="M133.039 75.0801C133.437 74.9985 133.827 75.254 133.91 75.652C133.992 76.0511 133.736 76.4398 133.338 76.5226C132.939 76.6043 132.55 76.3487 132.467 75.9508C132.386 75.5528 132.641 75.163 133.039 75.0801Z" fill="#F49D64"/>
<path d="M129.539 89.8865C129.704 89.604 130.081 89.0088 130.149 88.5432C130.161 88.4498 130.16 88.3564 130.153 88.2631C129.72 88.4708 129.238 88.6377 129.083 88.4463C128.778 88.0729 130.374 87.166 130.374 87.166C130.755 86.9081 131.263 86.7949 131.263 86.7949C131.583 86.5732 134.575 82.541 134.575 82.541L136.209 84.2111L133.228 86.8474C133.064 87.0213 132.946 87.2326 132.881 87.466C132.791 87.8044 132.701 88.1604 132.555 88.4848C132.56 88.4837 131.756 90.2331 130.969 90.407C130.72 90.4618 130.243 90.456 129.843 90.4385C129.566 90.4256 129.402 90.1257 129.539 89.8865Z" fill="#F49D64"/>
<path d="M135.372 72.5063L135.937 72.7106L135.778 72.8856L135.372 73.0829C135.35 73.021 135.324 72.9277 135.322 72.8121C135.32 72.6791 135.348 72.5729 135.372 72.5063Z" fill="#20158A"/>
<path d="M135.009 85.8835L136.9 83.7945C137.915 82.212 139.402 79.802 140.223 78.0327C140.498 77.4399 141.112 77.0839 141.763 77.1283C143.581 77.2508 147.209 77.4994 149.851 77.6966C150.721 77.7585 151.5 77.1808 151.696 76.3323C151.863 75.6029 151.985 74.7323 151.99 73.6259C151.99 73.0273 151.936 72.5021 151.85 72.0388C151.793 71.733 151.578 71.0211 151.369 70.3559C151.102 69.5168 150.294 68.5936 149.457 68.8784C142.91 71.1028 140.891 69.7782 138.433 70.6698C135.874 71.5999 135.372 72.5067 135.372 72.5067C136.402 73.2198 135.922 74.1044 136.336 74.7452C136.419 75.0999 136.489 75.3975 136.528 75.5808V75.8994C136.529 76.2822 136.452 76.6615 136.301 77.0127C135.661 78.5136 135.265 80.3995 134.548 82.0229L132.916 84.2718C132.916 84.2718 133.398 85.7936 135.009 85.8835Z" fill="#0031A4"/>
<path d="M140.33 77.8412C139.623 79.3607 138.303 81.5081 137.297 83.1723C138.077 81.3261 139.048 78.9826 139.558 77.2472C139.745 76.6112 140.318 76.2657 140.961 76.1012C142.788 75.6332 143.615 76.3509 145.608 76.2377C146.323 76.1969 146.913 74.7894 148.15 74.4801C149.571 74.1254 150.7 75.5235 151.86 75.4535C151.789 75.9331 151.695 76.3614 151.59 76.7489C151.422 77.3628 150.692 77.8903 150.057 77.8424L140.33 77.8412Z" fill="#20158A"/>
<path d="M173.376 183.979V190.501H127.91V145.082H134.402V151.573H140.89V158.061H147.382V164.548H153.871V171.038H160.359L160.397 177.491H166.888V183.979H173.376Z" fill="#C8D1F3"/>
<path d="M184.027 135.312V133.521H200.858V135.312H184.027Z" fill="#AEBBED"/>
<path d="M184.027 145.188V143.398H200.858V145.188H184.027Z" fill="#AEBBED"/>
<path d="M184.027 155.063V153.271H200.858V155.063H184.027Z" fill="#AEBBED"/>
<path d="M184.027 164.406V162.616H200.858V164.406H184.027Z" fill="#AEBBED"/>
<path d="M184.358 173.09V171.299H201.19V173.09H184.358Z" fill="#AEBBED"/>
<path d="M184.358 181.774V179.984H201.19V181.774H184.358Z" fill="#AEBBED"/>
<path d="M199.632 190.501H197.841V129.724H199.632V190.501Z" fill="#C8D1F3"/>
<path d="M187.045 190.501H185.253V129.539H187.045V190.501Z" fill="#C8D1F3"/>
<path d="M194.25 100.222L190.846 103.085L192.383 104.713C192.383 104.713 197.579 101.953 197.839 100.774C198.103 99.5952 193.871 93.9863 193.871 93.9863L191.259 98.2624C192.633 99.175 194.25 100.222 194.25 100.222Z" fill="#009250"/>
<path d="M195.593 126.866L197.038 129.313L198.363 130.117L198.735 128.624L197.58 125.926L195.593 126.866Z" fill="#F49D64"/>
<path d="M198.591 127.154C198.591 127.154 198.21 127.691 197.472 128.111C197.341 128.19 197.201 128.26 197.053 128.326C196.642 128.503 196.156 128.623 195.591 128.623C195.591 128.623 190.974 120.736 189.845 117.56C188.706 114.378 186.957 106.286 186.957 106.286L187.396 105.982L190.927 103.511C192.383 103.235 193.559 101.463 194.001 102.979C194.001 102.979 194.603 106.85 194.599 107.48L194.454 116.37L198.591 127.154Z" fill="#FF9134"/>
<path d="M197.472 128.111C197.342 128.19 197.202 128.26 197.053 128.325C195.645 125.167 192.752 118.627 191.983 116.571C191.068 114.127 190.135 107.494 190.135 105.54C190.135 105.185 190.596 105.222 190.596 105.484C190.587 107.344 191.548 114.08 192.417 116.407C193.186 118.445 196.059 124.943 197.472 128.111Z" fill="#FF7344"/>
<path d="M197.038 129.313C196.626 130.694 196.728 132.324 195.874 132.684C195.237 132.953 195.043 133.327 195.191 133.521H196.499C196.81 133.521 197.116 133.437 197.376 133.269C198.721 132.4 199.852 130.679 199.734 129.96C199.565 128.934 198.735 128.625 198.735 128.625C198.201 129.628 197.038 129.313 197.038 129.313Z" fill="#20158A"/>
<path d="M187.847 127.798L188.054 130.67L188.896 131.997L189.905 130.809L190.073 127.84L187.847 127.798Z" fill="#F49D64"/>
<path d="M194.556 108.133L191.463 116.977L190.517 129.436C190.517 129.436 189.057 130.401 187.457 129.579C187.457 129.579 186.067 119.893 186.151 116.478C186.16 116.151 186.169 115.787 186.188 115.391C186.342 112.084 186.836 106.697 186.953 105.442C186.967 105.269 186.976 105.176 186.976 105.176L191.394 102.826C191.799 102.9 192.304 103.119 192.822 103.399C194.506 104.313 195.247 106.342 194.556 108.133Z" fill="#FEC95C"/>
<path d="M189.307 129.949C189.163 129.963 189.006 129.964 188.839 129.945C188.703 126.574 188.429 119.177 188.475 116.937C188.534 114.327 190.124 107.823 190.851 106.007C190.983 105.679 191.398 105.885 191.301 106.125C190.602 107.852 188.998 114.462 188.942 116.946C188.897 119.179 189.173 126.592 189.307 129.949Z" fill="#FF9E22"/>
<path d="M191.403 108.426C191.007 108.768 190.615 108.949 190.28 109.052C189.737 109.201 189.309 109.616 189.113 110.138C188.963 110.554 188.692 111.025 188.208 111.413C188.101 111.5 187.998 111.584 187.9 111.663C187.158 112.275 186.673 113.128 186.515 114.071C186.445 114.495 186.333 114.906 186.211 115.316L186.188 115.391C186.342 112.084 186.836 106.696 186.952 105.442L190.06 105.484C190.862 105.493 191.57 105.819 192.089 106.342C192.117 107.023 192.024 107.904 191.403 108.426Z" fill="#FF9E22"/>
<path d="M188.054 130.67C186.432 132.41 184.027 132.23 184.027 132.874C184.027 133.355 185.084 133.508 185.606 133.534C186.671 133.588 188.372 133.563 189.373 133.541C189.894 133.53 190.297 133.087 190.266 132.568C190.211 131.696 189.905 130.809 189.905 130.809C188.97 131.48 188.054 130.67 188.054 130.67Z" fill="#20158A"/>
<path d="M173.288 104.318C173.564 104.172 174.171 103.879 174.461 103.535C174.518 103.465 174.565 103.389 174.606 103.31C174.149 103.26 173.675 103.151 173.644 102.918C173.585 102.459 175.341 102.529 175.341 102.529C175.78 102.514 176.25 102.677 176.25 102.677C176.622 102.66 181.091 100.896 181.091 100.896L181.574 103.079L177.82 103.714C177.598 103.771 177.396 103.884 177.225 104.041C176.982 104.269 176.728 104.514 176.446 104.703C176.446 104.703 174.912 105.72 174.186 105.464C173.956 105.383 173.571 105.136 173.255 104.92C173.036 104.77 173.054 104.443 173.288 104.318Z" fill="#F49D64"/>
<path d="M192.093 87.9376C191.767 86.1485 190.163 84.9417 188.513 85.2428C186.863 85.5451 185.79 87.2408 186.117 89.0299C186.364 90.3837 186.244 92.1028 188.516 91.6873L189.651 94.0809L192.175 93.6188L191.019 91.0968C191.869 90.3814 192.321 89.184 192.093 87.9376Z" fill="#F49D64"/>
<path d="M194.604 108.255C191.562 109.481 188.571 108.689 186.976 108.054C186.78 107.979 186.608 107.905 186.459 107.835C186.076 107.662 185.866 107.242 185.973 106.842C186.771 103.768 186.618 100.203 186.394 99.8812C186.394 99.8812 186.384 99.8952 186.366 99.9279C186.188 100.245 185.077 102.191 184.453 102.653C183.334 103.483 179.005 103.856 179.005 103.856C178.099 103.025 178.3 101.771 178.3 101.771C178.3 101.771 182.018 100.381 182.367 100.096C183.175 99.4529 184.476 94.9236 185.759 93.9293C186.58 93.2956 187.527 92.8567 188.525 92.6338C188.595 92.5405 188.66 92.4564 188.73 92.4051C189.304 91.9616 190.014 91.7375 190.736 91.7702L191.301 91.7936C191.376 91.7982 191.463 91.8181 191.557 91.8542C191.855 91.9616 192.075 92.1857 192.234 92.4284C192.285 92.5125 192.327 92.5965 192.369 92.6852C193.032 92.9501 193.522 93.4449 193.871 93.9865C194.467 94.9003 194.677 96.0055 194.551 97.0885C194.341 98.9021 194.254 101.062 194.473 103.473C194.599 104.896 194.817 106.202 195.075 107.368C195.158 107.737 194.954 108.11 194.604 108.255Z" fill="#1BB26A"/>
<path d="M188.507 102.709L187.916 103.375C187.381 103.98 187.339 104.839 187.709 105.556C187.851 105.833 187.919 106.125 187.919 106.416C187.919 107.051 187.601 107.662 187.027 108.021L186.976 108.054C186.78 107.979 186.608 107.904 186.459 107.834C186.076 107.662 185.866 107.242 185.973 106.841C186.77 103.767 186.393 99.8809 186.393 99.8809L186.958 98.7827L188.398 100.278C189.025 100.944 189.114 101.996 188.52 102.691C188.516 102.697 188.511 102.703 188.507 102.709Z" fill="#009250"/>
<path d="M186.365 86.963C188.711 86.963 188.645 88.521 188.618 89.5516C188.608 89.9285 190.198 89.9787 191.018 91.0967C191.018 91.0967 191.996 90.5179 192.487 88.9108C192.873 87.6411 192.765 86.0306 191.996 85.3257C191.223 84.6184 188.597 84.5052 187.662 84.371C187.319 84.3185 186.985 84.2228 186.659 84.1143C185.899 84.9044 186.365 86.963 186.365 86.963Z" fill="#5669EF"/>
<path d="M189.58 89.4126C189.655 89.8304 189.379 90.2331 188.96 90.3089C188.542 90.3848 188.141 90.1082 188.064 89.6892C187.988 89.2714 188.264 88.8699 188.683 88.7941C189.101 88.7171 189.503 88.9948 189.58 89.4126Z" fill="#F49D64"/>
<path d="M93.6373 151.614L97.3334 154.088L95.9831 155.875C95.9831 155.875 90.5178 153.697 90.1292 152.553C89.7394 151.41 93.5545 145.51 93.5545 145.51L96.3974 149.341C95.1311 150.397 93.6373 151.614 93.6373 151.614Z" fill="#758BCD"/>
<path d="M103.544 179.368L103.262 182.133L102.415 183.39L101.473 182.215L101.395 179.346L103.544 179.368Z" fill="#F49D64"/>
<path d="M97.7372 179.249L97.582 182.088L96.6729 184.011L95.7509 182.206L95.5875 179.301L97.7372 179.249Z" fill="#F49D64"/>
<path d="M103.263 182.175C103.585 182.53 104.114 183.075 104.549 183.52C104.904 183.882 104.711 184.498 104.213 184.588C103.944 184.637 103.683 184.672 103.509 184.68C101.978 184.756 101.018 184.794 101.025 184.154C101.034 183.417 101.432 182.058 101.432 182.058C102.335 182.705 103.263 182.175 103.263 182.175Z" fill="#20158A"/>
<path d="M95.7509 182.206C95.4276 182.562 94.9001 183.107 94.4637 183.55C94.1089 183.913 94.3014 184.528 94.8009 184.618C95.0694 184.667 95.3296 184.702 95.5035 184.711C97.0347 184.787 97.9952 184.825 97.9882 184.185C97.98 183.448 97.582 182.088 97.582 182.088C96.6787 182.737 95.7509 182.206 95.7509 182.206Z" fill="#20158A"/>
<path d="M103.91 180.255C102.86 180.992 101.078 180.362 101.078 180.362C101.078 180.362 100.85 172.376 100.85 170.049C100.85 167.955 99.6604 164.923 99.5437 164.386C99.4223 164.923 98.8294 167.666 98.8294 169.755C98.8294 172.088 98.0043 180.362 98.0043 180.362C98.0043 180.362 96.2222 180.992 95.1731 180.255C95.1731 180.255 94.8264 171.873 94.8918 169.611C94.9397 168.071 94.5802 164.452 94.5802 161.905C94.5802 160.837 94.6456 159.961 94.8218 159.498C94.8463 159.443 94.8696 159.396 94.8918 159.354C95.4847 158.342 99.5437 158.743 99.5437 158.743C99.5437 158.743 103.639 158.319 104.19 159.354C104.218 159.405 104.241 159.461 104.264 159.526C104.344 159.731 104.409 160.017 104.47 160.361C104.87 162.704 104.889 167.783 104.945 169.675C105.01 171.938 103.91 180.255 103.91 180.255Z" fill="#FA4A56"/>
<path d="M104.47 160.361C104.348 160.581 104.222 160.772 104.096 160.907C102.716 162.442 101.33 161.989 99.2589 161.989C96.6552 161.994 96.381 163.267 94.6689 161.989C94.6362 161.966 94.6082 161.938 94.5802 161.905C94.5802 160.837 94.6456 159.961 94.8218 159.498L95.5033 159.815C96.2456 160.23 97.6682 160.716 100.266 160.716C102.015 160.711 103.242 160.286 104.264 159.526C104.344 159.731 104.409 160.017 104.47 160.361Z" fill="#DE2D47"/>
<path d="M96.9785 138.754C97.2936 137.027 98.8411 135.862 100.434 136.154C102.027 136.445 103.064 138.081 102.747 139.808C102.508 141.115 102.272 142.618 101.043 142.434L100.812 144.684L96.8992 144.239L98.016 141.805C97.1944 141.114 96.758 139.956 96.9785 138.754Z" fill="#F49D64"/>
<path d="M111.415 140.347C111.251 140.625 110.921 141.24 110.554 141.525C110.479 141.582 110.398 141.626 110.314 141.666C110.283 141.191 110.192 140.695 109.951 140.654C109.48 140.574 109.476 142.391 109.476 142.391C109.44 142.845 109.588 143.337 109.588 143.337C109.553 143.721 108.584 146.242 108.584 146.242L110.461 145.62L110.592 145.006C110.661 144.78 110.786 144.574 110.955 144.405C111.204 144.163 111.467 143.911 111.675 143.628C111.675 143.628 112.793 142.086 112.56 141.324C112.486 141.084 112.248 140.674 112.038 140.338C111.893 140.106 111.554 140.11 111.415 140.347Z" fill="#F49D64"/>
<path d="M110.739 145.588C110.739 145.588 108.425 150.994 107.273 151.354C106.121 151.718 103.528 149.774 103.528 149.774L103.346 153.253C103.341 154.013 104.157 156.89 104.544 158.221C104.666 158.64 104.558 159.097 104.246 159.401C104.241 159.41 104.232 159.419 104.222 159.429C103.083 160.478 101.741 161.075 99.6697 161.08C97.0718 161.08 95.648 160.594 94.907 160.179C94.4588 159.927 94.2114 159.433 94.2908 158.929C94.5148 157.464 94.8836 154.093 94.8638 151.821C94.8603 151.209 94.8218 150.678 94.7529 150.281L94.5195 148.98L100.056 143.023L100.191 142.879C100.191 142.879 102.226 142.566 103.239 143.789C104.246 145.015 106.434 148.085 106.434 148.085L108.78 144.507C110.1 144.207 110.739 145.588 110.739 145.588Z" fill="#AEBBED"/>
<path d="M94.5197 141.588C95.0811 140.954 95.7393 133.785 101.017 135.878C102.948 136.644 102.843 138.302 101.605 140.185C99.2334 143.793 101.817 144.521 100.642 147.387C99.4505 150.292 95.5455 151.032 93.1087 149.05C92.2533 148.356 91.6336 147.438 91.5904 146.23C91.5402 144.804 92.5544 143.811 94.5197 141.588Z" fill="#20158A"/>
<path d="M99.7304 149.078C98.9228 151.05 96.8653 152.021 94.8638 151.821C94.8603 151.209 94.8218 150.678 94.7529 150.281L94.5195 148.98L100.056 143.023C98.8715 145.678 100.77 146.541 99.7304 149.078Z" fill="#97A8E0"/>
<path d="M93.8404 147.797C93.5603 146.206 93.6234 144.464 95.4778 141.666C95.8396 141.12 96.2037 137.371 98.3884 135.536C95.2339 136.113 95.0973 141.22 94.5197 141.588C91.8319 143.304 91.5402 144.804 91.5904 146.231C91.6335 147.438 92.2532 148.356 93.1087 149.05C93.691 149.524 94.3563 149.837 95.0483 150.008C94.4461 149.435 94.0015 148.714 93.8404 147.797Z" fill="#0031A4"/>
<path d="M100.642 147.387C101.817 144.521 99.2334 143.793 101.605 140.185C102.843 138.302 102.948 136.644 101.017 135.878C100.006 135.477 99.1377 135.399 98.3884 135.536C96.2037 137.371 95.8396 141.12 95.4778 141.666C93.6234 144.464 93.5603 146.206 93.8404 147.797C94.0015 148.714 94.4461 149.435 95.0483 150.008C97.2564 150.551 99.7352 149.599 100.642 147.387Z" fill="#20158A"/>
<path d="M100.593 140.033C100.519 140.437 100.787 140.823 101.191 140.898C101.594 140.972 101.982 140.704 102.055 140.301C102.129 139.897 101.862 139.509 101.458 139.436C101.054 139.361 100.667 139.63 100.593 140.033Z" fill="#F49D64"/>
<path d="M104.246 159.401L102.833 158.514C102.258 158.156 101.941 157.544 101.941 156.909C101.941 156.602 102.016 156.294 102.174 156.005C102.552 155.309 102.454 154.447 101.932 153.855L101.354 153.201C100.882 152.66 100.752 151.9 101.022 151.237L102.067 148.667L103.528 149.774L103.346 153.253C103.341 154.014 104.157 156.891 104.545 158.221C104.666 158.64 104.559 159.097 104.246 159.401Z" fill="#97A8E0"/>
<path d="M106.43 184.751H92.0559V186.939H94.4472V190.502H96.1488V186.939H102.339V190.502H104.04V186.939H106.43V184.751Z" fill="#C8D1F3"/>
<path d="M123.701 123.45C123.939 123.272 124.468 122.909 124.693 122.543C124.737 122.47 124.77 122.391 124.796 122.31C124.359 122.329 123.897 122.296 123.835 122.081C123.715 121.658 125.375 121.47 125.375 121.47C125.787 121.393 126.252 121.48 126.252 121.48C126.599 121.408 130.552 119.107 130.552 119.107L131.321 121.09L127.88 122.229C127.679 122.315 127.505 122.449 127.366 122.622C127.171 122.872 126.966 123.139 126.729 123.357C126.729 123.357 125.431 124.536 124.71 124.4C124.482 124.355 124.084 124.179 123.755 124.02C123.529 123.912 123.499 123.601 123.701 123.45Z" fill="#F49D64"/>
<path d="M128.728 122.238C128.728 122.238 132.706 121.106 133.604 120.125C133.982 119.72 134.344 118.364 134.616 117.637L132.003 115.424C131.729 116.654 131.484 117.775 131.194 118.116C130.916 118.443 127.695 120.418 127.695 120.418C127.695 120.418 127.732 121.627 128.728 122.238Z" fill="#FF7344"/>
<path d="M119.759 123.385C120.005 123.219 120.548 122.877 120.786 122.521C120.834 122.45 120.87 122.372 120.901 122.293C120.463 122.293 120.002 122.241 119.95 122.024C119.846 121.595 121.515 121.477 121.515 121.477C121.929 121.417 122.39 121.522 122.39 121.522C122.74 121.465 126.784 119.328 126.784 119.328L127.471 121.342L123.985 122.337C123.781 122.416 123.601 122.543 123.457 122.709C123.25 122.951 123.035 123.209 122.789 123.418C122.789 123.418 121.443 124.542 120.729 124.375C120.504 124.323 120.113 124.13 119.791 123.958C119.568 123.839 119.551 123.529 119.759 123.385Z" fill="#F49D64"/>
<path d="M131.427 138.474L133.164 140.874L134.597 141.121L134.861 140.185L133.169 137.256L131.427 138.474Z" fill="#F49D64"/>
<path d="M133.164 140.874C132.752 142.254 132.854 143.885 132.001 144.244C131.362 144.514 131.169 144.887 131.318 145.082H132.626C132.937 145.082 133.242 144.998 133.503 144.83C134.847 143.96 135.979 142.239 135.86 141.52C135.691 140.494 134.861 140.185 134.861 140.185C134.328 141.188 133.164 140.874 133.164 140.874Z" fill="#FA4A56"/>
<path d="M124.519 129.638C124.432 131.738 131.714 139.85 131.714 139.85C132.242 139.991 132.695 139.886 133.07 139.681C133.206 139.604 133.329 139.516 133.443 139.42C133.996 138.95 134.283 138.325 134.283 138.325L130.919 131.413L135.329 128.936L134.128 126.791L133.905 126.393L133.042 124.854C133.042 124.854 124.6 127.539 124.519 129.638Z" fill="#0031A4"/>
<path d="M127.468 129.913C127.377 130.899 131.704 137.595 133.07 139.681C133.206 139.604 133.329 139.516 133.443 139.421C130.682 135.203 127.865 130.552 127.924 129.958C127.971 129.442 131.079 127.964 134.128 126.791C134.315 126.717 134.508 126.645 134.694 126.576L134.534 126.151C134.362 126.216 134.152 126.297 133.905 126.393C131.837 127.183 127.559 128.945 127.468 129.913Z" fill="#20158A"/>
<path d="M135.868 145.461L136.237 148.695L137.303 149.325L138.088 148.834L137.982 145.268L135.868 145.461Z" fill="#F49D64"/>
<path d="M132.668 124.148C132.668 124.148 132.781 131.255 133.046 134.637C133.056 134.738 133.065 134.833 133.073 134.929C133.352 138.17 135.69 147.19 135.69 147.19C136.064 147.331 136.42 147.383 136.748 147.373C136.909 147.373 137.064 147.359 137.206 147.331C138.026 147.181 138.57 146.729 138.57 146.729L138.154 134.838L140.155 126.147C140.616 124.381 139.702 122.537 138.009 121.848C137.493 121.638 136.996 121.482 136.602 121.459L134.001 123.24L133.973 123.254L132.668 124.148Z" fill="#0C61EA"/>
<path d="M135.561 135.755C135.63 137.923 136.434 144.729 136.748 147.373C136.909 147.373 137.065 147.359 137.206 147.331C136.886 144.697 136.082 137.892 136.018 135.742C135.945 133.354 136.85 124.421 137.051 122.468C137.077 122.231 137.091 122.102 137.087 122.088L136.634 122.043C136.626 122.102 136.602 122.353 136.566 122.746C136.311 125.22 135.489 133.423 135.561 135.755Z" fill="#0244D5"/>
<path d="M132.668 124.148C132.668 124.148 132.781 131.255 133.046 134.637L133.745 132.346C133.836 131.291 134.347 130.328 135.164 129.662C135.26 129.584 135.36 129.502 135.47 129.414C135.95 129.046 136.219 128.585 136.37 128.183C136.561 127.672 136.986 127.271 137.516 127.124C137.844 127.028 138.233 126.849 138.625 126.525C139.675 125.65 139.219 123.71 139.205 123.559L134.137 123.157L134.001 123.24L133.973 123.254L132.668 124.148Z" fill="#0244D5"/>
<path d="M135.833 105.909C135.336 104.249 133.693 103.276 132.163 103.735C130.633 104.194 129.796 105.911 130.293 107.569C130.67 108.824 130.737 110.464 132.843 109.832L134.168 111.979L136.508 111.276L135.148 109.011C135.879 108.245 136.18 107.063 135.833 105.909Z" fill="#F49D64"/>
<path d="M125.117 122.345C125.117 122.345 129.175 121.537 130.147 120.632C130.741 120.085 131.69 117.807 131.69 117.807C131.69 117.807 131.69 117.816 131.695 117.835C131.764 118.15 132.407 121.368 132.069 124.129C132.001 124.709 132.344 125.262 132.91 125.426C133.092 125.48 133.297 125.535 133.521 125.59C135.11 125.96 137.662 126.211 140.117 124.988C140.574 124.759 140.779 124.221 140.62 123.737C140.282 122.723 139.967 121.596 139.716 120.359C139.379 118.688 139.209 117.136 139.155 115.736C139.113 114.854 139.113 114.033 139.145 113.284C139.004 112.859 138.25 110.773 136.535 110.353C136.32 110.298 136.124 110.271 135.959 110.285L134.713 110.372C134.625 110.376 134.539 110.385 134.453 110.394C132.955 110.554 131.549 111.198 130.467 112.247C129.362 113.321 128.604 117.743 127.91 118.437C127.604 118.743 124.235 120.446 124.235 120.446C124.235 120.446 124.177 121.66 125.117 122.345Z" fill="#FEC95C"/>
<path d="M131.695 117.835C131.764 118.15 132.407 121.368 132.069 124.129C132.001 124.709 132.344 125.262 132.91 125.426C133.092 125.481 133.297 125.535 133.521 125.59C133.512 125.573 133.503 125.549 133.493 125.531C132.982 124.546 133.042 123.358 133.781 122.528L134.594 121.611C134.598 121.601 134.608 121.597 134.612 121.587C135.429 120.628 135.306 119.177 134.443 118.26L132.462 116.2L131.69 117.807C131.69 117.807 131.69 117.817 131.695 117.835Z" fill="#FF9134"/>
<path d="M139.187 110.445C138.246 110.008 137.427 109.375 136.865 108.521C135.892 107.043 136.067 104.881 134.477 103.765C133.897 103.358 132.661 103.26 131.477 103.25C132.616 103.042 134.06 102.824 134.723 103.145C136.173 103.843 136.32 105.635 137.314 106.712C137.888 107.335 138.642 107.742 139.458 107.97C141.616 108.579 142.747 110.942 141.989 113.043C141.918 113.24 141.804 113.396 141.665 113.523C141.351 112.218 140.496 111.057 139.187 110.445Z" fill="#5669EF"/>
<path d="M134.453 110.394C135.031 111.841 136.115 113.585 137.424 114.279C137.968 114.566 138.465 114.928 138.849 115.406L138.876 115.443C138.962 115.552 139.054 115.653 139.155 115.736C139.113 114.854 139.113 114.033 139.145 113.284C139.004 112.859 138.25 110.773 136.535 110.353C136.32 110.298 136.124 110.271 135.959 110.285L134.713 110.372C134.625 110.376 134.539 110.385 134.453 110.394Z" fill="#FF9134"/>
<path d="M140.358 113.785C140.161 113.711 139.968 113.614 139.786 113.491L139.747 113.465C139.24 113.121 138.657 112.923 138.055 112.81C135.851 112.393 133.43 109.529 133.087 108.386C132.642 106.906 132.464 105.401 130.19 106.083C130.19 106.083 128.692 104.51 129.198 103.522C129.549 103.532 129.897 103.527 130.245 103.476C130.535 103.434 130.977 103.343 131.477 103.25C132.661 103.26 133.897 103.358 134.477 103.765C136.067 104.881 135.891 107.043 136.865 108.521C137.427 109.375 138.245 110.008 139.173 110.438C140.495 111.057 141.351 112.218 141.665 113.523C141.323 113.836 140.814 113.956 140.358 113.785Z" fill="#0031A4"/>
<path d="M133.609 107.568C133.725 107.956 133.506 108.366 133.117 108.481C132.73 108.598 132.32 108.377 132.205 107.99C132.088 107.602 132.309 107.193 132.696 107.077C133.084 106.96 133.493 107.181 133.609 107.568Z" fill="#F49D64"/>
<path d="M136.237 148.695C134.615 150.434 132.208 150.256 132.208 150.899C132.208 151.38 133.266 151.534 133.789 151.559C134.854 151.613 136.554 151.588 137.555 151.566C138.076 151.556 138.48 151.113 138.447 150.593C138.393 149.721 138.088 148.834 138.088 148.834C137.152 149.505 136.237 148.695 136.237 148.695Z" fill="#FA4A56"/>
<path d="M47.6228 174.868L45.0109 175.664L43.5509 175.374L44.2558 174.075L46.8233 172.912L47.6228 174.868Z" fill="#F7B68C"/>
<path d="M45.0109 175.663C44.0259 177.693 44.411 180.027 43.81 180.132C43.2428 180.23 41.7641 175.296 42.7106 174.552C43.496 173.936 44.2558 174.075 44.2558 174.075C43.9815 175.132 45.0109 175.663 45.0109 175.663Z" fill="#DBE1F7"/>
<path d="M53.6938 162.623C53.6938 162.623 59.2992 169.405 58.2407 171.204C57.181 173.003 46.4359 175.862 46.4359 175.862C44.732 175.104 45.4089 173.207 45.4089 173.207L51.9363 169.24L49.5835 164.801L53.6938 162.623Z" fill="#FF9134"/>
<path d="M49.7188 183.447L48.7723 186.293L47.6006 186.962L47.0754 185.605L47.6881 182.867L49.7188 183.447Z" fill="#F49D64"/>
<path d="M46.7533 165.438L48.2682 172.736L46.9015 184.139C46.9015 184.139 47.2377 184.606 47.9145 184.797C48.0499 184.833 48.1993 184.86 48.3627 184.869C48.7081 184.892 49.1154 184.833 49.5881 184.634C49.5881 184.634 53.0169 175.312 53.2118 172.077C53.2165 171.978 53.2258 171.873 53.2305 171.765C53.367 168.422 52.759 161.977 52.759 161.977H49.5333C49.3792 161.977 49.2298 161.989 49.0851 162.017C48.4992 162.117 47.9822 162.39 47.5784 162.784C46.898 163.433 46.5444 164.417 46.7533 165.438Z" fill="#FEC95C"/>
<path d="M47.9146 184.797C48.0499 184.833 48.1993 184.86 48.3627 184.869C49.0396 181.657 50.4996 174.608 50.817 172.454C51.1846 169.941 49.9371 163.835 49.5333 161.976C49.4609 161.64 49.4154 161.44 49.4107 161.431L48.9754 161.558C48.9894 161.613 49.0303 161.772 49.0851 162.017C49.4737 163.786 50.7178 169.995 50.3689 172.386C50.0503 174.536 48.5856 181.598 47.9146 184.797Z" fill="#FF9E22"/>
<path d="M48.218 164.821C48.5984 165.156 48.9801 165.338 49.3068 165.442C49.8285 165.596 50.2405 166.004 50.4225 166.516C50.5638 166.92 50.8217 167.384 51.2885 167.764C51.3935 167.85 51.4892 167.937 51.5838 168.014C52.2968 168.617 52.759 169.456 52.9002 170.372C52.9632 170.785 53.0683 171.185 53.1815 171.588L53.2305 171.765C53.367 168.422 52.759 161.977 52.759 161.977H49.5659C48.7852 161.977 48.0908 162.285 47.5784 162.784C47.5423 163.446 47.624 164.304 48.218 164.821Z" fill="#FF9E22"/>
<path d="M48.7723 186.293C49.1842 187.674 49.0815 189.305 49.9358 189.665C50.573 189.933 50.7679 190.308 50.6185 190.501H49.3103C48.9998 190.501 48.6392 190.483 48.4338 190.251C46.6926 188.277 45.8453 187.63 46.0764 186.94C46.3728 186.055 47.0754 185.604 47.0754 185.604C47.6087 186.608 48.7723 186.293 48.7723 186.293Z" fill="#DBE1F7"/>
<path d="M47.7687 145.051C47.7687 143.33 49.0559 141.935 50.6431 141.935C52.2303 141.935 53.5164 143.33 53.5164 145.051C53.5164 146.352 53.9214 147.933 51.7355 147.933L51.0878 150.353H48.6591L49.3069 147.808C48.393 147.288 47.7687 146.249 47.7687 145.051Z" fill="#F49D64"/>
<path d="M57.3525 144.641L59.2536 146.143L61.6461 142.78C61.8071 142.591 62.0137 142.446 62.2471 142.353C62.5855 142.224 62.9438 142.091 63.2624 141.906C63.2624 141.91 63.7946 141.575 63.9347 141.286C64.056 141.084 64.2976 140.999 64.2941 140.52C64.2894 140.404 64.2533 140.307 64.2533 140.307C64.2533 140.307 64.1972 139.919 63.895 139.763C64.2334 139.436 64.7983 139.011 64.6477 138.667C64.5065 138.347 63.057 139.441 62.6906 139.663L61.9938 139.665L61.6507 140.271C61.6146 140.327 61.5784 140.383 61.5457 140.44L61.3765 140.757C61.1839 141.112 57.3525 144.641 57.3525 144.641Z" fill="#F49D64"/>
<path d="M43.1729 156.923C43.1332 157.476 43.9408 158.306 44.7204 158.974C44.9748 159.191 45.2245 159.391 45.4416 159.554C45.8232 159.844 46.0952 160.034 46.0952 160.034L46.2177 162.988C46.1862 163.101 46.1675 163.215 46.1675 163.323C46.1675 163.831 46.499 164.299 47.0066 164.443C49.0163 165.001 50.8171 164.612 52.1148 164.085C52.605 163.886 53.0216 163.664 53.3531 163.468C53.8479 163.174 54.0661 162.584 53.9296 162.027C53.2574 159.282 53.8747 156.461 54.0743 156.152C54.4781 155.521 54.7372 154.718 54.4734 153.993C54.4151 153.829 54.3427 153.68 54.2599 153.539C53.9833 153.076 54.0241 152.5 54.4151 152.129C55.5354 151.076 56.6605 149.811 57.6268 148.631C57.7085 148.532 57.7902 148.432 57.8719 148.328C59.3646 146.494 60.4301 144.962 60.4301 144.962C60.1943 143.389 58.4974 143.044 58.4974 143.044L53.3939 148.273C52.9808 148.749 52.3867 149.03 51.7612 149.054L51.6573 149.063L50.8626 149.126L50.5906 149.148L50.3281 149.171L48.658 149.303C47.8142 149.371 47.0521 149.707 46.4348 150.219L46.3986 150.25C46.3309 150.309 46.2667 150.377 46.199 150.446C46.199 150.446 45.1603 152.482 44.3037 154.283C44.1987 154.501 44.0983 154.718 44.0038 154.923C43.8859 155.163 43.7821 155.394 43.6817 155.612C43.3864 156.266 43.1822 156.764 43.1729 156.923Z" fill="#0C61EA"/>
<path d="M44.0037 154.923C44.5615 155.014 45.1415 154.927 45.6644 154.692C46.2036 154.451 46.675 154.052 46.9972 153.512C47.0018 153.493 47.0112 153.485 47.0158 153.475C47.3519 152.904 47.8363 152.446 48.3673 152.047C49.5518 151.162 49.9276 150.682 50.3279 149.171L48.6579 149.303C47.8141 149.371 47.052 149.707 46.4346 150.219L46.3985 150.25C46.3308 150.309 46.2666 150.377 46.1989 150.446C46.1989 150.446 45.1602 152.482 44.3036 154.283C44.1986 154.501 44.0982 154.718 44.0037 154.923Z" fill="#0244D5"/>
<path d="M52.1147 164.085C52.6049 163.886 53.0215 163.664 53.353 163.468C53.8478 163.174 54.066 162.585 53.9295 162.027C53.2573 159.282 53.8746 156.461 54.0742 156.152C54.478 155.522 54.7371 154.719 54.4733 153.993C54.415 153.829 54.3426 153.68 54.2598 153.539C53.9832 153.077 54.024 152.5 54.415 152.129C55.5353 151.076 56.6604 149.811 57.6267 148.631C57.7084 148.532 57.7901 148.432 57.8718 148.328C58.0165 148.146 58.1612 147.96 58.3071 147.779C56.8868 149.208 55.3813 150.632 53.7754 151.848C53.2759 152.233 53.1534 152.899 53.4171 153.476C53.4977 153.653 53.5665 153.834 53.612 154.038C53.8303 154.913 53.507 155.889 52.8815 156.51C52.2968 157.087 51.6386 158.193 52.4823 160.297C52.976 161.541 51.9151 162.793 52.1147 164.085Z" fill="#0244D5"/>
<path d="M43.8496 159.183L46.4265 156.636L46.0868 155.104L43.8496 159.183Z" fill="#FF9134"/>
<path d="M46.4265 156.636L40.8795 156.86L41.6381 166.343L46.8735 166.022L46.7766 165.55C46.6226 164.978 46.7089 164.484 46.7416 164.329C46.5491 163.999 46.248 163.488 46.2106 162.821C46.1511 161.777 46.7323 160.242 46.7101 159.669C46.6576 158.349 46.4265 156.636 46.4265 156.636Z" fill="#AEBBED"/>
<path d="M43.6408 147.661C44.3084 147.239 44.8627 146.682 45.2035 145.984C45.7917 144.776 46.6798 143.577 47.7687 142.582C48.4876 141.925 49.692 141.406 50.5603 141.28C50.9594 141.22 51.3445 141.105 51.725 140.969C52.1101 140.834 52.6785 140.755 53.234 141.125C53.2912 141.163 53.339 141.206 53.3845 141.252C53.0788 141.352 52.7718 141.441 52.4521 141.488C51.5838 141.614 50.3794 142.133 49.6616 142.79C48.5728 143.784 47.6847 144.984 47.0953 146.192C46.7545 146.89 46.2002 147.447 45.5443 147.862C43.81 148.965 43.4389 151.339 44.6573 152.985C44.8651 153.267 45.123 153.481 45.4089 153.638C44.4601 153.9 43.3922 153.626 42.7655 152.778C41.546 151.131 41.9171 148.757 43.6408 147.661Z" fill="#FA4A56"/>
<path d="M44.6573 152.985C43.4389 151.339 43.81 148.965 45.5337 147.869C46.2001 147.447 46.7545 146.89 47.0952 146.192C47.6846 144.984 48.5727 143.784 49.6616 142.79C50.3793 142.133 51.5837 141.614 52.452 141.488C52.7718 141.441 53.0787 141.352 53.3845 141.252C54.0894 141.986 53.2024 143.634 53.2024 143.634C51.0259 143.634 51.2499 145.131 51.2499 146.549C51.2499 147.638 49.8938 150.762 48.0814 151.727C47.5714 151.999 47.0941 152.326 46.7299 152.773C46.7229 152.781 46.7171 152.789 46.7101 152.798C46.3623 153.222 45.9013 153.501 45.4088 153.638C45.1229 153.481 44.865 153.267 44.6573 152.985Z" fill="#DE2D47"/>
<path d="M50.5216 146.143C50.5216 146.546 50.8472 146.872 51.2498 146.872C51.6525 146.872 51.9781 146.546 51.9781 146.143C51.9781 145.742 51.6525 145.416 51.2498 145.416C50.8472 145.416 50.5216 145.742 50.5216 146.143Z" fill="#F49D64"/>
<path d="M138.943 169.148C139.92 168.659 141.058 168.242 141.837 167.452C143.071 166.201 143.361 164.28 142.592 162.708C141.614 163.196 140.476 163.615 139.699 164.404C138.464 165.655 138.174 167.576 138.943 169.148Z" fill="#1BB26A"/>
<path d="M141.966 164.022C141.569 164.795 141.104 165.519 140.622 166.234C140.13 166.943 139.623 167.64 139.045 168.288C139.441 167.514 139.906 166.789 140.389 166.075C140.881 165.368 141.388 164.671 141.966 164.022Z" fill="#00A45C"/>
<path d="M140.026 173.679C138.782 173.057 137.334 172.525 136.343 171.522C134.771 169.929 134.404 167.482 135.383 165.481C136.626 166.103 138.074 166.635 139.066 167.64C140.638 169.232 141.006 171.678 140.026 173.679Z" fill="#1BB26A"/>
<path d="M136.07 167.326C136.864 168.122 137.555 168.993 138.219 169.882C138.875 170.781 139.502 171.697 140.028 172.69C139.233 171.895 138.543 171.025 137.879 170.134C137.226 169.235 136.597 168.319 136.07 167.326Z" fill="#00A45C"/>
<path d="M138.457 179.532C139.882 178.82 141.542 178.21 142.678 177.059C144.48 175.233 144.901 172.431 143.78 170.136C142.353 170.849 140.693 171.459 139.557 172.609C137.756 174.436 137.334 177.239 138.457 179.532Z" fill="#1BB26A"/>
<path d="M143.163 171.95C142.545 173.123 141.831 174.221 141.067 175.287C140.293 176.345 139.487 177.378 138.541 178.313C139.124 177.118 139.849 176.026 140.61 174.957C140.999 174.429 141.393 173.905 141.814 173.401C142.237 172.897 142.665 172.395 143.163 171.95Z" fill="#00A45C"/>
<path d="M139.432 183.125C137.942 182.559 136.229 182.121 134.982 181.09C133.007 179.455 132.304 176.709 133.19 174.313C134.68 174.878 136.393 175.318 137.64 176.348C139.616 177.983 140.318 180.731 139.432 183.125Z" fill="#1BB26A"/>
<path d="M133.84 175.744C134.821 176.598 135.668 177.561 136.483 178.55C137.284 179.55 138.054 180.576 138.688 181.711C137.706 180.858 136.86 179.894 136.046 178.906C135.245 177.904 134.476 176.879 133.84 175.744Z" fill="#00A45C"/>
<path d="M144.839 180.356V181.612H143.805L143.497 182.814L141.541 190.502H135.314L133.256 182.814L132.933 181.612H131.9V180.356H144.839Z" fill="#FF9134"/>
<path d="M143.805 181.612L143.497 182.814H133.256L132.933 181.612H143.805Z" fill="#FF7344"/>
<path d="M152.21 179.528C152.524 179.136 152.729 178.668 152.75 178.174C152.786 177.326 152.159 176.442 151.354 175.891C152.194 175.231 152.14 173.927 151.491 173.071C150.836 172.208 149.405 171.934 148.541 172.589C147.678 173.245 147.616 174.975 148.27 175.838C148.308 175.886 148.356 175.919 148.398 175.962C147.798 176.535 147.397 177.412 147.362 178.209C147.338 178.778 147.557 179.282 147.919 179.682C147.292 180.404 146.883 181.392 146.843 182.296C146.768 184.015 148.435 185.292 150.153 185.367C151.872 185.441 153.656 183.97 153.731 182.252C153.774 181.261 153.109 180.234 152.21 179.528Z" fill="#1BB26A"/>
<path d="M150.271 182.505C150.252 181.94 150.23 181.376 150.208 180.809C150.196 180.576 150.191 180.342 150.181 180.103C150.177 180.056 150.18 180.005 150.176 179.958C150.173 179.918 150.175 179.871 150.172 179.829C150.791 178.929 151.391 178.012 151.946 177.052C151.569 177.393 150.865 178.321 150.148 179.305C150.116 178.495 150.09 177.692 150.047 176.882C150.04 176.689 150.027 176.497 150.015 176.305C150.026 176.29 150.036 176.281 150.043 176.266C150.442 175.666 150.821 175.056 151.185 174.43C150.915 174.672 150.476 175.217 149.993 175.864C149.939 175.068 149.866 174.274 149.761 173.477C149.686 173.883 149.674 174.731 149.69 175.69C149.264 175.009 148.879 174.437 148.637 174.173C148.968 174.882 149.327 175.576 149.701 176.255C149.709 176.427 149.718 176.588 149.721 176.748C149.757 177.811 149.81 178.865 149.838 179.524C149.162 178.397 148.47 177.283 148.099 176.884C148.593 177.932 149.133 178.94 149.701 179.933C149.754 180.028 149.812 180.124 149.865 180.22C149.869 180.235 149.869 180.251 149.868 180.266C149.909 181.239 149.931 182.214 149.973 183.189C149.955 183.162 149.935 183.135 149.915 183.107C149.882 183.072 149.86 183.037 149.832 183.002C149.055 181.942 148.262 180.899 147.856 180.536C148.444 181.533 149.076 182.486 149.734 183.422C149.795 183.512 149.862 183.602 149.923 183.692C149.929 183.702 149.935 183.707 149.945 183.716C149.972 183.755 149.988 183.792 150.009 183.831C150.056 184.695 150.12 185.56 150.242 186.425C150.316 185.278 150.314 184.183 150.287 183.101C150.786 182.203 151.266 181.292 151.702 180.346C151.385 180.69 150.839 181.555 150.271 182.505Z" fill="#00A45C"/>
<path d="M154.556 183.731V184.568H153.869L153.658 185.4L152.354 190.502H148.201L146.834 185.4L146.613 184.568H145.921V183.731H154.556Z" fill="#FF9134"/>
<path d="M153.869 184.568L153.658 185.4H146.834L146.613 184.568H153.869Z" fill="#FF7344"/>
<mask id="mask5_312_404" style="mask-type:luminance" maskUnits="userSpaceOnUse" x="47" y="190" width="146" height="2">
<path d="M47.2761 190.41H192.581V191.482H47.2761V190.41Z" fill="white"/>
</mask>
<g mask="url(#mask5_312_404)">
<path d="M192.444 191.482H47.3671V190.501H192.444V191.482Z" fill="#AEBBED"/>
</g>
</svg>
