<svg width="93" height="93" viewBox="0 0 93 93" fill="none" xmlns="http://www.w3.org/2000/svg">
<mask id="mask0_282_76" style="mask-type:luminance" maskUnits="userSpaceOnUse" x="5" y="16" width="58" height="41">
<path d="M62.1806 21.0566L9.08463 16.299L5.94586 51.3281L59.0418 56.0857L62.1806 21.0566Z" fill="white"/>
</mask>
<g mask="url(#mask0_282_76)">
<path d="M9.20161 16.5247C9.30717 16.4076 9.48694 16.3442 9.65723 16.3912C9.67275 16.3926 9.68867 16.394 9.70418 16.3954C16.8985 18.8308 23.9277 21.8691 30.917 24.8247C38.4219 28.0325 45.9044 31.3174 53.3681 34.6324C55.6673 35.6625 57.9666 36.6922 60.2672 37.7068C60.7088 37.9046 60.667 38.5506 60.1827 38.6498C57.8069 39.1815 55.5029 40.1477 53.2533 41.0393C52.2181 41.4538 51.1989 41.8697 50.1627 42.2998C49.7029 42.4802 49.2547 42.7096 48.7822 42.8572C47.1382 46.1801 45.4943 49.5031 43.8645 52.843C43.6308 53.3289 43.3815 53.8138 43.1493 54.2841C43.1309 54.3142 43.1295 54.3302 43.1108 54.3598C42.9798 54.5858 42.6687 54.7005 42.3998 54.5182C40.263 53.0906 38.2171 51.5289 36.2942 49.8354C34.4727 48.246 32.7206 46.5838 30.8977 45.01C28.2605 45.6296 25.681 46.4916 23.1672 47.5025C22.6088 47.7215 22.0649 47.9583 21.521 48.1948C21.2902 48.3006 20.9499 48.207 20.8612 47.9613C19.862 45.1461 18.8475 42.3299 17.8154 39.5278C15.895 34.2694 13.9577 29.0251 11.9201 23.8353C11.0432 21.6017 10.1521 19.3512 9.14385 17.1693C9.10115 17.1177 9.07531 17.0523 9.06503 16.9879C9.00357 16.7921 9.06458 16.6393 9.20161 16.5247ZM48.8151 41.7826C49.1764 41.6407 49.5377 41.4988 49.8845 41.3399C50.9535 40.8967 52.0229 40.454 53.1064 40.0282C54.8962 39.3171 56.738 38.5628 58.6066 38.0331C53.7481 35.8708 48.9051 33.7096 44.0279 31.577C36.087 28.1084 28.1273 24.6699 20.0724 21.4128C17.7947 20.4955 15.5325 19.5799 13.2333 18.7241C13.3834 18.8167 13.5322 18.9252 13.6823 19.0177C16.7783 21.0542 19.8743 23.0902 22.9707 25.1267C26.7255 27.5864 30.4634 30.0607 34.2186 32.5205C37.4648 34.6491 40.695 36.7767 43.9412 38.9057C45.0035 39.6029 46.0654 40.3005 47.1277 40.9977C47.5763 41.2913 48.0737 41.5736 48.5199 41.8987C48.6166 41.8757 48.7151 41.8371 48.8151 41.7826ZM42.9499 52.4442C44.3817 49.546 45.8149 46.6318 47.2468 43.7336C47.4218 43.369 47.6128 43.0058 47.7879 42.6416C46.6214 41.8712 45.4394 41.0998 44.2729 40.3298C41.1769 38.2938 38.0809 36.2573 34.9849 34.2209C31.2297 31.7611 27.4917 29.2872 23.7369 26.8275C21.1196 25.1034 18.5022 23.3793 15.8694 21.6539C22.3878 27.2134 28.8918 32.756 35.4098 38.3156C37.603 40.1759 39.7948 42.0519 41.9724 43.9108C42.0752 43.9992 42.1296 44.0992 42.1526 44.1965C42.1657 44.2294 42.177 44.2778 42.1742 44.3092C42.4218 47.025 42.638 49.7383 42.9499 52.4442ZM36.84 49.0445C38.5001 50.4925 40.2311 51.852 42.0353 53.1068C41.6849 50.3023 41.4772 47.495 41.2221 44.6834C38.2959 43.7557 35.0299 44.1446 32.06 44.7656C33.6774 46.1623 35.24 47.6333 36.84 49.0445ZM15.4147 30.2649C17.1915 35.0036 18.9341 39.7706 20.6456 44.5352C20.9492 45.3865 21.2532 46.2374 21.5558 47.1043C23.0401 46.4453 24.5633 45.8846 26.0982 45.3724C29.3971 44.2575 32.8353 43.3616 36.3185 43.1982C37.4794 43.144 38.6338 43.1679 39.7735 43.3496C31.7685 36.5315 23.779 29.7152 15.774 22.8971C14.1252 21.4976 12.4927 20.0995 10.8453 18.6844C12.5325 22.4802 13.9715 26.3962 15.4147 30.2649Z" fill="#333333"/>
</g>
<path d="M45.4309 56.2161C47.2646 58.3768 49.4596 60.396 52.0076 61.654C53.6298 62.4648 55.3744 62.9697 57.2697 63.0287C58.4067 63.0671 59.516 62.8814 60.561 62.5312C60.5324 62.497 60.5038 62.4631 60.4766 62.4128C59.3654 61.0297 58.5233 59.4647 58.093 57.731C57.5084 55.4128 57.7451 52.7717 59.2782 50.8649C60.0454 49.904 61.144 49.1309 62.3279 48.825C63.1872 48.6008 64.0872 48.634 64.953 49.0441C66.8397 49.9104 67.696 52.0156 67.7902 53.973C67.9604 57.7276 65.5253 61.2174 62.254 62.905C62.3254 62.9905 62.4141 63.0619 62.4858 63.1475C64.3632 64.9952 66.6432 66.4196 68.9185 67.717C71.4655 69.1653 74.1106 70.4008 76.8529 71.4384C77.4498 71.6662 77.0983 72.5857 76.5009 72.3579C73.7892 71.3382 71.1596 70.1046 68.6426 68.6746C66.3058 67.356 63.9817 65.896 62.0255 64.0412C61.7768 63.8129 61.5295 63.569 61.2991 63.3106C60.8552 63.4925 60.3996 63.626 59.9313 63.7266C56.2302 64.552 52.7527 63.4163 49.7651 61.4057C47.8525 60.125 46.145 58.4986 44.6979 56.7998C44.2615 56.3647 45.0147 55.735 45.4309 56.2161ZM61.5132 62.1571C64.0096 60.9865 65.9524 58.7521 66.6001 55.9419C67.0132 54.1568 66.7978 51.9669 65.4465 50.6096C64.501 49.6695 63.3086 49.5466 62.1965 49.9381C61.494 50.1764 60.8361 50.6242 60.311 51.1796C58.7521 52.8463 58.5052 55.2483 58.9949 57.3837C59.3585 58.9854 60.1458 60.4503 61.1556 61.7291C61.2701 61.8659 61.4001 62.0044 61.5132 62.1571Z" fill="#333333"/>
<path d="M68.3522 70.5025C70.1352 71.9936 72.1191 73.1854 74.2724 74.0755C74.8524 74.3175 74.5168 75.2384 73.9209 74.9946C71.6902 74.0819 69.6307 72.8516 67.7735 71.3064C67.3029 70.9 67.866 70.0947 68.3522 70.5025Z" fill="#333333"/>
<path d="M64.2782 47.3833C63.6767 47.2029 63.0671 47.1165 62.4641 47.1259C60.0522 47.1789 57.8832 48.7592 57.1262 51.195C56.9455 51.7969 56.0098 51.4596 56.2074 50.8436C57.0978 47.976 59.7149 46.1663 62.5515 46.151C63.2328 46.149 63.9371 46.2435 64.6142 46.4628C65.2313 46.645 64.8784 47.5796 64.2782 47.3833Z" fill="#333333"/>
<path d="M69.138 52.5411C68.7918 51.1 67.989 49.8076 66.8384 48.8647C66.3523 48.4569 66.9154 47.6516 67.417 48.0612C68.774 49.1808 69.6871 50.6574 70.1047 52.3582C70.2539 52.9897 69.2886 53.1566 69.138 52.5411Z" fill="#333333"/>
<path d="M79.6791 72.595C80.7095 72.9411 81.7541 73.3038 82.7841 73.6499C83.3828 73.8618 83.0468 74.7827 82.4326 74.569C81.4021 74.2233 80.3576 73.8602 79.3276 73.5145C78.7274 73.3181 79.079 72.3986 79.6791 72.595Z" fill="#333333"/>
</svg>
