<svg width="136" height="136" viewBox="0 0 136 136" fill="none" xmlns="http://www.w3.org/2000/svg">
<mask id="mask0_282_19" style="mask-type:luminance" maskUnits="userSpaceOnUse" x="42" y="22" width="82" height="61">
<path d="M42.6373 35.8438L114.118 22.3103L123.036 69.4124L51.5551 82.9458L42.6373 35.8438Z" fill="white"/>
</mask>
<g mask="url(#mask0_282_19)">
<path d="M113.989 22.6321C113.83 22.4874 113.578 22.4253 113.353 22.5118C113.332 22.5157 113.31 22.5198 113.29 22.5238C103.842 26.7868 94.699 31.8458 85.5992 36.7872C75.8325 42.1395 66.1066 47.5934 56.4102 53.0856C53.4243 54.7896 50.4384 56.4931 47.4485 58.1762C46.8751 58.5034 47.0178 59.3743 47.6886 59.4443C50.986 59.8488 54.2437 60.8524 57.4175 61.762C58.8785 62.1863 60.3181 62.6146 61.7825 63.0598C62.431 63.2434 63.0701 63.4947 63.7315 63.632C66.4058 67.9207 69.0802 72.2095 71.7376 76.5231C72.1195 77.1511 72.5224 77.7756 72.9004 78.3827C72.9293 78.4211 72.9334 78.4425 72.9627 78.4803C73.1706 78.7694 73.6084 78.8835 73.9494 78.6003C76.6619 76.3787 79.233 73.9875 81.6195 71.4336C83.8823 69.0346 86.041 66.5461 88.3077 64.168C91.9718 64.6569 95.5897 65.4824 99.1382 66.5186C99.9257 66.7413 100.696 66.99 101.466 67.2382C101.794 67.351 102.243 67.1788 102.331 66.8336C103.314 62.8812 104.318 58.9255 105.347 54.9866C107.257 47.597 109.191 40.2243 111.269 32.9122C112.163 29.7652 113.074 26.5933 114.153 23.4989C114.205 23.4232 114.231 23.3311 114.236 23.2424C114.294 22.9685 114.191 22.7694 113.989 22.6321ZM63.544 62.1786C63.0345 62.0342 62.5249 61.8899 62.0328 61.7206C60.522 61.2619 59.0108 60.8039 57.4826 60.3707C54.9573 59.6446 52.3556 58.867 49.7473 58.3975C56.0587 54.8164 62.349 51.2387 68.6897 47.6954C79.0139 41.9312 89.3675 36.2052 99.8746 30.7127C102.846 29.1646 105.797 27.6209 108.806 26.1534C108.614 26.299 108.427 26.466 108.235 26.6116C104.301 29.787 100.366 32.9619 96.4316 36.1374C91.6588 39.9749 86.911 43.8299 82.1376 47.6675C78.0116 50.988 73.9072 54.305 69.7813 57.626C68.4312 58.7135 67.0817 59.8013 65.7315 60.8888C65.1612 61.3469 64.5232 61.7962 63.9604 62.2968C63.826 62.2784 63.687 62.2392 63.544 62.1786ZM72.9267 75.8601C70.5969 72.1193 68.2631 68.3571 65.9334 64.6163C65.6471 64.1449 65.3395 63.6777 65.0533 63.2069C66.5352 62.0063 68.0381 60.8022 69.5201 59.6022C73.4544 56.4273 77.3887 53.2518 81.3229 50.0764C86.0963 46.2388 90.8442 42.3844 95.617 38.5469C98.9427 35.859 102.268 33.1712 105.615 30.4793C97.5006 38.8906 89.4037 47.2768 81.2899 55.6879C78.5584 58.5041 75.8309 61.3412 73.1203 64.1534C72.9925 64.287 72.9319 64.43 72.9136 64.5649C72.9001 64.6113 72.8912 64.6785 72.8992 64.7208C72.9238 68.438 72.9907 72.1477 72.9267 75.8601ZM80.7732 70.4335C78.7109 72.6191 76.5405 74.6942 74.2569 76.6371C74.3601 72.7858 74.2692 68.9496 74.2421 65.1014C78.093 63.4528 82.5805 63.5449 86.6966 63.9914C84.6855 66.1019 82.7587 68.3057 80.7732 70.4335ZM107.377 42.1005C105.593 48.7659 103.86 55.4651 102.169 62.1569C101.869 63.3523 101.57 64.5472 101.274 65.7635C99.1704 65.0675 97.0271 64.5099 94.8744 64.0196C90.2457 62.9471 85.4571 62.1901 80.7046 62.4328C79.1206 62.5141 77.556 62.7004 76.0322 63.0988C85.9983 52.7821 95.9436 42.4699 105.91 32.1532C107.963 30.0348 109.994 27.9205 112.044 25.7811C110.257 31.1554 108.823 36.6598 107.377 42.1005Z" fill="#333333"/>
</g>
<path d="M70.0582 81.3075C67.8548 84.4831 65.142 87.515 61.8485 89.5614C59.7531 90.8776 57.4508 91.7952 54.8845 92.1279C53.3454 92.3316 51.814 92.2275 50.3482 91.8919C50.3825 91.8415 50.4169 91.7918 50.4471 91.72C51.7725 89.6955 52.7083 87.4601 53.0623 85.0508C53.5482 81.828 52.8758 78.2767 50.5402 75.8943C49.3705 74.693 47.7757 73.7907 46.1271 73.5335C44.9303 73.3439 43.7124 73.509 42.591 74.1808C40.1436 75.6075 39.2603 78.5777 39.3925 81.2457C39.6603 86.3618 43.4313 90.7715 48.0985 92.6247C48.0129 92.7502 47.902 92.8589 47.8159 92.9845C45.5116 95.7415 42.6042 97.9778 39.6864 100.041C36.4196 102.346 32.9913 104.374 29.4048 106.148C28.6243 106.536 29.224 107.737 30.005 107.348C33.5525 105.603 36.96 103.579 40.1884 101.304C43.187 99.2031 46.1495 96.9125 48.5599 94.1355C48.8673 93.7926 49.1708 93.4289 49.4493 93.0476C50.0764 93.2352 50.713 93.3555 51.3624 93.4296C56.4987 94.0558 61.0708 92.0515 64.8613 88.9255C67.2887 86.9332 69.3917 84.4991 71.1313 82.0016C71.6662 81.3532 70.5596 80.5994 70.0582 81.3075ZM49.0053 91.5113C45.4591 90.256 42.5237 87.4839 41.2705 83.7579C40.4723 81.3914 40.4737 78.3918 42.1287 76.3704C43.2879 74.9689 44.891 74.6432 46.4535 75.026C47.4393 75.2556 48.3923 75.7755 49.1793 76.4589C51.5181 78.5121 52.1726 81.7377 51.7911 84.6999C51.5103 86.9212 50.6356 89.0135 49.4341 90.883C49.2967 91.0838 49.1386 91.2891 49.0053 91.5113Z" fill="#333333"/>
<path d="M40.8257 103.744C38.6023 106.005 36.0662 107.886 33.2598 109.381C32.5042 109.786 33.0824 110.991 33.8594 110.581C36.7678 109.045 39.4015 107.101 41.7185 104.758C42.3037 104.144 41.4318 103.126 40.8257 103.744Z" fill="#333333"/>
<path d="M43.2867 71.8379C44.0797 71.5129 44.8962 71.3145 45.7164 71.2469C48.9992 70.9972 52.155 72.8519 53.5068 76.0553C53.8322 76.8477 55.0582 76.2655 54.708 75.4561C53.1177 71.6846 49.3228 69.5786 45.4682 69.936C44.5426 70.0241 43.5985 70.2461 42.708 70.6339C41.8941 70.9634 42.4976 72.1843 43.2867 71.8379Z" fill="#333333"/>
<path d="M37.3716 79.4826C37.6503 77.4815 38.5689 75.6211 40.0063 74.1886C40.6124 73.5706 39.7405 72.5531 39.1137 73.1757C37.4194 74.8754 36.3756 77.0003 36.0344 79.3634C35.9157 80.2399 37.2488 80.3376 37.3716 79.4826Z" fill="#333333"/>
<path d="M25.7199 108.093C24.3665 108.7 22.996 109.332 21.6431 109.938C20.8581 110.306 21.4368 111.51 22.2427 111.138C23.5962 110.532 24.9666 109.9 26.3196 109.294C27.1086 108.948 26.509 107.747 25.7199 108.093Z" fill="#333333"/>
</svg>
