<svg width="82" height="82" viewBox="0 0 82 82" fill="none" xmlns="http://www.w3.org/2000/svg">
<path d="M36.6944 39.5853C35.0517 40.1322 33.1888 40.1536 31.5405 39.6304C29.258 38.8589 29.2568 37.4041 31.5496 36.659C35.7789 35.3651 41.1013 37.8857 36.6944 39.5853ZM32.7431 35.8535C28.2551 36.5629 28.2393 39.6921 32.7486 40.3731C34.5693 40.5957 36.571 40.5249 38.1536 39.4691C40.3139 37.9201 38.0437 35.1785 32.7431 35.8535Z" fill="#333333"/>
<path d="M31.3049 38.3764C31.5761 37.5032 34.4107 37.5475 34.7136 38.3764C34.4633 39.2254 31.4911 39.3163 31.3049 38.3764ZM31.8126 37.4186C30.5235 37.8251 30.5254 38.928 31.8126 39.3345C32.7305 39.6711 35.0988 39.641 35.2534 38.3764C35.0988 37.1113 32.7297 37.0813 31.8126 37.4186Z" fill="#333333"/>
<path d="M35.5472 36.6479C34.5581 36.6479 34.5186 37.3554 35.5472 37.3554C36.5287 37.3554 36.5836 36.6479 35.5472 36.6479Z" fill="#333333"/>
<path d="M58.9201 39.1622C48.1564 36.0638 37.1333 33.3748 26.1545 31.1587C36.919 34.2539 47.9401 36.95 58.9201 39.1622Z" fill="#333333"/>
<path d="M42.4228 29.8266C42.227 29.5715 42.0076 29.3924 41.8431 29.1824C40.1679 27.2862 49.4436 25.5581 55.1736 27.4353C56.0665 27.7271 57.6748 28.5342 56.371 29.4683C53.6013 31.281 48.1963 30.9469 47.7823 31.0169C48.2987 31.2446 54.3159 31.3645 56.5917 29.77C58.194 28.588 56.5869 27.4361 55.3211 27.0232C51.4971 25.7333 44.8251 25.9524 42.1112 27.7255C41.0585 28.4255 41.3598 29.3864 42.4228 29.8266Z" fill="#333333"/>
<mask id="mask0_305_550" style="mask-type:luminance" maskUnits="userSpaceOnUse" x="11" y="25" width="60" height="32">
<path d="M11.2066 25.1064H70.7785V56.9194H11.2066V25.1064Z" fill="white"/>
</mask>
<g mask="url(#mask0_305_550)">
<path d="M62.4831 49.9787C50.1083 55.0198 23.8475 53.5824 18.8431 45.2436C17.8501 43.6594 18.1455 42.6138 18.1439 42.5917C21.6168 51.2825 47.5435 54.726 62.6978 48.5551C66.5815 46.9733 69.1222 44.9691 70.0907 42.774C70.078 42.7965 70.6704 46.6363 62.4831 49.9787ZM18.5062 37.0681C21.8655 42.982 36.4085 44.7524 44.2537 44.7524C51.9305 44.7524 66.2469 43.0136 69.8704 37.2872V40.7481C69.8704 43.4372 67.2344 45.9918 62.4479 47.9409C46.1871 54.5627 18.4413 49.7473 18.4413 40.7541L18.5062 37.0681ZM25.9845 28.6383C30.6187 26.9577 36.7118 25.9963 43.2351 25.9058C42.532 26.1225 41.9127 26.3772 41.3943 26.6635C29.3477 27.121 20.2805 30.4424 20.2805 34.6001C20.2805 39.0817 30.8109 42.5921 44.2537 42.5921C67.8457 42.5921 76.7029 32.579 58.5543 28.1456C58.4198 27.853 58.2008 27.573 57.9062 27.31C61.8523 28.201 69.3725 30.565 69.8929 34.6001H69.8704C69.8036 34.7156 71.0283 38.2639 62.5238 41.348C52.4363 45.0059 36.0723 45.0063 25.9845 41.348C21.2838 39.6432 18.588 37.3271 18.588 34.9932C18.588 32.6588 21.2838 30.3427 25.9845 28.6383ZM49.1834 34.0235C44.1157 34.0235 40.6401 32.5802 40.3412 31.1641C42.0851 32.8582 45.9561 33.447 49.2553 33.447C50.1103 33.447 54.9249 33.2129 54.4622 32.4971C54.4072 32.4125 54.1664 32.4576 54.0517 32.4987C51.7585 33.3212 42.581 33.5581 40.3178 30.4621V30.2158C43.5139 33.4118 55.4785 33.3026 58.2288 30.0208L58.2933 31.0545C58.0928 32.4643 54.3262 34.0235 49.1834 34.0235ZM58.873 29.7155C63.2348 30.8299 66.1955 32.7367 66.5989 34.2845C66.9429 36.117 64.223 37.6632 62.8686 38.5162C64.3689 37.827 66.3213 36.9269 66.9366 35.2945C67.9644 32.0245 60.8692 29.7606 58.8442 29.2501L58.824 28.9302C76.5958 33.4849 65.025 41.9293 44.2537 41.9293C31.618 41.9293 20.9429 38.5732 20.9429 34.6001C20.9429 31.0411 29.5126 27.9779 40.3839 27.3788C40.2415 27.5129 40.1209 27.6521 40.0189 27.7944C36.5034 27.9546 32.4888 28.5074 29.1465 29.7389C32.4734 28.8475 36.639 28.3852 39.7709 28.2401C39.5772 28.7332 39.6883 28.8938 39.6555 30.9667C39.6555 33.0523 43.8409 34.6863 49.1834 34.6863C53.7907 34.6863 58.7057 33.3453 58.9549 31.1016L58.958 31.0731L58.873 29.7155ZM49.2079 25.6487C54.5112 25.6487 58.0493 27.3547 58.0493 28.8305C58.0493 30.3071 54.4867 31.8873 49.1834 31.8873C43.88 31.8873 40.3178 30.3071 40.3178 28.8305C40.3178 27.3547 43.9046 25.6487 49.2079 25.6487ZM70.778 43.1089C70.6162 41.4544 70.674 41.9127 70.5245 41.0261C70.53 40.9336 70.5328 40.8411 70.5328 40.7481V35.5931C70.564 35.3942 70.545 35.597 70.545 35.3957C70.545 30.3233 61.2682 27.2325 56.2552 26.2902C56.2722 26.3044 56.2876 26.3206 56.3046 26.3352C53.5301 25.1252 49.4768 24.9108 46.3891 25.2683C39.695 25.1153 32.1048 25.7136 25.7587 28.0151C22.3989 29.2335 17.7362 31.7849 17.9142 35.3467L17.8584 35.3455C17.7762 40.9197 17.7445 40.7117 17.8098 41.2851C16.9786 43.107 17.7908 44.635 17.8386 44.7461C15.1544 45.2108 12.5428 44.7192 12.4839 44.6599C12.4665 44.6571 12.472 44.6607 12.3601 44.6413C12.2976 44.7307 12.2344 44.8193 12.1699 44.907C13.4674 45.3496 16.0413 45.6588 18.1412 45.3492C18.1874 45.4334 18.2384 45.5172 18.291 45.5991C16.9141 46.0542 15.4948 46.3394 14.0708 46.4232C13.2099 46.4718 12.3625 46.3943 11.5107 46.3437C11.5064 46.3417 11.5016 46.3417 11.4996 46.3417C11.4597 46.3394 11.4221 46.337 11.3826 46.335C11.3359 46.3322 11.2877 46.3303 11.2406 46.3279C11.2327 46.371 11.2268 46.409 11.2208 46.4473C11.2141 46.4932 11.2129 46.4979 11.2185 46.4627C11.2153 46.488 11.2129 46.5138 11.2106 46.5391C11.2082 46.5652 11.2082 46.5917 11.2066 46.6178C12.0145 46.825 12.8679 46.8669 13.6892 46.8918C15.3631 46.9416 17.0972 46.7281 18.7502 46.2441C19.1057 46.6885 19.5296 47.1212 20.0195 47.5411C18.7474 48.442 17.3926 49.1779 15.9132 49.705C15.9963 49.7817 16.0797 49.8569 16.1643 49.9316C17.8074 49.5848 19.9851 48.474 20.6376 48.0386C21.2953 48.5337 22.0525 49.011 22.902 49.4614C22.7149 49.9035 22.5294 50.3476 22.4013 50.8051C22.3958 50.8048 22.3946 50.8095 22.3934 50.8135C22.5065 50.8455 22.6192 50.8799 22.7307 50.9179C23.0166 50.5592 23.2468 50.155 23.4496 49.7422C29.19 52.6052 37.0463 53.6706 43.5245 53.7437C42.5161 54.4002 41.6509 54.811 41.0174 55.074C40.7797 55.1725 40.5792 55.248 40.4124 55.3093C40.5262 55.3607 40.637 55.4101 40.7457 55.4584C41.5592 55.2864 42.9183 54.8269 44.7255 53.7461C45.7019 53.7394 46.6671 53.7105 47.619 53.6579C47.1532 54.9613 46.5718 56.1987 46.3824 56.8863C46.5149 56.9061 46.6474 56.9196 46.7802 56.9275C47.2287 56.2766 47.893 54.6995 48.3047 53.6184C48.7365 53.5923 49.5879 53.525 50.3733 53.4456C51.0135 54.5955 51.9282 55.923 52.4209 56.3628C52.5403 56.3082 52.6586 56.2505 52.776 56.1892C52.3968 55.6676 51.6893 54.6153 51.0167 53.3775C51.5161 53.3147 52.2469 53.2415 53.6606 53.0165C55.4425 54.0162 57.784 54.5896 59.1384 54.6446C59.1728 54.6113 59.208 54.5793 59.242 54.5453C59.2859 54.501 59.3266 54.4539 59.3693 54.4085C59.2534 54.3855 59.1376 54.3622 59.0221 54.3405C58.9648 54.3294 58.9074 54.3183 58.8501 54.3072C57.3664 54.0292 56.3295 53.7698 54.6208 52.8488C55.3555 52.7187 56.0733 52.5728 56.7728 52.4115C57.6602 52.5617 58.5519 52.6369 59.448 52.6325C60.1559 52.627 60.8878 52.6088 61.5941 52.4684C61.7242 52.3217 61.7337 52.3138 61.8733 52.1548C61.7803 52.1572 61.6874 52.158 61.5957 52.1619C61.5648 52.1639 61.536 52.1639 61.5075 52.1639C60.1642 52.2141 59.5089 52.2758 58.1636 52.0753C70.9947 48.7192 70.7554 43.1382 70.778 43.1089Z" fill="#333333"/>
</g>
<path d="M48.8931 45.5942C39.589 45.5914 26.7112 45.3988 19.7529 39.3438C21.6665 42.9831 33.802 47.437 48.8931 45.5942Z" fill="#333333"/>
<path d="M20.4154 43.5669C22.7086 46.636 30.6239 49.0387 35.8691 49.8177C39.1877 50.172 43.8615 50.3551 44.6955 50.0977C41.6758 49.9549 39.5922 50.0297 33.564 49.0158C28.9238 48.02 24.1789 46.5656 20.4154 43.5669Z" fill="#333333"/>
<path d="M54.6284 44.8669C59.6783 44.7395 64.7305 42.9043 68.6866 39.751C64.3845 42.3839 59.6233 44.1207 54.6284 44.8669Z" fill="#333333"/>
<path d="M63.972 43.3203C62.1086 44.0021 60.2702 44.6455 58.3859 45.2687C60.3829 45.2461 62.3945 44.547 63.972 43.3203Z" fill="#333333"/>
</svg>
