<svg width="46" height="51" viewBox="0 0 46 51" fill="none" xmlns="http://www.w3.org/2000/svg">
<path d="M23 0.615433C16.7475 0.615433 15.9683 0.648208 13.5214 0.760579C11.0644 0.891678 9.40243 1.30527 7.93599 1.92331C6.42355 2.56632 5.13539 3.42002 3.86305 4.80905C2.58207 6.19028 1.78847 7.58867 1.20478 9.23054C0.635454 10.8225 0.254469 12.6266 0.133704 15.2939C0.0230029 17.9518 0 18.7961 0 25.5836C0 32.3711 0.0301913 33.217 0.133704 35.8734C0.254469 38.5328 0.635454 40.3448 1.20478 41.9367C1.7971 43.5786 2.58351 44.977 3.86305 46.3582C5.13539 47.7488 6.42355 48.6103 7.93599 49.244C9.40243 49.8542 11.0716 50.2756 13.5214 50.4067C15.9697 50.5269 16.7475 50.5518 23 50.5518C29.2525 50.5518 30.0317 50.5191 32.4786 50.4067C34.9284 50.2756 36.5976 49.8526 38.064 49.244C39.5765 48.6009 40.8646 47.7472 42.137 46.3582C43.4179 44.977 44.2115 43.5864 44.7952 41.9367C45.3574 40.3448 45.7455 38.5328 45.8663 35.8734C45.977 33.2155 46 32.3711 46 25.5836C46 18.7961 45.9698 17.9502 45.8663 15.2939C45.7455 12.6344 45.3559 10.8131 44.7952 9.23054C44.2029 7.58867 43.4165 6.19028 42.137 4.80905C40.8646 3.41846 39.5836 2.55695 38.064 1.92331C36.5976 1.30527 34.9284 0.891678 32.4786 0.760579C30.0303 0.640404 29.2525 0.615433 23 0.615433ZM23 5.11027C29.1403 5.11027 29.8735 5.14304 32.3004 5.25542C34.5388 5.36935 35.758 5.77513 36.5674 6.11849C37.6471 6.57265 38.4019 7.10954 39.2185 7.98665C40.0193 8.85597 40.5138 9.6847 40.9322 10.8568C41.2485 11.7355 41.6223 13.059 41.7272 15.489C41.8307 18.1234 41.8609 18.921 41.8609 25.5852C41.8609 32.2494 41.8307 33.0469 41.7186 35.6814C41.5978 38.1114 41.224 39.4349 40.9092 40.3136C40.4736 41.4857 39.9876 42.305 39.1854 43.1915C38.376 44.0608 37.6054 44.5977 36.5343 45.0519C35.735 45.3953 34.4986 45.801 32.2515 45.915C29.8117 46.0273 29.0929 46.0601 22.9367 46.0601C16.7806 46.0601 16.0632 46.0273 13.6206 45.9056C11.3821 45.7745 10.1471 45.3687 9.33773 45.0269C8.24509 44.554 7.49606 44.0265 6.69384 43.1556C5.88442 42.277 5.36973 41.4404 4.97293 40.2777C4.65089 39.4099 4.28285 38.0677 4.16352 35.6283C4.08157 33.011 4.04276 32.1995 4.04276 25.5477C4.04276 18.8991 4.08157 18.086 4.16352 15.4359C4.28285 12.9965 4.65089 11.6574 4.97293 10.7866C5.36973 9.59887 5.88586 8.7873 6.69384 7.90862C7.49462 7.0393 8.24509 6.47745 9.33773 6.03733C10.1471 5.69554 11.3519 5.28975 13.599 5.16802C16.0388 5.07281 16.7576 5.03848 22.9051 5.03848L23 5.11027ZM23 12.7687C16.4715 12.7687 11.1923 18.5074 11.1923 25.5868C11.1923 32.6739 16.4787 38.4048 23 38.4048C29.5285 38.4048 34.8077 32.6661 34.8077 25.5868C34.8077 18.4996 29.5213 12.7687 23 12.7687ZM23 33.91C18.7617 33.91 15.3329 30.1877 15.3329 25.5868C15.3329 20.9858 18.7617 17.2635 23 17.2635C27.2383 17.2635 30.6671 20.9858 30.6671 25.5868C30.6671 30.1877 27.2383 33.91 23 33.91ZM38.0439 12.2568C38.0439 13.9158 36.8003 15.2549 35.2792 15.2549C33.751 15.2549 32.5174 13.9142 32.5174 12.2568C32.5174 10.6071 33.7596 9.26487 35.2792 9.26487C36.7989 9.26487 38.0439 10.6071 38.0439 12.2568Z" fill="#5092DE"/>
</svg>
