<svg width="46" height="51" viewBox="0 0 46 51" fill="none" xmlns="http://www.w3.org/2000/svg">
<path d="M30.0601 0.615433H15.9399C3.05459 0.615433 0 3.93142 0 17.9194V33.2478C0 47.2358 3.05459 50.5518 15.9399 50.5518H30.0601C42.9454 50.5518 46 47.2358 46 33.2478V17.9194C46 3.93142 42.9152 0.615433 30.0601 0.615433ZM37.1352 36.2377H33.796C32.531 36.2377 32.1415 35.1485 29.866 32.6455C27.8895 30.5654 27.0141 30.2892 26.5268 30.2892C25.8383 30.2892 25.6428 30.4999 25.6428 31.5251V34.8005C25.6428 35.6791 25.3883 36.2065 23.2465 36.2065C19.7046 36.2065 15.7746 33.8814 13.019 29.5495C8.86335 23.2016 7.72632 18.4469 7.72632 17.4638C7.72632 16.9348 7.92038 16.4401 8.85616 16.4401H12.2026C13.0492 16.4401 13.3712 16.863 13.7004 17.8461C15.3549 23.0315 18.1105 27.574 19.2475 27.574C19.6673 27.574 19.8613 27.3633 19.8613 26.2008V20.8453C19.7334 18.3751 18.536 18.1628 18.536 17.2859C18.536 16.863 18.858 16.4401 19.374 16.4401H24.6365C25.3481 16.4401 25.6097 16.863 25.6097 17.7727V24.9977C25.6097 25.7779 25.9317 26.0541 26.1257 26.0541C26.5455 26.0541 26.9048 25.7779 27.6825 24.9321C30.0859 22.0063 31.808 17.495 31.808 17.495C32.0322 16.966 32.4218 16.4713 33.2685 16.4713H36.6149C37.6182 16.4713 37.8424 17.0315 37.6182 17.8117C37.1985 19.9246 33.1032 26.1992 33.1032 26.1992C32.751 26.8328 32.6159 27.109 33.1032 27.8159C33.4625 28.3449 34.6312 29.4419 35.4088 30.425C36.8391 32.1883 37.9388 33.6676 38.232 34.6913C38.5612 35.7071 38.0753 36.2361 37.1309 36.2361L37.1352 36.2377Z" fill="#5092DE"/>
</svg>
